<svg width="24" height="24" viewBox="0 0 24 24" fill="none" xmlns="http://www.w3.org/2000/svg">
<g clip-path="url(#clip0_4_2)">
<path fill-rule="evenodd" clip-rule="evenodd" d="M9.5 3C9.5 2.46957 9.71071 1.96086 10.0858 1.58579C10.4609 1.21071 10.9696 1 11.5 1C12.0304 1 12.5391 1.21071 12.9142 1.58579C13.2893 1.96086 13.5 2.46957 13.5 3C13.5 3.53043 13.2893 4.03914 12.9142 4.41421C12.5391 4.78929 12.0304 5 11.5 5C10.9696 5 10.4609 4.78929 10.0858 4.41421C9.71071 4.03914 9.5 3.53043 9.5 3ZM11.5 6.62834e-07C10.7457 -0.00298641 10.018 0.278271 9.46178 0.78775C8.90556 1.29723 8.56168 1.99754 8.49862 2.74918C8.43556 3.50082 8.65796 4.24864 9.12152 4.84367C9.58507 5.4387 10.2558 5.83727 11 5.96V8.02C10.1241 8.09985 9.28011 8.38861 8.53887 8.86203C7.79762 9.33546 7.18072 9.97976 6.73992 10.7409C6.29912 11.502 6.04729 12.3577 6.00554 13.2362C5.9638 14.1148 6.13336 14.9905 6.5 15.79L4.74 17.55C4.12727 17.1129 3.37263 16.9221 2.62577 17.0154C1.87892 17.1087 1.19444 17.4794 0.708109 18.0538C0.221781 18.6283 -0.0308526 19.3645 0.000326681 20.1165C0.031506 20.8685 0.34422 21.5814 0.876431 22.1136C1.40864 22.6458 2.12146 22.9585 2.87347 22.9897C3.62549 23.0209 4.36175 22.7682 4.93619 22.2819C5.51063 21.7956 5.88128 21.1111 5.9746 20.3642C6.06793 19.6174 5.87711 18.8627 5.44 18.25L7.02 16.69C7.52861 17.4042 8.20058 17.9864 8.97988 18.3881C9.75919 18.7898 10.6232 18.9995 11.5 18.9995C12.3768 18.9995 13.2408 18.7898 14.0201 18.3881C14.7994 17.9864 15.4714 17.4042 15.98 16.69L17.55 18.26C17.1129 18.8727 16.9221 19.6274 17.0154 20.3742C17.1087 21.1211 17.4794 21.8056 18.0538 22.2919C18.6283 22.7782 19.3645 23.0309 20.1165 22.9997C20.8685 22.9685 21.5814 22.6558 22.1136 22.1236C22.6458 21.5914 22.9585 20.8785 22.9897 20.1265C23.0209 19.3745 22.7682 18.6383 22.2819 18.0638C21.7956 17.4894 21.1111 17.1187 20.3642 17.0254C19.6174 16.9321 18.8627 17.1229 18.25 17.56L16.5 15.79C16.8666 14.9905 17.0362 14.1148 16.9945 13.2362C16.9527 12.3577 16.7009 11.502 16.2601 10.7409C15.8193 9.97976 15.2024 9.33546 14.4611 8.86203C13.7199 8.38861 12.8759 8.09985 12 8.02V5.96C12.7442 5.83727 13.4149 5.4387 13.8785 4.84367C14.342 4.24864 14.5644 3.50082 14.5014 2.74918C14.4383 1.99754 14.0944 1.29723 13.5382 0.78775C12.982 0.278271 12.2543 -0.00298641 11.5 6.62834e-07ZM11.5 18C12.6935 18 13.8381 17.5259 14.682 16.682C15.5259 15.8381 16 14.6935 16 13.5C16 12.3065 15.5259 11.1619 14.682 10.318C13.8381 9.47411 12.6935 9 11.5 9C10.3065 9 9.16193 9.47411 8.31802 10.318C7.47411 11.1619 7 12.3065 7 13.5C7 14.6935 7.47411 15.8381 8.31802 16.682C9.16193 17.5259 10.3065 18 11.5 18ZM3 18C2.46957 18 1.96086 18.2107 1.58579 18.5858C1.21071 18.9609 0.999999 19.4696 0.999999 20C0.999999 20.5304 1.21071 21.0391 1.58579 21.4142C1.96086 21.7893 2.46957 22 3 22C3.53043 22 4.03914 21.7893 4.41421 21.4142C4.78929 21.0391 5 20.5304 5 20C5 19.4696 4.78929 18.9609 4.41421 18.5858C4.03914 18.2107 3.53043 18 3 18ZM18 20C18 19.4696 18.2107 18.9609 18.5858 18.5858C18.9609 18.2107 19.4696 18 20 18C20.5304 18 21.0391 18.2107 21.4142 18.5858C21.7893 18.9609 22 19.4696 22 20C22 20.5304 21.7893 21.0391 21.4142 21.4142C21.0391 21.7893 20.5304 22 20 22C19.4696 22 18.9609 21.7893 18.5858 21.4142C18.2107 21.0391 18 20.5304 18 20Z" fill="black"/>
</g>
<defs>
<clipPath id="clip0_4_2">
<rect width="24" height="24" fill="white"/>
</clipPath>
</defs>
</svg>
