<svg width="20" height="20" viewBox="0 0 24 24" fill="none" xmlns="http://www.w3.org/2000/svg">
<g clip-path="url(#clip0_1_2)">
<path d="M11.058 15.759C11.5561 15.7281 12.0356 15.5583 12.4421 15.2688C12.8487 14.9793 13.1659 14.5816 13.358 14.121C13.8938 12.9985 14.112 11.7507 13.989 10.513V10.061C13.989 9.92839 13.9363 9.80122 13.8426 9.70745C13.7488 9.61368 13.6216 9.561 13.489 9.561C10.344 9.561 8.751 10.761 8.751 13.132C8.71195 13.4595 8.7423 13.7915 8.84007 14.1065C8.93784 14.4215 9.10084 14.7123 9.31846 14.9602C9.53609 15.208 9.80346 15.4072 10.1032 15.5448C10.4029 15.6824 10.7282 15.7554 11.058 15.759ZM12.992 10.572C13.1008 11.6157 12.9282 12.6696 12.492 13.624V13.632C12.055 14.422 11.628 14.759 11.061 14.759C9.881 14.759 9.754 13.621 9.754 13.132C9.751 12 10.132 10.7 12.992 10.572Z" fill="black"/>
<path d="M7.866 8.278C6.81763 8.70722 5.92523 9.44616 5.30803 10.3961C4.69082 11.346 4.37823 12.4617 4.412 13.594C4.412 16.726 6.358 18.75 9.371 18.75C10.2621 18.8014 11.1536 18.657 11.9829 18.3268C12.8122 17.9966 13.5591 17.4888 14.171 16.839C14.5728 17.476 15.0848 18.0364 15.683 18.494C15.8853 18.628 16.1284 18.6862 16.3695 18.6582C16.6105 18.6302 16.8338 18.5178 17 18.341C17.579 17.822 18.657 16.904 19.309 16.355C19.4788 16.1649 19.5786 15.9224 19.5919 15.6678C19.6052 15.4133 19.5311 15.1618 19.382 14.955C19.3749 14.9433 19.3672 14.9319 19.359 14.921C19.254 14.776 19.143 14.64 19.034 14.505C18.7808 14.2546 18.5809 13.9557 18.4461 13.6261C18.3114 13.2965 18.2447 12.943 18.25 12.587V7.813C18.25 5.785 18.25 3.869 16.711 2.375C15.4069 1.27922 13.7456 0.700902 12.043 0.750001C10.185 0.750001 5.773 1.233 4.925 5.698C4.89818 5.8394 4.90046 5.98479 4.93171 6.12528C4.96296 6.26577 5.02251 6.39841 5.10674 6.51511C5.19097 6.63181 5.2981 6.73012 5.42159 6.80404C5.54509 6.87795 5.68235 6.92591 5.825 6.945L8.791 7.268C9.03302 7.22466 9.25534 7.1065 9.42666 6.93016C9.59799 6.75381 9.70967 6.52817 9.746 6.285C9.83574 5.86142 10.0786 5.48586 10.4281 5.23029C10.7776 4.97471 11.2092 4.8571 11.64 4.9C11.8025 4.88621 11.9662 4.90571 12.1209 4.95729C12.2756 5.00887 12.4182 5.09145 12.54 5.2C12.923 5.81653 13.0833 6.54568 12.994 7.266L12.613 7.308C10.9918 7.3981 9.39256 7.7249 7.866 8.278ZM13.546 8.209C13.6685 8.19495 13.7815 8.13613 13.8633 8.04384C13.945 7.95155 13.9898 7.8323 13.989 7.709V7.52C14.1366 6.45256 13.87 5.36911 13.244 4.492C13.0309 4.29072 12.7793 4.1346 12.5044 4.03303C12.2294 3.93147 11.9368 3.88656 11.644 3.901C10.9816 3.85046 10.3235 4.0433 9.79307 4.44335C9.26268 4.8434 8.89643 5.42319 8.763 6.074C8.74886 6.14053 8.7213 6.20349 8.682 6.259L5.989 5.959C5.939 5.948 5.902 5.921 5.905 5.897C6.616 2.152 10.434 1.748 12.043 1.748C13.4852 1.69971 14.8958 2.17738 16.012 3.092C17.247 4.292 17.247 5.921 17.247 7.811V12.59C17.2365 13.5381 17.598 14.4525 18.254 15.137C18.348 15.254 18.444 15.372 18.536 15.496C18.585 15.582 18.596 15.649 18.631 15.619C18.005 16.144 16.914 17.072 16.331 17.595C16.289 17.632 16.248 17.653 16.26 17.675C15.7218 17.2521 15.2657 16.7342 14.914 16.147L14.662 15.777C14.62 15.7165 14.5651 15.6661 14.5013 15.6292C14.4375 15.5924 14.3664 15.5701 14.293 15.564C14.2193 15.555 14.1445 15.5638 14.0748 15.5898C14.0052 15.6157 13.9429 15.658 13.893 15.713C13.358 16.3905 12.6678 16.9292 11.8808 17.2838C11.0937 17.6383 10.2329 17.7982 9.371 17.75C6.892 17.75 5.412 16.196 5.412 13.594C5.37616 12.657 5.63087 11.7319 6.14125 10.9452C6.65163 10.1586 7.39272 9.54906 8.263 9.2C9.6962 8.68942 11.195 8.38636 12.714 8.3L13.546 8.209Z" fill="black"/>
<path d="M23.794 18.381C23.271 17.786 20.583 17.593 19.046 18.691C18.9926 18.7292 18.9472 18.7776 18.9124 18.8333C18.8776 18.8891 18.8542 18.9512 18.8434 19.016C18.8327 19.0808 18.8348 19.1471 18.8496 19.2111C18.8645 19.2751 18.8918 19.3356 18.93 19.389C18.9682 19.4424 19.0166 19.4878 19.0723 19.5226C19.1281 19.5574 19.1902 19.5808 19.255 19.5916C19.3198 19.6023 19.3861 19.6002 19.4501 19.5854C19.5141 19.5705 19.5746 19.5432 19.628 19.505C20.6485 18.9177 21.8554 18.7442 23 19.02C22.9856 20.2072 22.508 21.3419 21.669 22.182C21.6155 22.2233 21.571 22.275 21.5381 22.334C21.5052 22.393 21.4846 22.4581 21.4775 22.5253C21.4704 22.5925 21.4771 22.6604 21.497 22.725C21.5169 22.7895 21.5497 22.8494 21.5934 22.9009C21.6371 22.9525 21.6908 22.9946 21.7512 23.0248C21.8116 23.055 21.8775 23.0727 21.945 23.0767C22.0124 23.0807 22.08 23.0711 22.1436 23.0482C22.2072 23.0254 22.2655 22.99 22.315 22.944C23.731 21.742 24.34 19.1 23.794 18.381Z" fill="black"/>
<path d="M21.859 20.024C21.7956 19.9076 21.6885 19.8211 21.5614 19.7836C21.4343 19.7461 21.2974 19.7607 21.181 19.824C20.994 19.924 20.807 20.024 20.623 20.116C17.5016 21.7164 13.9971 22.4188 10.5001 22.1452C7.00297 21.8715 3.65049 20.6324 0.816 18.566C0.713361 18.4819 0.581528 18.4421 0.449502 18.4552C0.317477 18.4683 0.196073 18.5334 0.112 18.636C0.0279261 18.7386 -0.011931 18.8705 0.0011965 19.0025C0.014324 19.1345 0.0793609 19.2559 0.182 19.34C3.62155 21.8435 7.7599 23.2048 12.014 23.232C15.1672 23.2159 18.2717 22.4527 21.073 21.005C21.266 20.905 21.461 20.805 21.656 20.705C21.7143 20.6739 21.7658 20.6315 21.8076 20.5803C21.8494 20.5291 21.8807 20.4702 21.8995 20.4068C21.9184 20.3435 21.9245 20.2771 21.9176 20.2114C21.9106 20.1457 21.8907 20.082 21.859 20.024Z" fill="black"/>
</g>
<defs>
<clipPath id="clip0_1_2">
<rect width="24" height="24" fill="white"/>
</clipPath>
</defs>
</svg>
