<svg width="20" height="20" viewBox="0 0 20 20" fill="none" xmlns="http://www.w3.org/2000/svg">
<g clip-path="url(#clip0_4_21)">
<path d="M13.3452 12.8666C12.7152 13.4257 11.9285 14.1214 10.502 14.1214H9.64895C8.61668 14.1214 7.67777 13.7461 7.00572 13.066C6.34924 12.4015 5.98786 11.492 5.98786 10.5046V9.33749C5.98786 8.35017 6.34924 7.44066 7.00572 6.77611C7.67777 6.09599 8.61668 5.72135 9.64895 5.72135H10.502C11.9302 5.72135 12.7152 6.41645 13.3452 6.97553C13.9994 7.5519 14.5636 8.05564 16.0685 8.05564C16.2981 8.05559 16.5272 8.03728 16.7539 8.00089L16.7487 7.98763C16.6585 7.76379 16.5528 7.54654 16.4322 7.33749L15.4265 5.59513C14.9729 4.80967 14.3206 4.15743 13.5351 3.70397C12.7496 3.25051 11.8585 3.0118 10.9515 3.01184H8.93944C8.03244 3.0118 7.1414 3.25051 6.35589 3.70397C5.57038 4.15743 4.91807 4.80967 4.46451 5.59513L3.45875 7.33749C3.00535 8.12303 2.76666 9.01406 2.76666 9.92106C2.76666 10.8281 3.00535 11.7191 3.45875 12.5046L4.46451 14.247C4.91807 15.0325 5.57038 15.6847 6.35589 16.1382C7.1414 16.5916 8.03244 16.8303 8.93944 16.8303H10.9515C11.8585 16.8303 12.7496 16.5916 13.5351 16.1382C14.3206 15.6847 14.9729 15.0325 15.4265 14.247L16.4322 12.5075C16.5528 12.2985 16.6585 12.0812 16.7487 11.8574L16.7539 11.8447C16.5273 11.8071 16.2982 11.7878 16.0685 11.7871C14.5636 11.7871 13.9994 12.2879 13.3452 12.8672" fill="black"/>
<path d="M10.502 6.77899H9.64895C8.07777 6.77899 7.04549 7.90118 7.04549 9.33749V10.5046C7.04549 11.941 8.07777 13.0631 9.64895 13.0631H10.502C12.7913 13.0631 12.6115 10.7288 16.0685 10.7288C16.3961 10.7285 16.723 10.7586 17.0449 10.8188C17.1498 10.2249 17.1498 9.61724 17.0449 9.02337C16.7229 9.08327 16.3961 9.11337 16.0685 9.11329C12.6103 9.11329 12.7913 6.77899 10.502 6.77899Z" fill="black"/>
<path d="M19.0311 11.6718C18.4424 11.2406 17.7634 10.9487 17.0455 10.8182C17.0455 10.8245 17.0455 10.8297 17.0455 10.8355C16.9837 11.1796 16.8871 11.5166 16.7573 11.8412C17.3504 11.9331 17.9131 12.1648 18.3988 12.5173C18.3988 12.5219 18.3959 12.5277 18.3942 12.5329C17.769 14.5572 16.4385 16.2901 14.6443 17.4169C12.8501 18.5436 10.7113 18.9894 8.61632 18.6733C6.52139 18.3572 4.60933 17.3001 3.2275 15.6941C1.84566 14.0881 1.08572 12.0397 1.08572 9.92106C1.08572 7.80241 1.84566 5.75403 3.2275 4.14804C4.60933 2.54204 6.52139 1.48497 8.61632 1.16885C10.7113 0.852726 12.8501 1.29853 14.6443 2.42526C16.4385 3.552 17.769 5.28493 18.3942 7.30924C18.3942 7.31443 18.3971 7.3202 18.3988 7.32481C17.9132 7.67734 17.3504 7.90891 16.7573 8.00031C16.887 8.32541 16.9835 8.66275 17.0455 9.00723C17.0452 9.0126 17.0452 9.01799 17.0455 9.02337C17.7634 8.89303 18.4423 8.60135 19.0311 8.17034C19.5971 7.75132 19.4876 7.27812 19.4017 6.99801C18.7019 4.72833 17.2111 2.78501 15.2002 1.52119C13.1892 0.257362 10.7916 -0.243102 8.44302 0.110738C6.09442 0.464577 3.95069 1.64924 2.40138 3.44945C0.852071 5.24966 0 7.54596 0 9.92106C0 12.2962 0.852071 14.5925 2.40138 16.3927C3.95069 18.1929 6.09442 19.3775 8.44302 19.7314C10.7916 20.0852 13.1892 19.5848 15.2002 18.3209C17.2111 17.0571 18.7019 15.1138 19.4017 12.8441C19.4876 12.564 19.5971 12.0908 19.0311 11.6718Z" fill="black"/>
</g>
<defs>
<clipPath id="clip0_4_21">
<rect width="20" height="20" fill="white"/>
</clipPath>
</defs>
</svg>
