<svg width="270" height="271" viewBox="0 0 270 271" fill="none" xmlns="http://www.w3.org/2000/svg">
<rect y="0.951416" width="270" height="270" rx="10" fill="black"/>
<rect opacity="0.5" x="15" y="254.951" width="220" height="5" rx="2.5" fill="#E3E2D5"/>
<rect opacity="0.5" x="15" y="242.951" width="231" height="5" rx="2.5" fill="#E3E2D5"/>
<rect opacity="0.5" x="15" y="230.951" width="179" height="5" rx="2.5" fill="#E3E2D5"/>
<rect opacity="0.5" x="15" y="218.951" width="240" height="5" rx="2.5" fill="#E3E2D5"/>
<rect opacity="0.5" x="15" y="206.951" width="220" height="5" rx="2.5" fill="#E3E2D5"/>
<rect opacity="0.5" x="15" y="194.951" width="231" height="5" rx="2.5" fill="#E3E2D5"/>
<rect opacity="0.5" x="15" y="182.951" width="179" height="5" rx="2.5" fill="#E3E2D5"/>
<rect opacity="0.5" x="15" y="162.951" width="240" height="5" rx="2.5" fill="#E3E2D5"/>
<rect opacity="0.5" x="15" y="150.951" width="220" height="5" rx="2.5" fill="#E3E2D5"/>
<rect opacity="0.5" x="15" y="138.951" width="231" height="5" rx="2.5" fill="#E3E2D5"/>
<rect opacity="0.5" x="15" y="126.951" width="179" height="5" rx="2.5" fill="#E3E2D5"/>
<rect x="76" y="87.9514" width="50" height="5" rx="2.5" fill="#E3E2D5"/>
<rect x="76" y="70.9514" width="70" height="10" rx="5" fill="#E3E2D5"/>
<circle cx="38" cy="93.9514" r="23" fill="#E3E2D5"/>
<path d="M246.5 17.8264H252.635L239.235 33.1814L255 54.0764H242.657L232.99 41.4014L221.927 54.0764H215.79L230.122 37.6514L215 17.8264H227.658L236.395 29.4089L246.5 17.8264ZM244.35 50.3964H247.75L225.807 21.3139H222.162L244.35 50.3964Z" fill="#E3E2D5"/>
</svg>
