<svg width="270" height="271" viewBox="0 0 270 271" fill="none" xmlns="http://www.w3.org/2000/svg">
<rect y="0.951416" width="270" height="270" rx="10" fill="#FF0000"/>
<path fill-rule="evenodd" clip-rule="evenodd" d="M135 114.076C128.816 114.076 122.933 114.475 117.619 115.196C111.962 115.962 108.125 120.932 108.125 126.448V145.455C108.125 150.97 111.962 155.941 117.619 156.707C122.933 157.427 128.816 157.826 135 157.826C141.184 157.826 147.067 157.427 152.381 156.707C158.038 155.941 161.875 150.97 161.875 145.455V126.448C161.875 120.932 158.038 115.962 152.381 115.196C147.067 114.475 141.184 114.076 135 114.076ZM130.965 126.844C130.385 126.496 129.664 126.487 129.076 126.82C128.488 127.153 128.125 127.776 128.125 128.451V143.451C128.125 144.127 128.488 144.75 129.076 145.083C129.664 145.416 130.385 145.407 130.965 145.059L143.465 137.559C144.029 137.22 144.375 136.61 144.375 135.951C144.375 135.293 144.029 134.682 143.465 134.344L130.965 126.844Z" fill="white"/>
</svg>
