<svg width="270" height="271" viewBox="0 0 270 271" fill="none" xmlns="http://www.w3.org/2000/svg">
<rect y="0.951416" width="270" height="270" rx="10" fill="#26D367"/>
<rect x="225" y="225.951" width="30" height="30" rx="15" fill="#E3E2D5"/>
<g clip-path="url(#clip0_934_886)">
<path d="M237 235.951C237 235.156 237.316 234.393 237.879 233.83C238.441 233.267 239.204 232.951 240 232.951C240.796 232.951 241.559 233.267 242.121 233.83C242.684 234.393 243 235.156 243 235.951V240.951C243 241.747 242.684 242.51 242.121 243.073C241.559 243.635 240.796 243.951 240 243.951C239.204 243.951 238.441 243.635 237.879 243.073C237.316 242.51 237 241.747 237 240.951V235.951Z" fill="#29292B"/>
<path d="M235.5 239.451C235.633 239.451 235.76 239.504 235.854 239.598C235.947 239.692 236 239.819 236 239.951V240.951C236 242.012 236.421 243.03 237.172 243.78C237.922 244.53 238.939 244.951 240 244.951C241.061 244.951 242.078 244.53 242.828 243.78C243.579 243.03 244 242.012 244 240.951V239.951C244 239.819 244.053 239.692 244.146 239.598C244.24 239.504 244.367 239.451 244.5 239.451C244.633 239.451 244.76 239.504 244.854 239.598C244.947 239.692 245 239.819 245 239.951V240.951C245 242.191 244.54 243.386 243.708 244.306C242.877 245.225 241.733 245.802 240.5 245.926V247.951H243.5C243.633 247.951 243.76 248.004 243.854 248.098C243.947 248.192 244 248.319 244 248.451C244 248.584 243.947 248.711 243.854 248.805C243.76 248.899 243.633 248.951 243.5 248.951H236.5C236.367 248.951 236.24 248.899 236.146 248.805C236.053 248.711 236 248.584 236 248.451C236 248.319 236.053 248.192 236.146 248.098C236.24 248.004 236.367 247.951 236.5 247.951H239.5V245.926C238.267 245.802 237.123 245.225 236.292 244.306C235.46 243.386 235 242.191 235 240.951V239.951C235 239.819 235.053 239.692 235.146 239.598C235.24 239.504 235.367 239.451 235.5 239.451Z" fill="#29292B"/>
</g>
<rect x="15" y="225.951" width="195" height="30" rx="15" fill="#E3E2D5"/>
<path d="M26.54 244.951C26.4373 244.951 26.358 244.923 26.302 244.867C26.246 244.802 26.218 244.723 26.218 244.629V235.487C26.218 235.385 26.246 235.305 26.302 235.249C26.358 235.184 26.4373 235.151 26.54 235.151H30.096C30.7867 235.151 31.384 235.263 31.888 235.487C32.4013 235.711 32.798 236.047 33.078 236.495C33.358 236.934 33.498 237.485 33.498 238.147C33.498 238.81 33.358 239.361 33.078 239.799C32.798 240.238 32.4013 240.569 31.888 240.793C31.384 241.017 30.7867 241.129 30.096 241.129H27.618V244.629C27.618 244.723 27.5853 244.802 27.52 244.867C27.464 244.923 27.3847 244.951 27.282 244.951H26.54ZM27.604 239.953H30.026C30.7167 239.953 31.2347 239.799 31.58 239.491C31.9253 239.183 32.098 238.735 32.098 238.147C32.098 237.569 31.93 237.121 31.594 236.803C31.258 236.486 30.7353 236.327 30.026 236.327H27.604V239.953ZM35.3544 244.951C35.2611 244.951 35.1818 244.923 35.1164 244.867C35.0604 244.802 35.0324 244.723 35.0324 244.629V235.333C35.0324 235.24 35.0604 235.165 35.1164 235.109C35.1818 235.044 35.2611 235.011 35.3544 235.011H36.0124C36.1151 235.011 36.1944 235.044 36.2504 235.109C36.3064 235.165 36.3344 235.24 36.3344 235.333V244.629C36.3344 244.723 36.3064 244.802 36.2504 244.867C36.1944 244.923 36.1151 244.951 36.0124 244.951H35.3544ZM41.3207 245.091C40.3594 245.091 39.5941 244.797 39.0247 244.209C38.4554 243.612 38.1427 242.8 38.0867 241.773C38.0774 241.652 38.0727 241.498 38.0727 241.311C38.0727 241.115 38.0774 240.957 38.0867 240.835C38.1241 240.173 38.2781 239.594 38.5487 239.099C38.8194 238.595 39.1881 238.208 39.6547 237.937C40.1307 237.667 40.6861 237.531 41.3207 237.531C42.0301 237.531 42.6227 237.681 43.0987 237.979C43.5841 238.278 43.9527 238.703 44.2047 239.253C44.4567 239.804 44.5827 240.448 44.5827 241.185V241.423C44.5827 241.526 44.5501 241.605 44.4847 241.661C44.4287 241.717 44.3541 241.745 44.2607 241.745H39.4167C39.4167 241.755 39.4167 241.773 39.4167 241.801C39.4167 241.829 39.4167 241.853 39.4167 241.871C39.4354 242.254 39.5194 242.613 39.6687 242.949C39.8181 243.276 40.0327 243.542 40.3127 243.747C40.5927 243.953 40.9287 244.055 41.3207 244.055C41.6567 244.055 41.9367 244.004 42.1607 243.901C42.3847 243.799 42.5667 243.687 42.7067 243.565C42.8467 243.435 42.9401 243.337 42.9867 243.271C43.0707 243.15 43.1361 243.08 43.1827 243.061C43.2294 243.033 43.3041 243.019 43.4067 243.019H44.0787C44.1721 243.019 44.2467 243.047 44.3027 243.103C44.3681 243.15 44.3961 243.22 44.3867 243.313C44.3774 243.453 44.3027 243.626 44.1627 243.831C44.0227 244.027 43.8221 244.223 43.5607 244.419C43.2994 244.615 42.9821 244.779 42.6087 244.909C42.2354 245.031 41.8061 245.091 41.3207 245.091ZM39.4167 240.779H43.2527V240.737C43.2527 240.317 43.1734 239.944 43.0147 239.617C42.8654 239.291 42.6461 239.034 42.3567 238.847C42.0674 238.651 41.7221 238.553 41.3207 238.553C40.9194 238.553 40.5741 238.651 40.2847 238.847C40.0047 239.034 39.7901 239.291 39.6407 239.617C39.4914 239.944 39.4167 240.317 39.4167 240.737V240.779ZM48.2867 245.091C47.82 245.091 47.3954 244.998 47.0127 244.811C46.63 244.625 46.322 244.373 46.0887 244.055C45.8554 243.738 45.7387 243.379 45.7387 242.977C45.7387 242.333 46 241.82 46.5227 241.437C47.0454 241.055 47.7267 240.803 48.5667 240.681L50.6527 240.387V239.981C50.6527 239.533 50.522 239.183 50.2607 238.931C50.0087 238.679 49.5934 238.553 49.0147 238.553C48.5947 238.553 48.254 238.637 47.9927 238.805C47.7407 238.973 47.5634 239.188 47.4607 239.449C47.4047 239.589 47.3067 239.659 47.1667 239.659H46.5367C46.434 239.659 46.3547 239.631 46.2987 239.575C46.252 239.51 46.2287 239.435 46.2287 239.351C46.2287 239.211 46.28 239.039 46.3827 238.833C46.4947 238.628 46.6627 238.427 46.8867 238.231C47.1107 238.035 47.3954 237.872 47.7407 237.741C48.0954 237.601 48.5247 237.531 49.0287 237.531C49.5887 237.531 50.06 237.606 50.4427 237.755C50.8254 237.895 51.124 238.087 51.3387 238.329C51.5627 238.572 51.7214 238.847 51.8147 239.155C51.9174 239.463 51.9687 239.776 51.9687 240.093V244.629C51.9687 244.723 51.936 244.802 51.8707 244.867C51.8147 244.923 51.74 244.951 51.6467 244.951H51.0027C50.9 244.951 50.8207 244.923 50.7647 244.867C50.7087 244.802 50.6807 244.723 50.6807 244.629V244.027C50.5594 244.195 50.396 244.363 50.1907 244.531C49.9854 244.69 49.7287 244.825 49.4207 244.937C49.1127 245.04 48.7347 245.091 48.2867 245.091ZM48.5807 244.041C48.9634 244.041 49.3134 243.962 49.6307 243.803C49.948 243.635 50.1954 243.379 50.3727 243.033C50.5594 242.688 50.6527 242.254 50.6527 241.731V241.339L49.0287 241.577C48.366 241.671 47.8667 241.829 47.5307 242.053C47.1947 242.268 47.0267 242.543 47.0267 242.879C47.0267 243.141 47.1014 243.36 47.2507 243.537C47.4094 243.705 47.6054 243.831 47.8387 243.915C48.0814 243.999 48.3287 244.041 48.5807 244.041ZM56.5013 245.091C55.9786 245.091 55.5306 245.026 55.1573 244.895C54.784 244.765 54.4806 244.606 54.2473 244.419C54.014 244.233 53.8366 244.046 53.7153 243.859C53.6033 243.673 53.5426 243.523 53.5333 243.411C53.524 243.309 53.5566 243.229 53.6313 243.173C53.706 243.117 53.7806 243.089 53.8553 243.089H54.4713C54.5273 243.089 54.5693 243.099 54.5973 243.117C54.6346 243.127 54.6813 243.164 54.7373 243.229C54.8586 243.36 54.994 243.491 55.1433 243.621C55.2926 243.752 55.4746 243.859 55.6893 243.943C55.9133 244.027 56.1886 244.069 56.5153 244.069C56.9913 244.069 57.3833 243.981 57.6913 243.803C57.9993 243.617 58.1533 243.346 58.1533 242.991C58.1533 242.758 58.088 242.571 57.9573 242.431C57.836 242.291 57.612 242.165 57.2853 242.053C56.968 241.941 56.5293 241.825 55.9693 241.703C55.4093 241.573 54.966 241.414 54.6393 241.227C54.3126 241.031 54.0793 240.803 53.9393 240.541C53.7993 240.271 53.7293 239.967 53.7293 239.631C53.7293 239.286 53.832 238.955 54.0373 238.637C54.2426 238.311 54.5413 238.045 54.9333 237.839C55.3346 237.634 55.834 237.531 56.4313 237.531C56.9166 237.531 57.332 237.592 57.6773 237.713C58.0226 237.835 58.3073 237.989 58.5313 238.175C58.7553 238.353 58.9233 238.53 59.0353 238.707C59.1473 238.885 59.208 239.034 59.2173 239.155C59.2266 239.249 59.1986 239.328 59.1333 239.393C59.068 239.449 58.9933 239.477 58.9093 239.477H58.3213C58.256 239.477 58.2 239.463 58.1533 239.435C58.116 239.407 58.0786 239.375 58.0413 239.337C57.948 239.216 57.836 239.095 57.7053 238.973C57.584 238.852 57.4206 238.754 57.2153 238.679C57.0193 238.595 56.758 238.553 56.4313 238.553C55.9646 238.553 55.6146 238.651 55.3813 238.847C55.148 239.043 55.0313 239.291 55.0313 239.589C55.0313 239.767 55.0826 239.925 55.1853 240.065C55.288 240.205 55.484 240.331 55.7733 240.443C56.0626 240.555 56.492 240.677 57.0613 240.807C57.6773 240.929 58.1626 241.092 58.5173 241.297C58.872 241.503 59.124 241.741 59.2733 242.011C59.4226 242.282 59.4973 242.595 59.4973 242.949C59.4973 243.341 59.3806 243.701 59.1473 244.027C58.9233 244.354 58.5873 244.615 58.1393 244.811C57.7006 244.998 57.1546 245.091 56.5013 245.091ZM64.016 245.091C63.0547 245.091 62.2894 244.797 61.72 244.209C61.1507 243.612 60.838 242.8 60.782 241.773C60.7727 241.652 60.768 241.498 60.768 241.311C60.768 241.115 60.7727 240.957 60.782 240.835C60.8194 240.173 60.9734 239.594 61.244 239.099C61.5147 238.595 61.8834 238.208 62.35 237.937C62.826 237.667 63.3814 237.531 64.016 237.531C64.7254 237.531 65.318 237.681 65.794 237.979C66.2794 238.278 66.648 238.703 66.9 239.253C67.152 239.804 67.278 240.448 67.278 241.185V241.423C67.278 241.526 67.2454 241.605 67.18 241.661C67.124 241.717 67.0494 241.745 66.956 241.745H62.112C62.112 241.755 62.112 241.773 62.112 241.801C62.112 241.829 62.112 241.853 62.112 241.871C62.1307 242.254 62.2147 242.613 62.364 242.949C62.5134 243.276 62.728 243.542 63.008 243.747C63.288 243.953 63.624 244.055 64.016 244.055C64.352 244.055 64.632 244.004 64.856 243.901C65.08 243.799 65.262 243.687 65.402 243.565C65.542 243.435 65.6354 243.337 65.682 243.271C65.766 243.15 65.8314 243.08 65.878 243.061C65.9247 243.033 65.9994 243.019 66.102 243.019H66.774C66.8674 243.019 66.942 243.047 66.998 243.103C67.0634 243.15 67.0914 243.22 67.082 243.313C67.0727 243.453 66.998 243.626 66.858 243.831C66.718 244.027 66.5174 244.223 66.256 244.419C65.9947 244.615 65.6774 244.779 65.304 244.909C64.9307 245.031 64.5014 245.091 64.016 245.091ZM62.112 240.779H65.948V240.737C65.948 240.317 65.8687 239.944 65.71 239.617C65.5607 239.291 65.3414 239.034 65.052 238.847C64.7627 238.651 64.4174 238.553 64.016 238.553C63.6147 238.553 63.2694 238.651 62.98 238.847C62.7 239.034 62.4854 239.291 62.336 239.617C62.1867 239.944 62.112 240.317 62.112 240.737V240.779ZM74.6742 244.951C74.5809 244.951 74.5015 244.923 74.4362 244.867C74.3802 244.802 74.3522 244.723 74.3522 244.629V236.397H71.6642C71.5709 236.397 71.4915 236.369 71.4262 236.313C71.3702 236.248 71.3422 236.169 71.3422 236.075V235.487C71.3422 235.385 71.3702 235.305 71.4262 235.249C71.4915 235.184 71.5709 235.151 71.6642 235.151H78.4122C78.5149 235.151 78.5942 235.184 78.6502 235.249C78.7155 235.305 78.7482 235.385 78.7482 235.487V236.075C78.7482 236.169 78.7155 236.248 78.6502 236.313C78.5942 236.369 78.5149 236.397 78.4122 236.397H75.7382V244.629C75.7382 244.723 75.7055 244.802 75.6402 244.867C75.5842 244.923 75.5049 244.951 75.4022 244.951H74.6742ZM80.2748 247.611C80.2002 247.611 80.1348 247.583 80.0788 247.527C80.0228 247.471 79.9948 247.406 79.9948 247.331C79.9948 247.294 79.9995 247.257 80.0088 247.219C80.0182 247.182 80.0368 247.135 80.0648 247.079L81.1428 244.517L78.4688 238.203C78.4222 238.091 78.3988 238.012 78.3988 237.965C78.3988 237.881 78.4268 237.811 78.4828 237.755C78.5388 237.699 78.6088 237.671 78.6928 237.671H79.3788C79.4722 237.671 79.5468 237.695 79.6028 237.741C79.6588 237.788 79.6962 237.844 79.7148 237.909L81.8428 243.005L84.0268 237.909C84.0548 237.844 84.0922 237.788 84.1388 237.741C84.1948 237.695 84.2742 237.671 84.3768 237.671H85.0348C85.1188 237.671 85.1888 237.699 85.2448 237.755C85.3008 237.811 85.3288 237.877 85.3288 237.951C85.3288 237.998 85.3055 238.082 85.2588 238.203L81.2828 247.373C81.2548 247.439 81.2128 247.495 81.1568 247.541C81.1102 247.588 81.0355 247.611 80.9328 247.611H80.2748ZM87.0478 247.611C86.9544 247.611 86.8751 247.579 86.8098 247.513C86.7538 247.457 86.7258 247.383 86.7258 247.289V237.993C86.7258 237.9 86.7538 237.825 86.8098 237.769C86.8751 237.704 86.9544 237.671 87.0478 237.671H87.6918C87.7851 237.671 87.8598 237.704 87.9158 237.769C87.9811 237.825 88.0138 237.9 88.0138 237.993V238.609C88.2378 238.301 88.5364 238.045 88.9098 237.839C89.2831 237.634 89.7498 237.531 90.3098 237.531C90.8324 237.531 91.2758 237.62 91.6398 237.797C92.0131 237.975 92.3164 238.217 92.5498 238.525C92.7924 238.833 92.9744 239.183 93.0958 239.575C93.2171 239.967 93.2824 240.387 93.2918 240.835C93.3011 240.985 93.3058 241.143 93.3058 241.311C93.3058 241.479 93.3011 241.638 93.2918 241.787C93.2824 242.226 93.2171 242.646 93.0958 243.047C92.9744 243.439 92.7924 243.789 92.5498 244.097C92.3164 244.396 92.0131 244.639 91.6398 244.825C91.2758 245.003 90.8324 245.091 90.3098 245.091C89.7684 245.091 89.3111 244.993 88.9378 244.797C88.5738 244.592 88.2751 244.34 88.0418 244.041V247.289C88.0418 247.383 88.0138 247.457 87.9578 247.513C87.9018 247.579 87.8224 247.611 87.7198 247.611H87.0478ZM90.0158 243.957C90.5011 243.957 90.8791 243.855 91.1498 243.649C91.4298 243.435 91.6304 243.159 91.7518 242.823C91.8731 242.478 91.9431 242.109 91.9618 241.717C91.9711 241.447 91.9711 241.176 91.9618 240.905C91.9431 240.513 91.8731 240.149 91.7518 239.813C91.6304 239.468 91.4298 239.193 91.1498 238.987C90.8791 238.773 90.5011 238.665 90.0158 238.665C89.5584 238.665 89.1851 238.773 88.8958 238.987C88.6158 239.202 88.4058 239.477 88.2658 239.813C88.1351 240.14 88.0604 240.476 88.0418 240.821C88.0324 240.971 88.0278 241.148 88.0278 241.353C88.0278 241.559 88.0324 241.741 88.0418 241.899C88.0511 242.226 88.1258 242.548 88.2658 242.865C88.4151 243.183 88.6344 243.444 88.9238 243.649C89.2131 243.855 89.5771 243.957 90.0158 243.957ZM97.9496 245.091C96.9883 245.091 96.223 244.797 95.6536 244.209C95.0843 243.612 94.7716 242.8 94.7156 241.773C94.7063 241.652 94.7016 241.498 94.7016 241.311C94.7016 241.115 94.7063 240.957 94.7156 240.835C94.753 240.173 94.907 239.594 95.1776 239.099C95.4483 238.595 95.817 238.208 96.2836 237.937C96.7596 237.667 97.315 237.531 97.9496 237.531C98.659 237.531 99.2516 237.681 99.7276 237.979C100.213 238.278 100.582 238.703 100.834 239.253C101.086 239.804 101.212 240.448 101.212 241.185V241.423C101.212 241.526 101.179 241.605 101.114 241.661C101.058 241.717 100.983 241.745 100.89 241.745H96.0456C96.0456 241.755 96.0456 241.773 96.0456 241.801C96.0456 241.829 96.0456 241.853 96.0456 241.871C96.0643 242.254 96.1483 242.613 96.2976 242.949C96.447 243.276 96.6616 243.542 96.9416 243.747C97.2216 243.953 97.5576 244.055 97.9496 244.055C98.2856 244.055 98.5656 244.004 98.7896 243.901C99.0136 243.799 99.1956 243.687 99.3356 243.565C99.4756 243.435 99.569 243.337 99.6156 243.271C99.6996 243.15 99.765 243.08 99.8116 243.061C99.8583 243.033 99.933 243.019 100.036 243.019H100.708C100.801 243.019 100.876 243.047 100.932 243.103C100.997 243.15 101.025 243.22 101.016 243.313C101.006 243.453 100.932 243.626 100.792 243.831C100.652 244.027 100.451 244.223 100.19 244.419C99.9283 244.615 99.611 244.779 99.2376 244.909C98.8643 245.031 98.435 245.091 97.9496 245.091ZM96.0456 240.779H99.8816V240.737C99.8816 240.317 99.8023 239.944 99.6436 239.617C99.4943 239.291 99.275 239.034 98.9856 238.847C98.6963 238.651 98.351 238.553 97.9496 238.553C97.5483 238.553 97.203 238.651 96.9136 238.847C96.6336 239.034 96.419 239.291 96.2696 239.617C96.1203 239.944 96.0456 240.317 96.0456 240.737V240.779ZM106.821 244.951C106.728 244.951 106.649 244.923 106.583 244.867C106.527 244.802 106.499 244.723 106.499 244.629V235.487C106.499 235.385 106.527 235.305 106.583 235.249C106.649 235.184 106.728 235.151 106.821 235.151H107.521C107.633 235.151 107.717 235.179 107.773 235.235C107.829 235.291 107.862 235.338 107.871 235.375L110.839 241.031L113.821 235.375C113.84 235.338 113.873 235.291 113.919 235.235C113.975 235.179 114.059 235.151 114.171 235.151H114.857C114.96 235.151 115.039 235.184 115.095 235.249C115.161 235.305 115.193 235.385 115.193 235.487V244.629C115.193 244.723 115.161 244.802 115.095 244.867C115.039 244.923 114.96 244.951 114.857 244.951H114.171C114.078 244.951 113.999 244.923 113.933 244.867C113.877 244.802 113.849 244.723 113.849 244.629V237.741L111.511 242.305C111.474 242.399 111.418 242.473 111.343 242.529C111.269 242.576 111.175 242.599 111.063 242.599H110.629C110.508 242.599 110.41 242.576 110.335 242.529C110.27 242.473 110.214 242.399 110.167 242.305L107.829 237.741V244.629C107.829 244.723 107.797 244.802 107.731 244.867C107.675 244.923 107.601 244.951 107.507 244.951H106.821ZM120.33 245.091C119.369 245.091 118.604 244.797 118.034 244.209C117.465 243.612 117.152 242.8 117.096 241.773C117.087 241.652 117.082 241.498 117.082 241.311C117.082 241.115 117.087 240.957 117.096 240.835C117.134 240.173 117.288 239.594 117.558 239.099C117.829 238.595 118.198 238.208 118.664 237.937C119.14 237.667 119.696 237.531 120.33 237.531C121.04 237.531 121.632 237.681 122.108 237.979C122.594 238.278 122.962 238.703 123.214 239.253C123.466 239.804 123.592 240.448 123.592 241.185V241.423C123.592 241.526 123.56 241.605 123.494 241.661C123.438 241.717 123.364 241.745 123.27 241.745H118.426C118.426 241.755 118.426 241.773 118.426 241.801C118.426 241.829 118.426 241.853 118.426 241.871C118.445 242.254 118.529 242.613 118.678 242.949C118.828 243.276 119.042 243.542 119.322 243.747C119.602 243.953 119.938 244.055 120.33 244.055C120.666 244.055 120.946 244.004 121.17 243.901C121.394 243.799 121.576 243.687 121.716 243.565C121.856 243.435 121.95 243.337 121.996 243.271C122.08 243.15 122.146 243.08 122.192 243.061C122.239 243.033 122.314 243.019 122.416 243.019H123.088C123.182 243.019 123.256 243.047 123.312 243.103C123.378 243.15 123.406 243.22 123.396 243.313C123.387 243.453 123.312 243.626 123.172 243.831C123.032 244.027 122.832 244.223 122.57 244.419C122.309 244.615 121.992 244.779 121.618 244.909C121.245 245.031 120.816 245.091 120.33 245.091ZM118.426 240.779H122.262V240.737C122.262 240.317 122.183 239.944 122.024 239.617C121.875 239.291 121.656 239.034 121.366 238.847C121.077 238.651 120.732 238.553 120.33 238.553C119.929 238.553 119.584 238.651 119.294 238.847C119.014 239.034 118.8 239.291 118.65 239.617C118.501 239.944 118.426 240.317 118.426 240.737V240.779ZM127.786 245.091C127.264 245.091 126.816 245.026 126.442 244.895C126.069 244.765 125.766 244.606 125.532 244.419C125.299 244.233 125.122 244.046 125 243.859C124.888 243.673 124.828 243.523 124.818 243.411C124.809 243.309 124.842 243.229 124.916 243.173C124.991 243.117 125.066 243.089 125.14 243.089H125.756C125.812 243.089 125.854 243.099 125.882 243.117C125.92 243.127 125.966 243.164 126.022 243.229C126.144 243.36 126.279 243.491 126.428 243.621C126.578 243.752 126.76 243.859 126.974 243.943C127.198 244.027 127.474 244.069 127.8 244.069C128.276 244.069 128.668 243.981 128.976 243.803C129.284 243.617 129.438 243.346 129.438 242.991C129.438 242.758 129.373 242.571 129.242 242.431C129.121 242.291 128.897 242.165 128.57 242.053C128.253 241.941 127.814 241.825 127.254 241.703C126.694 241.573 126.251 241.414 125.924 241.227C125.598 241.031 125.364 240.803 125.224 240.541C125.084 240.271 125.014 239.967 125.014 239.631C125.014 239.286 125.117 238.955 125.322 238.637C125.528 238.311 125.826 238.045 126.218 237.839C126.62 237.634 127.119 237.531 127.716 237.531C128.202 237.531 128.617 237.592 128.962 237.713C129.308 237.835 129.592 237.989 129.816 238.175C130.04 238.353 130.208 238.53 130.32 238.707C130.432 238.885 130.493 239.034 130.502 239.155C130.512 239.249 130.484 239.328 130.418 239.393C130.353 239.449 130.278 239.477 130.194 239.477H129.606C129.541 239.477 129.485 239.463 129.438 239.435C129.401 239.407 129.364 239.375 129.326 239.337C129.233 239.216 129.121 239.095 128.99 238.973C128.869 238.852 128.706 238.754 128.5 238.679C128.304 238.595 128.043 238.553 127.716 238.553C127.25 238.553 126.9 238.651 126.666 238.847C126.433 239.043 126.316 239.291 126.316 239.589C126.316 239.767 126.368 239.925 126.47 240.065C126.573 240.205 126.769 240.331 127.058 240.443C127.348 240.555 127.777 240.677 128.346 240.807C128.962 240.929 129.448 241.092 129.802 241.297C130.157 241.503 130.409 241.741 130.558 242.011C130.708 242.282 130.782 242.595 130.782 242.949C130.782 243.341 130.666 243.701 130.432 244.027C130.208 244.354 129.872 244.615 129.424 244.811C128.986 244.998 128.44 245.091 127.786 245.091ZM134.433 245.091C133.967 245.091 133.542 244.998 133.159 244.811C132.777 244.625 132.469 244.373 132.235 244.055C132.002 243.738 131.885 243.379 131.885 242.977C131.885 242.333 132.147 241.82 132.669 241.437C133.192 241.055 133.873 240.803 134.713 240.681L136.799 240.387V239.981C136.799 239.533 136.669 239.183 136.407 238.931C136.155 238.679 135.74 238.553 135.161 238.553C134.741 238.553 134.401 238.637 134.139 238.805C133.887 238.973 133.71 239.188 133.607 239.449C133.551 239.589 133.453 239.659 133.313 239.659H132.683C132.581 239.659 132.501 239.631 132.445 239.575C132.399 239.51 132.375 239.435 132.375 239.351C132.375 239.211 132.427 239.039 132.529 238.833C132.641 238.628 132.809 238.427 133.033 238.231C133.257 238.035 133.542 237.872 133.887 237.741C134.242 237.601 134.671 237.531 135.175 237.531C135.735 237.531 136.207 237.606 136.589 237.755C136.972 237.895 137.271 238.087 137.485 238.329C137.709 238.572 137.868 238.847 137.961 239.155C138.064 239.463 138.115 239.776 138.115 240.093V244.629C138.115 244.723 138.083 244.802 138.017 244.867C137.961 244.923 137.887 244.951 137.793 244.951H137.149C137.047 244.951 136.967 244.923 136.911 244.867C136.855 244.802 136.827 244.723 136.827 244.629V244.027C136.706 244.195 136.543 244.363 136.337 244.531C136.132 244.69 135.875 244.825 135.567 244.937C135.259 245.04 134.881 245.091 134.433 245.091ZM134.727 244.041C135.11 244.041 135.46 243.962 135.777 243.803C136.095 243.635 136.342 243.379 136.519 243.033C136.706 242.688 136.799 242.254 136.799 241.731V241.339L135.175 241.577C134.513 241.671 134.013 241.829 133.677 242.053C133.341 242.268 133.173 242.543 133.173 242.879C133.173 243.141 133.248 243.36 133.397 243.537C133.556 243.705 133.752 243.831 133.985 243.915C134.228 243.999 134.475 244.041 134.727 244.041ZM142.158 245.091C141.691 245.091 141.266 244.998 140.884 244.811C140.501 244.625 140.193 244.373 139.96 244.055C139.726 243.738 139.61 243.379 139.61 242.977C139.61 242.333 139.871 241.82 140.394 241.437C140.916 241.055 141.598 240.803 142.438 240.681L144.524 240.387V239.981C144.524 239.533 144.393 239.183 144.132 238.931C143.88 238.679 143.464 238.553 142.886 238.553C142.466 238.553 142.125 238.637 141.864 238.805C141.612 238.973 141.434 239.188 141.332 239.449C141.276 239.589 141.178 239.659 141.038 239.659H140.408C140.305 239.659 140.226 239.631 140.17 239.575C140.123 239.51 140.1 239.435 140.1 239.351C140.1 239.211 140.151 239.039 140.254 238.833C140.366 238.628 140.534 238.427 140.758 238.231C140.982 238.035 141.266 237.872 141.612 237.741C141.966 237.601 142.396 237.531 142.9 237.531C143.46 237.531 143.931 237.606 144.314 237.755C144.696 237.895 144.995 238.087 145.21 238.329C145.434 238.572 145.592 238.847 145.686 239.155C145.788 239.463 145.84 239.776 145.84 240.093V244.629C145.84 244.723 145.807 244.802 145.742 244.867C145.686 244.923 145.611 244.951 145.518 244.951H144.874C144.771 244.951 144.692 244.923 144.636 244.867C144.58 244.802 144.552 244.723 144.552 244.629V244.027C144.43 244.195 144.267 244.363 144.062 244.531C143.856 244.69 143.6 244.825 143.292 244.937C142.984 245.04 142.606 245.091 142.158 245.091ZM142.452 244.041C142.834 244.041 143.184 243.962 143.502 243.803C143.819 243.635 144.066 243.379 144.244 243.033C144.43 242.688 144.524 242.254 144.524 241.731V241.339L142.9 241.577C142.237 241.671 141.738 241.829 141.402 242.053C141.066 242.268 140.898 242.543 140.898 242.879C140.898 243.141 140.972 243.36 141.122 243.537C141.28 243.705 141.476 243.831 141.71 243.915C141.952 243.999 142.2 244.041 142.452 244.041ZM150.834 248.031C150.2 248.031 149.677 247.947 149.266 247.779C148.865 247.611 148.548 247.406 148.314 247.163C148.09 246.93 147.927 246.692 147.824 246.449C147.731 246.216 147.68 246.029 147.67 245.889C147.661 245.796 147.689 245.717 147.754 245.651C147.829 245.586 147.908 245.553 147.992 245.553H148.664C148.748 245.553 148.818 245.572 148.874 245.609C148.93 245.647 148.977 245.726 149.014 245.847C149.07 245.987 149.154 246.141 149.266 246.309C149.378 246.487 149.551 246.636 149.784 246.757C150.018 246.888 150.344 246.953 150.764 246.953C151.203 246.953 151.572 246.893 151.87 246.771C152.169 246.659 152.393 246.454 152.542 246.155C152.701 245.866 152.78 245.465 152.78 244.951V243.999C152.556 244.289 152.262 244.531 151.898 244.727C151.534 244.914 151.077 245.007 150.526 245.007C150.004 245.007 149.556 244.919 149.182 244.741C148.809 244.555 148.501 244.307 148.258 243.999C148.025 243.682 147.848 243.323 147.726 242.921C147.614 242.52 147.549 242.1 147.53 241.661C147.521 241.4 147.521 241.143 147.53 240.891C147.549 240.453 147.614 240.033 147.726 239.631C147.848 239.23 148.025 238.871 148.258 238.553C148.501 238.236 148.809 237.989 149.182 237.811C149.556 237.625 150.004 237.531 150.526 237.531C151.086 237.531 151.548 237.639 151.912 237.853C152.286 238.059 152.589 238.311 152.822 238.609V238.007C152.822 237.914 152.85 237.835 152.906 237.769C152.972 237.704 153.051 237.671 153.144 237.671H153.788C153.882 237.671 153.961 237.704 154.026 237.769C154.092 237.835 154.124 237.914 154.124 238.007V244.797C154.124 245.423 154.017 245.978 153.802 246.463C153.597 246.949 153.252 247.331 152.766 247.611C152.29 247.891 151.646 248.031 150.834 248.031ZM150.806 243.887C151.273 243.887 151.646 243.78 151.926 243.565C152.216 243.351 152.426 243.08 152.556 242.753C152.696 242.427 152.771 242.095 152.78 241.759C152.79 241.629 152.794 241.47 152.794 241.283C152.794 241.087 152.79 240.924 152.78 240.793C152.771 240.457 152.696 240.126 152.556 239.799C152.426 239.473 152.216 239.202 151.926 238.987C151.646 238.773 151.273 238.665 150.806 238.665C150.34 238.665 149.966 238.773 149.686 238.987C149.406 239.193 149.206 239.468 149.084 239.813C148.963 240.149 148.893 240.513 148.874 240.905C148.865 241.148 148.865 241.395 148.874 241.647C148.893 242.039 148.963 242.408 149.084 242.753C149.206 243.089 149.406 243.365 149.686 243.579C149.966 243.785 150.34 243.887 150.806 243.887ZM159.104 245.091C158.143 245.091 157.377 244.797 156.808 244.209C156.239 243.612 155.926 242.8 155.87 241.773C155.861 241.652 155.856 241.498 155.856 241.311C155.856 241.115 155.861 240.957 155.87 240.835C155.907 240.173 156.061 239.594 156.332 239.099C156.603 238.595 156.971 238.208 157.438 237.937C157.914 237.667 158.469 237.531 159.104 237.531C159.813 237.531 160.406 237.681 160.882 237.979C161.367 238.278 161.736 238.703 161.988 239.253C162.24 239.804 162.366 240.448 162.366 241.185V241.423C162.366 241.526 162.333 241.605 162.268 241.661C162.212 241.717 162.137 241.745 162.044 241.745H157.2C157.2 241.755 157.2 241.773 157.2 241.801C157.2 241.829 157.2 241.853 157.2 241.871C157.219 242.254 157.303 242.613 157.452 242.949C157.601 243.276 157.816 243.542 158.096 243.747C158.376 243.953 158.712 244.055 159.104 244.055C159.44 244.055 159.72 244.004 159.944 243.901C160.168 243.799 160.35 243.687 160.49 243.565C160.63 243.435 160.723 243.337 160.77 243.271C160.854 243.15 160.919 243.08 160.966 243.061C161.013 243.033 161.087 243.019 161.19 243.019H161.862C161.955 243.019 162.03 243.047 162.086 243.103C162.151 243.15 162.179 243.22 162.17 243.313C162.161 243.453 162.086 243.626 161.946 243.831C161.806 244.027 161.605 244.223 161.344 244.419C161.083 244.615 160.765 244.779 160.392 244.909C160.019 245.031 159.589 245.091 159.104 245.091ZM157.2 240.779H161.036V240.737C161.036 240.317 160.957 239.944 160.798 239.617C160.649 239.291 160.429 239.034 160.14 238.847C159.851 238.651 159.505 238.553 159.104 238.553C158.703 238.553 158.357 238.651 158.068 238.847C157.788 239.034 157.573 239.291 157.424 239.617C157.275 239.944 157.2 240.317 157.2 240.737V240.779Z" fill="#29292B"/>
<rect opacity="0.5" x="15" y="170.951" width="170" height="15" rx="7.5" fill="#E3E2D5"/>
<rect opacity="0.5" x="115" y="130.951" width="140" height="15" rx="7.5" fill="#E3E2D5"/>
<rect opacity="0.5" x="15" y="90.9514" width="140" height="15" rx="7.5" fill="#E3E2D5"/>
<rect opacity="0.5" x="15" y="70.9514" width="195" height="15" rx="7.5" fill="#E3E2D5"/>
<g clip-path="url(#clip1_934_886)">
<path d="M249.002 21.7666C247.169 19.9153 244.985 18.4477 242.579 17.4493C240.172 16.4509 237.591 15.9418 234.985 15.9516C224.067 15.9516 215.17 24.8466 215.16 35.7666C215.16 39.2641 216.075 42.6666 217.803 45.6791L215 55.9516L225.51 53.1966C228.416 54.7821 231.674 55.6117 234.985 55.6091H234.995C245.915 55.6091 254.81 46.7141 254.82 35.7841C254.822 33.1792 254.309 30.5996 253.31 28.1939C252.311 25.7882 250.849 23.6038 249.002 21.7666ZM234.985 52.2541C232.033 52.2517 229.136 51.4575 226.595 49.9541L225.995 49.5941L219.76 51.2291L221.425 45.1466L221.035 44.5191C219.385 41.8949 218.512 38.8566 218.517 35.7566C218.517 26.6916 225.91 19.2966 234.995 19.2966C237.159 19.2927 239.303 19.7172 241.303 20.5458C243.302 21.3743 245.118 22.5905 246.645 24.1241C248.177 25.6519 249.392 27.4679 250.219 29.4674C251.046 31.4668 251.47 33.6102 251.465 35.7741C251.455 44.8716 244.062 52.2541 234.985 52.2541ZM244.023 39.9191C243.53 39.6716 241.097 38.4741 240.64 38.3041C240.185 38.1416 239.852 38.0566 239.528 38.5516C239.195 39.0441 238.245 40.1666 237.96 40.4891C237.675 40.8216 237.38 40.8591 236.885 40.6141C236.392 40.3641 234.795 39.8441 232.905 38.1516C231.43 36.8391 230.443 35.2141 230.148 34.7216C229.863 34.2266 230.12 33.9616 230.367 33.7141C230.585 33.4941 230.86 33.1341 231.108 32.8491C231.358 32.5641 231.44 32.3541 231.602 32.0241C231.765 31.6891 231.688 31.4041 231.565 31.1566C231.44 30.9091 230.452 28.4666 230.035 27.4816C229.635 26.5091 229.227 26.6441 228.922 26.6316C228.637 26.6141 228.305 26.6141 227.972 26.6141C227.721 26.6204 227.474 26.6786 227.247 26.7848C227.019 26.8911 226.816 27.0432 226.65 27.2316C226.195 27.7266 224.923 28.9241 224.923 31.3666C224.923 33.8091 226.697 36.1566 226.947 36.4891C227.192 36.8216 230.432 41.8191 235.405 43.9691C236.58 44.4816 237.505 44.7841 238.228 45.0141C239.415 45.3941 240.487 45.3366 241.342 45.2141C242.292 45.0691 244.27 44.0141 244.688 42.8566C245.097 41.6966 245.098 40.7066 244.972 40.4991C244.85 40.2891 244.517 40.1666 244.023 39.9191Z" fill="white"/>
</g>
<defs>
<clipPath id="clip0_934_886">
<rect width="16" height="16" fill="white" transform="translate(232 232.951)"/>
</clipPath>
<clipPath id="clip1_934_886">
<rect width="40" height="40" fill="white" transform="translate(215 15.9514)"/>
</clipPath>
</defs>
</svg>
