<svg width="611" height="665" viewBox="0 0 611 665" fill="none" xmlns="http://www.w3.org/2000/svg">
<path d="M581.22 596.313C597.416 601.813 606.099 619.408 600.614 635.612C595.129 651.815 577.552 660.493 561.356 654.993C545.159 649.493 536.476 631.898 541.961 615.694C547.446 599.49 565.023 590.813 581.22 596.313Z" fill="black"/>
<path d="M581.22 596.313C597.416 601.813 606.099 619.408 600.614 635.612C595.129 651.815 577.552 660.493 561.356 654.993C545.159 649.493 536.476 631.898 541.961 615.694C547.446 599.49 565.023 590.813 581.22 596.313Z" stroke="black" stroke-width="5.9066"/>
<path d="M584.905 627.599C582.419 626.762 580.259 625.16 578.732 623.019L575.296 633.166C574.659 635.046 573.467 636.687 571.879 637.87C570.292 639.053 568.384 639.721 566.411 639.786C564.438 639.85 562.495 639.308 560.84 638.231C559.186 637.153 557.9 635.593 557.153 633.758C556.406 631.924 556.236 629.902 556.663 627.964C557.091 626.026 558.097 624.264 559.547 622.913C560.996 621.562 562.82 620.687 564.774 620.405C566.728 620.123 568.72 620.447 570.483 621.335L568.755 626.438C567.999 625.883 567.088 625.583 566.15 625.579C565.213 625.577 564.298 625.872 563.535 626.423C562.774 626.973 562.203 627.751 561.906 628.646C561.609 629.541 561.6 630.506 561.882 631.404C562.163 632.302 562.72 633.087 563.472 633.647C564.225 634.207 565.134 634.513 566.071 634.521C567.009 634.53 567.926 634.24 568.691 633.694C569.457 633.148 570.031 632.373 570.334 631.48L577.048 611.645L582.013 613.331C581.866 613.752 581.759 614.185 581.692 614.626C581.55 615.611 581.61 616.616 581.868 617.576C582.126 618.537 582.576 619.434 583.191 620.213C584.06 621.34 585.239 622.184 586.584 622.64L584.905 627.599Z" fill="black"/>
<path d="M578.203 592.959C594.4 598.459 603.083 616.053 597.598 632.257C592.113 648.461 574.536 657.138 558.34 651.638C542.143 646.138 533.46 628.544 538.945 612.34C544.43 596.136 562.007 587.459 578.203 592.959Z" fill="white"/>
<path d="M578.203 592.959C594.4 598.459 603.083 616.053 597.598 632.257C592.113 648.461 574.536 657.138 558.34 651.638C542.143 646.138 533.46 628.544 538.945 612.34C544.43 596.136 562.007 587.459 578.203 592.959Z" stroke="black" stroke-width="5.9066"/>
<path d="M581.889 624.245C579.403 623.408 577.243 621.805 575.716 619.664L572.28 629.812C571.643 631.691 570.451 633.333 568.863 634.515C567.276 635.699 565.368 636.367 563.395 636.431C561.422 636.495 559.479 635.953 557.824 634.876C556.169 633.799 554.883 632.239 554.137 630.404C553.39 628.569 553.22 626.548 553.647 624.61C554.075 622.672 555.081 620.909 556.531 619.558C557.98 618.208 559.803 617.332 561.758 617.051C563.712 616.768 565.704 617.093 567.467 617.98L565.739 623.084C564.983 622.528 564.072 622.228 563.134 622.225C562.197 622.222 561.282 622.517 560.519 623.068C559.757 623.618 559.187 624.397 558.89 625.291C558.593 626.186 558.584 627.152 558.866 628.05C559.147 628.948 559.703 629.733 560.456 630.292C561.209 630.852 562.118 631.158 563.055 631.167C563.993 631.175 564.91 630.886 565.675 630.339C566.441 629.793 567.015 629.019 567.318 628.126L574.032 608.291L578.996 609.977C578.85 610.398 578.743 610.831 578.675 611.271C578.534 612.257 578.594 613.261 578.852 614.222C579.109 615.183 579.56 616.08 580.175 616.859C581.044 617.986 582.223 618.829 583.568 619.285L581.889 624.245Z" fill="black"/>
<path d="M23.8647 532.047C35.3741 527.706 48.2149 533.521 52.5453 545.036C56.8757 556.551 51.0559 569.405 39.5464 573.746C28.0369 578.087 15.1961 572.272 10.8658 560.757C6.53539 549.242 12.3552 536.389 23.8647 532.047Z" fill="black"/>
<path d="M23.8647 532.047C35.3741 527.706 48.2149 533.521 52.5453 545.036C56.8757 556.551 51.0559 569.405 39.5464 573.746C28.0369 578.087 15.1961 572.272 10.8658 560.757C6.53539 549.242 12.3552 536.389 23.8647 532.047Z" stroke="black" stroke-width="4.24765"/>
<path d="M26.9867 540.788C33.6231 538.285 41.027 541.638 43.5239 548.278C46.0209 554.917 42.6653 562.329 36.0289 564.832C29.3925 567.335 21.9884 563.982 19.4915 557.342C16.9946 550.703 20.3502 543.291 26.9867 540.788Z" fill="black"/>
<path d="M43.8376 548.243C41.3249 541.561 33.8467 538.201 27.1297 540.734C20.4124 543.268 17.0063 550.734 19.5191 557.416C21.7933 563.463 28.0949 566.822 34.2595 565.499L31.0865 557.062L27.9977 558.227L26.6772 554.716L29.766 553.551L28.7757 550.917C27.6385 547.894 28.8109 545.502 31.5565 544.466C32.9292 543.949 34.3939 543.675 34.3939 543.675L35.5126 546.649L33.9927 547.223C32.4728 547.796 32.3311 548.908 32.6979 549.884L33.5414 552.127L36.9244 550.851L37.7055 554.565L34.8619 555.638L38.035 564.075C43.5392 560.996 46.1119 554.29 43.8376 548.243Z" fill="black"/>
<path d="M20.8486 528.861C32.358 524.519 45.1988 530.335 49.5292 541.849C53.8596 553.364 48.0398 566.218 36.5303 570.559C25.0208 574.901 12.18 569.085 7.84965 557.571C3.51927 546.056 9.3391 533.202 20.8486 528.861Z" fill="white"/>
<path d="M20.8486 528.861C32.358 524.519 45.1988 530.335 49.5292 541.849C53.8596 553.364 48.0398 566.218 36.5303 570.559C25.0208 574.901 12.18 569.085 7.84965 557.571C3.51927 546.056 9.3391 533.202 20.8486 528.861Z" stroke="black" stroke-width="4.24765"/>
<path d="M23.9706 537.602C30.607 535.098 38.0109 538.451 40.5078 545.091C43.0047 551.73 39.6492 559.142 33.0128 561.645C26.3763 564.149 18.9723 560.795 16.4754 554.156C13.9785 547.516 17.3341 540.105 23.9706 537.602Z" fill="white"/>
<path d="M40.8215 545.056C38.3088 538.375 30.8306 535.014 24.1136 537.548C17.3963 540.081 13.9902 547.548 16.503 554.229C18.7772 560.276 25.0788 563.635 31.2434 562.313L28.0704 553.875L24.9816 555.04L23.661 551.529L26.7498 550.364L25.7595 547.731C24.6224 544.707 25.7948 542.315 28.5404 541.28C29.913 540.762 31.3778 540.488 31.3778 540.488L32.4965 543.463L30.9766 544.036C29.4567 544.609 29.3149 545.721 29.6818 546.697L30.5253 548.94L33.9083 547.664L34.6894 551.379L31.8458 552.451L35.0189 560.889C40.5231 557.81 43.0958 551.104 40.8215 545.056Z" fill="black"/>
<path d="M76.9699 16.2319C102.724 9.3053 129.2 24.5777 136.105 50.3436C143.01 76.1095 127.73 102.612 101.976 109.539C76.2215 116.466 49.7459 101.193 42.8407 75.4272C35.9356 49.6613 51.2158 23.1586 76.9699 16.2319Z" fill="black"/>
<path d="M76.9699 16.2319C102.724 9.3053 129.2 24.5777 136.105 50.3436C143.01 76.1095 127.73 102.612 101.976 109.539C76.2215 116.466 49.7459 101.193 42.8407 75.4272C35.9356 49.6613 51.2158 23.1586 76.9699 16.2319Z" stroke="black" stroke-width="9.20976"/>
<path d="M85.7429 50.6394C78.5996 52.5606 74.4159 60.0004 76.3728 67.3025C78.33 74.6054 85.6709 78.9464 92.8141 77.0252C99.9574 75.104 104.141 67.6634 102.184 60.3606C100.227 53.0585 92.8862 48.7182 85.7429 50.6394ZM91.5772 72.4096C86.9606 73.6512 82.1562 70.8187 80.8884 66.088C79.6208 61.3581 82.3524 56.4996 86.9799 55.255C91.6073 54.0105 96.4006 56.8452 97.6682 61.5751C98.936 66.3057 96.193 71.1682 91.5772 72.4096ZM102.042 45.6773C102.5 47.388 101.518 49.1166 99.856 49.5637C98.1827 50.0138 96.4767 48.9955 96.0214 47.2965C95.5658 45.5967 96.5445 43.8572 98.2069 43.4101C99.8693 42.963 101.586 43.9776 102.042 45.6773ZM111.425 46.5013C110.13 42.4307 108.231 39.0277 104.471 36.8139C100.722 34.5977 96.8977 34.6167 92.8101 35.4944C88.5898 36.371 76.1336 39.7211 72.0425 41.0799C68.0743 42.3564 64.7544 44.2579 62.6065 48.0608C60.4591 51.8628 60.5276 55.759 61.4302 59.9352C62.3333 64.2471 65.7459 76.9812 67.12 81.1665C68.4158 85.2369 70.3154 88.6406 74.0748 90.8539C77.8352 93.0678 81.6477 93.0511 85.7352 92.1734C89.9556 91.2968 102.412 87.9466 106.503 86.5879C110.483 85.3083 113.803 83.4067 115.936 79.5953C118.072 75.7963 118.015 71.8972 117.112 67.721C116.21 63.4088 112.8 50.6864 111.425 46.5013ZM112.965 73.7228C112.692 76.2089 111.461 78.3989 109.491 79.9007C106.538 82.1354 98.5925 83.9397 94.9311 84.9245C91.2697 85.9092 83.4758 88.3255 79.8173 87.8815C77.3757 87.5787 75.2151 86.3008 73.7214 84.2776C71.4994 81.244 69.649 73.1239 68.6459 69.3807C67.6427 65.6375 65.1935 57.6676 65.5916 53.9418C65.8644 51.456 67.0963 49.2657 69.0659 47.7632C72.0192 45.5293 79.9645 43.7249 83.626 42.7402C87.2874 41.7555 95.081 39.3384 98.7395 39.7824C101.181 40.086 103.342 41.3638 104.836 43.387C107.057 46.4208 108.908 54.5392 109.911 58.2824C110.914 62.0256 113.374 69.9942 112.965 73.7228Z" fill="black"/>
<path d="M75.6549 12.542C101.409 5.61536 127.885 20.8877 134.79 46.6537C141.695 72.4196 126.415 98.9223 100.661 105.849C74.9066 112.776 48.4309 97.5032 41.5258 71.7373C34.6207 45.9713 49.9009 19.4686 75.6549 12.542Z" fill="white"/>
<path d="M75.655 12.542C101.409 5.61536 127.885 20.8877 134.79 46.6537C141.695 72.4196 126.415 98.9223 100.661 105.849C74.9066 112.776 48.4309 97.5032 41.5258 71.7373C34.6207 45.9713 49.9009 19.4686 75.655 12.542Z" stroke="black" stroke-width="9.20976"/>
<path d="M84.428 46.9495C77.2847 48.8707 73.101 56.3105 75.0579 63.6126C77.015 70.9154 84.3559 75.2565 91.4992 73.3353C98.6425 71.4141 102.826 63.9735 100.869 56.6706C98.9119 49.3686 91.5712 45.0283 84.428 46.9495ZM90.2622 68.7197C85.6457 69.9613 80.8413 67.1288 79.5735 62.3981C78.3059 57.6682 81.0374 52.8097 85.6649 51.5651C90.2924 50.3205 95.0857 53.1552 96.3533 57.8851C97.6211 62.6158 94.8781 67.4782 90.2622 68.7197ZM100.727 41.9874C101.185 43.698 100.204 45.4267 98.5411 45.8738C96.8678 46.3238 95.1617 45.3055 94.7064 43.6066C94.2509 41.9068 95.2295 40.1673 96.892 39.7202C98.5544 39.2731 100.271 40.2877 100.727 41.9874ZM110.11 42.8114C108.815 38.7407 106.916 35.3378 103.156 33.1239C99.4071 30.9077 95.5828 30.9268 91.4952 31.8044C87.2749 32.6811 74.8186 36.0312 70.7275 37.3899C66.7594 38.6664 63.4395 40.568 61.2916 44.3709C59.1442 48.1728 59.2127 52.069 60.1152 56.2452C61.0183 60.5572 64.431 73.2913 65.8051 77.4765C67.1009 81.547 69.0005 84.9507 72.7599 87.164C76.5202 89.3778 80.3327 89.3611 84.4203 88.4835C88.6406 87.6068 101.097 84.2567 105.188 82.898C109.168 81.6184 112.488 79.7168 114.621 75.9054C116.757 72.1064 116.7 68.2072 115.797 64.031C114.895 59.7189 111.485 46.9964 110.11 42.8114ZM111.651 70.0329C111.377 72.5189 110.146 74.709 108.176 76.2107C105.223 78.4455 97.2776 80.2498 93.6161 81.2345C89.9547 82.2193 82.1609 84.6355 78.5024 84.1915C76.0607 83.8888 73.9002 82.6109 72.4064 80.5877C70.1845 77.5541 68.3341 69.4339 67.3309 65.6908C66.3278 61.9476 63.8786 53.9776 64.2766 50.2519C64.5495 47.7661 65.7814 45.5758 67.7509 44.0733C70.7043 41.8393 78.6496 40.035 82.311 39.0503C85.9724 38.0655 93.766 35.6485 97.4246 36.0925C99.8664 36.396 102.027 37.6739 103.521 39.6971C105.742 42.7309 107.593 50.8493 108.596 54.5925C109.599 58.3356 112.059 66.3042 111.651 70.0329Z" fill="black"/>
</svg>
