<svg width="20" height="20" viewBox="0 0 24 24" fill="none" xmlns="http://www.w3.org/2000/svg">
<path d="M23 12C22.9999 9.89796 22.3975 7.83996 21.2642 6.06962C20.1308 4.29929 18.514 2.89075 16.605 2.01077C14.696 1.13078 12.5749 0.816184 10.4927 1.10423C8.41045 1.39227 6.45437 2.27089 4.85598 3.63607C3.25759 5.00126 2.08383 6.79584 1.47365 8.80736C0.863463 10.8189 0.842409 12.9631 1.41298 14.9863C1.98355 17.0094 3.12185 18.8267 4.69312 20.223C6.26439 21.6193 8.20285 22.5361 10.279 22.865C11.4174 23.0437 12.5766 23.0437 13.715 22.865C16.3072 22.4658 18.6701 21.1496 20.374 19.1558C22.0779 17.1619 23.0097 14.6227 23 12ZM10.859 21.935V15.035C10.859 14.9024 10.8063 14.7752 10.7126 14.6814C10.6188 14.5877 10.4916 14.535 10.359 14.535H8.193V12.5H10.359C10.4916 12.5 10.6188 12.4473 10.7126 12.3536C10.8063 12.2598 10.859 12.1326 10.859 12V9.686C10.859 7.408 12.123 6.101 14.318 6.101C14.9395 6.10911 15.56 6.15486 16.176 6.238V7.89H15.352H15.333C14.8152 7.83865 14.2978 7.99114 13.8905 8.31508C13.4833 8.63902 13.2184 9.10891 13.152 9.625C13.1335 9.75751 13.1298 9.89167 13.141 10.025V12C13.141 12.1326 13.1937 12.2598 13.2874 12.3536C13.3812 12.4473 13.5084 12.5 13.641 12.5H15.97L15.658 14.535H13.641C13.5084 14.535 13.3812 14.5877 13.2874 14.6814C13.1937 14.7752 13.141 14.9024 13.141 15.035V21.935C12.3828 22.021 11.6172 22.021 10.859 21.935ZM14.141 21.769V15.535H16.087C16.2076 15.5364 16.3246 15.4941 16.4165 15.416C16.5084 15.3379 16.5689 15.2292 16.587 15.11L17.052 12.075C17.0628 12.0038 17.0581 11.9312 17.0382 11.862C17.0184 11.7928 16.9838 11.7288 16.9369 11.6742C16.89 11.6196 16.8319 11.5758 16.7665 11.5457C16.7011 11.5156 16.63 11.5 16.558 11.5H14.141V10.016C14.1427 9.7144 14.2519 9.42328 14.449 9.195C14.5713 9.08733 14.714 9.0053 14.8686 8.95377C15.0232 8.90224 15.1865 8.88226 15.349 8.895H16.673C16.8056 8.895 16.9328 8.84232 17.0266 8.74855C17.1203 8.65478 17.173 8.52761 17.173 8.395V5.806C17.1731 5.68718 17.1309 5.57221 17.0539 5.48169C16.977 5.39117 16.8703 5.33101 16.753 5.312C15.9499 5.18215 15.1384 5.1113 14.325 5.1C11.571 5.1 9.859 6.857 9.859 9.685V11.5H7.693C7.56039 11.5 7.43321 11.5527 7.33945 11.6464C7.24568 11.7402 7.193 11.8674 7.193 12V15.035C7.193 15.1676 7.24568 15.2948 7.33945 15.3886C7.43321 15.4823 7.56039 15.535 7.693 15.535H9.859V21.769C7.45045 21.2411 5.32184 19.8419 3.88201 17.8403C2.44218 15.8386 1.79264 13.3755 2.05814 10.9241C2.32364 8.47273 3.48546 6.20585 5.32046 4.55885C7.15547 2.91186 9.53427 2.00088 12 2.00088C14.4657 2.00088 16.8445 2.91186 18.6795 4.55885C20.5145 6.20585 21.6764 8.47273 21.9419 10.9241C22.2074 13.3755 21.5578 15.8386 20.118 17.8403C18.6782 19.8419 16.5496 21.2411 14.141 21.769Z" fill="black"/>
</svg>
