<svg width="20" height="20" viewBox="0 0 24 24" fill="none" xmlns="http://www.w3.org/2000/svg">
<path d="M8.67939 21.9618L8.71467 21.9736L8.75131 21.98C9.11061 22.0429 9.44923 21.9779 9.70027 21.7555C9.93944 21.5437 10.025 21.2535 10.025 21.0125C10.025 20.9273 10.0234 20.774 10.0215 20.5775C10.0206 20.4929 10.0197 20.4002 10.0187 20.3015C10.0156 19.9709 10.0125 19.5664 10.0125 19.15V18.5496L9.42198 18.6583C8.23666 18.8765 7.57533 18.7164 7.20861 18.5108C6.84764 18.3083 6.69645 18.0194 6.62111 17.8075L6.61848 17.8001L6.61562 17.7928C6.59871 17.7496 6.57651 17.6986 6.54982 17.642C7.03447 18.2053 7.61795 18.4491 8.18234 18.501C8.8489 18.5623 9.44448 18.3535 9.77015 18.2048L10.0212 18.0902L10.058 17.8167C10.1318 17.2688 10.3454 16.9487 10.5281 16.7898L11.3872 16.0427L10.2558 15.9156C9.17316 15.794 8.15738 15.5302 7.41303 14.9022C6.69255 14.2944 6.15 13.2784 6.15 11.475C6.15 10.5161 6.48824 9.73514 7.04467 9.12416L7.25556 8.8926L7.13924 8.6018C7.07337 8.43713 6.80482 7.6821 7.13254 6.62395C7.18766 6.63005 7.253 6.64014 7.32886 6.65626C7.70082 6.73532 8.3295 6.96043 9.24578 7.57727L9.43768 7.70646L9.66037 7.64383C10.414 7.43186 11.2183 7.325 12.025 7.325C12.8317 7.325 13.636 7.43186 14.3896 7.64383L14.6136 7.70683L14.8061 7.57601C15.7219 6.95349 16.3494 6.72929 16.7195 6.65192C16.7958 6.63597 16.8613 6.62622 16.9164 6.62049C17.2458 7.68046 16.9767 8.43695 16.9108 8.6018L16.7944 8.8926L17.0053 9.12416C17.5623 9.73578 17.9 10.5044 17.9 11.475C17.9 13.2843 17.3546 14.2997 16.6318 14.906C15.8845 15.5328 14.8656 15.7938 13.7817 15.9156L12.6437 16.0435L13.511 16.7912C13.7388 16.9876 14.0125 17.4346 14.0125 18.2625C14.0125 18.9297 14.0094 19.5317 14.0063 20.0092C14.0052 20.1657 14.0042 20.3093 14.0033 20.4377C14.0014 20.6995 14 20.8978 14 21.0125C14 21.2512 14.084 21.5436 14.3218 21.7576C14.5754 21.9859 14.92 22.0509 15.2856 21.9778L15.317 21.9715L15.3473 21.9613C17.4319 21.2581 19.2435 19.9187 20.5266 18.1317C21.8098 16.3446 22.5 14.2 22.5 12C22.5 6.19886 17.8011 1.5 12 1.5C6.19886 1.5 1.5 6.19886 1.5 12C1.5 16.647 4.50673 20.571 8.67939 21.9618ZM4.95275 16.4159C4.9527 16.4159 4.95341 16.4157 4.95497 16.4152L4.95275 16.4159Z" stroke="black"/>
</svg>
