<svg width="20" height="20" viewBox="0 0 24 24" fill="none" xmlns="http://www.w3.org/2000/svg">
<path d="M21.938 7.71C21.9207 6.89214 21.7665 6.08296 21.482 5.316C21.2449 4.67704 20.8693 4.09852 20.382 3.622C19.9039 3.13388 19.3232 2.75815 18.682 2.522C17.9154 2.23737 17.1065 2.08323 16.289 2.066C15.185 2.012 14.817 2 12 2C9.183 2 8.815 2.012 7.71 2.062C6.89214 2.07933 6.08296 2.23346 5.316 2.518C4.67704 2.75509 4.09852 3.13075 3.622 3.618C3.13388 4.09614 2.75815 4.67682 2.522 5.318C2.23611 6.08404 2.08063 6.89257 2.062 7.71C2.012 8.814 2 9.182 2 12C2 14.818 2.012 15.186 2.062 16.29C2.07933 17.1079 2.23346 17.917 2.518 18.684C2.75509 19.323 3.13075 19.9015 3.618 20.378C4.09614 20.8661 4.67682 21.2419 5.318 21.478C6.08459 21.7626 6.89346 21.9168 7.711 21.934C8.811 21.984 9.183 21.996 12.001 21.996C14.819 21.996 15.187 21.984 16.291 21.934C17.1089 21.9167 17.918 21.7625 18.685 21.478C19.3208 21.2318 19.8983 20.8556 20.3804 20.3734C20.8626 19.8913 21.2388 19.3138 21.485 18.678C21.7696 17.9114 21.9238 17.1025 21.941 16.285C21.991 15.185 22.003 14.813 22.003 11.995C22.003 9.177 21.988 8.814 21.938 7.71ZM20.938 16.244C20.9255 16.9531 20.7944 17.6552 20.55 18.321C20.3541 18.8271 20.0548 19.2868 19.6712 19.6706C19.2875 20.0544 18.828 20.3539 18.322 20.55C17.6558 20.7943 16.9535 20.9254 16.244 20.938C15.159 20.988 14.8 21 12 21C9.2 21 8.841 20.988 7.756 20.938C7.04686 20.9255 6.34481 20.7944 5.679 20.55C5.1688 20.3619 4.70742 20.0615 4.329 19.671C3.93874 19.2928 3.63835 18.8318 3.45 18.322C3.20571 17.6558 3.07457 16.9535 3.062 16.244C3.012 15.159 3 14.8 3 12C3 9.2 3.012 8.841 3.062 7.756C3.07445 7.04686 3.2056 6.34481 3.45 5.679C3.6381 5.1688 3.93851 4.70742 4.329 4.329C4.70722 3.93874 5.16822 3.63835 5.678 3.45C6.34419 3.20571 7.04654 3.07457 7.756 3.062C8.842 3.012 9.205 3 12 3C14.795 3 15.158 3.012 16.244 3.062C16.9531 3.07445 17.6552 3.2056 18.321 3.45C18.8312 3.6381 19.2926 3.93851 19.671 4.329C20.0613 4.70722 20.3616 5.16822 20.55 5.678C20.7943 6.34419 20.9254 7.04654 20.938 7.756C20.988 8.841 21 9.2 21 12C21 14.8 20.988 15.159 20.938 16.244Z" fill="black"/>
<path d="M17.581 5.467C17.3924 5.4668 17.208 5.52255 17.0512 5.62719C16.8943 5.73183 16.772 5.88066 16.6997 6.05484C16.6275 6.22902 16.6085 6.42072 16.6453 6.60568C16.682 6.79063 16.7728 6.96053 16.9061 7.09387C17.0395 7.22721 17.2094 7.318 17.3943 7.35474C17.5793 7.39148 17.771 7.37252 17.9452 7.30026C18.1193 7.22801 18.2682 7.10571 18.3728 6.94883C18.4774 6.79196 18.5332 6.60757 18.533 6.419C18.5325 6.16668 18.432 5.92484 18.2536 5.74642C18.0752 5.568 17.8333 5.46753 17.581 5.467Z" fill="black"/>
<path d="M12 7.073C11.0255 7.073 10.0729 7.36196 9.26271 7.90335C8.45246 8.44474 7.82096 9.21423 7.44805 10.1145C7.07513 11.0148 6.97756 12.0055 7.16767 12.9612C7.35778 13.917 7.82703 14.7949 8.51608 15.4839C9.20514 16.173 10.083 16.6422 11.0388 16.8323C11.9945 17.0224 12.9852 16.9249 13.8855 16.552C14.7858 16.179 15.5553 15.5475 16.0967 14.7373C16.638 13.9271 16.927 12.9745 16.927 12C16.9257 10.6937 16.4062 9.44125 15.4825 8.51755C14.5587 7.59384 13.3063 7.07432 12 7.073ZM12 15.927C11.2233 15.927 10.4641 15.6967 9.81828 15.2652C9.17248 14.8337 8.66915 14.2204 8.37193 13.5028C8.0747 12.7852 7.99693 11.9956 8.14846 11.2339C8.29998 10.4721 8.67399 9.77239 9.22319 9.22319C9.77239 8.67399 10.4721 8.29998 11.2339 8.14846C11.9956 7.99693 12.7852 8.0747 13.5028 8.37193C14.2204 8.66915 14.8337 9.17248 15.2652 9.81828C15.6967 10.4641 15.927 11.2233 15.927 12C15.9257 13.0411 15.5115 14.0392 14.7753 14.7753C14.0392 15.5115 13.0411 15.9257 12 15.927Z" fill="black"/>
</svg>
