<svg width="29" height="29" viewBox="0 0 29 29" fill="none" xmlns="http://www.w3.org/2000/svg">
<path d="M17.5 11.5H17.51M7 7H17C19.7614 7 22 9.23858 22 12V22C22 24.7614 19.7614 27 17 27H7C4.23858 27 2 24.7614 2 22V12C2 9.23858 4.23858 7 7 7ZM16 16.37C16.1234 17.2022 15.9813 18.0522 15.5938 18.799C15.2063 19.5458 14.5931 20.1514 13.8416 20.5297C13.0901 20.9079 12.2384 21.0396 11.4078 20.9059C10.5771 20.7723 9.80976 20.3801 9.21484 19.7852C8.61992 19.1902 8.22773 18.4229 8.09407 17.5922C7.9604 16.7616 8.09207 15.9099 8.47033 15.1584C8.84859 14.4069 9.45419 13.7937 10.201 13.4062C10.9478 13.0187 11.7978 12.8766 12.63 13C13.4789 13.1259 14.2649 13.5215 14.8717 14.1283C15.4785 14.7352 15.8741 15.5211 16 16.37Z" stroke="#333333" stroke-linecap="round" stroke-linejoin="round"/>
<circle cx="21.5" cy="7.5" r="7.5" fill="white"/>
<path d="M18.5 7H25.5M22 3.5V10.5" stroke="black" stroke-width="0.7" stroke-linecap="round" stroke-linejoin="round"/>
</svg>
