<svg width="20" height="20" viewBox="0 0 24 24" fill="none" xmlns="http://www.w3.org/2000/svg">
<path d="M4.425 1.671C4.05078 1.64538 3.67529 1.69693 3.32182 1.82244C2.96835 1.94795 2.64444 2.14475 2.37018 2.40064C2.09592 2.65652 1.87716 2.96603 1.72747 3.30996C1.57778 3.65389 1.50036 4.02491 1.5 4.4C1.49689 4.77118 1.57007 5.13904 1.715 5.48077C1.85993 5.82249 2.07351 6.13081 2.34251 6.38658C2.61151 6.64236 2.93019 6.84015 3.27878 6.96769C3.62737 7.09523 3.99845 7.14979 4.369 7.128H4.4C4.77271 7.15352 5.1467 7.10238 5.49888 6.97775C5.85107 6.85311 6.17397 6.65762 6.44766 6.40334C6.72135 6.14905 6.94003 5.84138 7.09019 5.4993C7.24035 5.15722 7.31881 4.788 7.32073 4.41441C7.32264 4.04083 7.24798 3.67082 7.10133 3.32722C6.95469 2.98362 6.73919 2.67371 6.46812 2.41664C6.19705 2.15956 5.87617 1.96077 5.52528 1.83252C5.1744 1.70428 4.80096 1.64931 4.428 1.671H4.425ZM4.4 6.128H4.369C4.12833 6.14617 3.88651 6.11396 3.65898 6.03342C3.43146 5.95288 3.22323 5.82579 3.04759 5.66024C2.87195 5.4947 2.73276 5.29435 2.6389 5.07199C2.54505 4.84963 2.49859 4.61014 2.5025 4.36881C2.50641 4.12748 2.5606 3.88962 2.66161 3.67042C2.76262 3.45121 2.90822 3.25548 3.08913 3.09571C3.27004 2.93594 3.48228 2.81566 3.71229 2.74253C3.94231 2.6694 4.18504 2.64504 4.425 2.671C4.66653 2.64884 4.91002 2.67752 5.13979 2.75517C5.36957 2.83282 5.58053 2.95773 5.7591 3.12186C5.93768 3.28599 6.0799 3.4857 6.17661 3.70812C6.27332 3.93055 6.32238 4.17076 6.32062 4.4133C6.31887 4.65583 6.26634 4.89531 6.16642 5.11632C6.06651 5.33732 5.92141 5.53495 5.74049 5.69648C5.55956 5.85801 5.34681 5.97986 5.11593 6.05418C4.88506 6.1285 4.64118 6.15365 4.4 6.128Z" fill="black"/>
<path d="M6.541 8.431H2.253C2.12039 8.431 1.99322 8.48368 1.89945 8.57745C1.80568 8.67122 1.753 8.79839 1.753 8.931V21.831C1.753 21.9636 1.80568 22.0908 1.89945 22.1846C1.99322 22.2783 2.12039 22.331 2.253 22.331H6.541C6.67361 22.331 6.80078 22.2783 6.89455 22.1846C6.98832 22.0908 7.041 21.9636 7.041 21.831V8.931C7.041 8.79839 6.98832 8.67122 6.89455 8.57745C6.80078 8.48368 6.67361 8.431 6.541 8.431ZM6.041 21.331H2.753V9.431H6.041V21.331Z" fill="black"/>
<path d="M17.064 8.128C15.8236 8.078 14.6139 8.52174 13.7 9.362V8.931C13.7 8.79839 13.6473 8.67122 13.5536 8.57745C13.4598 8.48368 13.3326 8.431 13.2 8.431H8.914C8.84636 8.43093 8.7794 8.44458 8.71719 8.47114C8.65498 8.49769 8.5988 8.53659 8.55206 8.58548C8.50532 8.63438 8.46898 8.69224 8.44525 8.75559C8.42152 8.81893 8.41089 8.88643 8.414 8.954C8.467 10.137 8.414 21.71 8.414 21.827C8.414 21.9596 8.46668 22.0868 8.56045 22.1806C8.65421 22.2743 8.78139 22.327 8.914 22.327H13.2C13.3326 22.327 13.4598 22.2743 13.5536 22.1806C13.6473 22.0868 13.7 21.9596 13.7 21.827V14.627C13.6877 14.3369 13.7215 14.0466 13.8 13.767C13.9261 13.4051 14.1603 13.0907 14.471 12.8664C14.7817 12.6421 15.1538 12.5187 15.537 12.513C15.95 12.513 17.208 12.513 17.208 14.93V21.83C17.208 21.9626 17.2607 22.0898 17.3544 22.1836C17.4482 22.2773 17.5754 22.33 17.708 22.33H22C22.1326 22.33 22.2598 22.2773 22.3536 22.1836C22.4473 22.0898 22.5 21.9626 22.5 21.83V14.43C22.5 10.485 20.467 8.128 17.064 8.128ZM21.5 21.328H18.213V14.928C18.213 11.955 16.54 11.511 15.542 11.511C14.9585 11.5112 14.3894 11.6918 13.9125 12.028C13.4356 12.3642 13.0743 12.8395 12.878 13.389C12.7397 13.7857 12.6796 14.2054 12.701 14.625V21.325H9.416C9.425 19.267 9.456 11.671 9.425 9.425H12.7V10.753C12.6998 10.861 12.7347 10.9661 12.7992 11.0527C12.8638 11.1392 12.9547 11.2026 13.0582 11.2332C13.1618 11.2638 13.2725 11.2601 13.3738 11.2225C13.475 11.185 13.5614 11.1157 13.62 11.025C13.9634 10.4221 14.4666 9.92562 15.0741 9.59037C15.6816 9.25513 16.3698 9.09409 17.063 9.125C19.882 9.125 21.499 11.059 21.499 14.43L21.5 21.328Z" fill="black"/>
</svg>
