<svg width="30" height="30" viewBox="0 0 30 30" fill="none" xmlns="http://www.w3.org/2000/svg">
<circle cx="15" cy="15" r="15" fill="white"/>
<g clip-path="url(#clip0_272_211)">
<path d="M17.0006 10.3333L19.6673 13M21.1166 11.5413C21.4691 11.1889 21.6671 10.711 21.6672 10.2126C21.6673 9.71415 21.4693 9.23613 21.1169 8.88366C20.7646 8.53118 20.2866 8.33313 19.7882 8.33307C19.2898 8.33301 18.8117 8.53094 18.4593 8.88332L9.56194 17.7827C9.40715 17.937 9.29268 18.127 9.22861 18.336L8.34794 21.2373C8.33071 21.295 8.32941 21.3562 8.34417 21.4146C8.35894 21.4729 8.38922 21.5261 8.4318 21.5687C8.47439 21.6112 8.52769 21.6414 8.58605 21.656C8.6444 21.6707 8.70565 21.6693 8.76327 21.652L11.6653 20.772C11.8741 20.7085 12.0641 20.5947 12.2186 20.4407L21.1166 11.5413Z" stroke="black" stroke-linecap="round" stroke-linejoin="round"/>
</g>
<defs>
<clipPath id="clip0_272_211">
<rect width="16" height="16" fill="white" transform="translate(7 7)"/>
</clipPath>
</defs>
</svg>
