<svg width="695" height="919" viewBox="0 0 695 919" fill="none" xmlns="http://www.w3.org/2000/svg">
<rect width="695" height="919" fill="#26D367"/>
<rect y="94" width="695" height="825" fill="#26D367"/>
<path d="M243.816 209.734H430.419C451.305 209.734 468.235 226.684 468.235 247.59V729.877C468.235 750.784 451.305 767.733 430.419 767.733H243.816C222.931 767.733 206 750.784 206 729.877V247.59C206 226.684 222.931 209.734 243.816 209.734Z" fill="black"/>
<mask id="mask0_146_220" style="mask-type:alpha" maskUnits="userSpaceOnUse" x="216" y="199" width="263" height="558">
<path d="M254.54 200.5H441.143C461.198 200.5 477.459 216.776 477.459 236.856V719.143C477.459 739.222 461.198 755.499 441.143 755.499H254.54C234.484 755.499 218.224 739.222 218.224 719.143V236.856C218.224 216.776 234.484 200.5 254.54 200.5Z" fill="white" stroke="black" stroke-width="3"/>
</mask>
<g mask="url(#mask0_146_220)">
<path d="M254.816 200.5H441.419C461.475 200.5 477.735 216.776 477.735 236.856V719.143C477.735 739.222 461.475 755.499 441.419 755.499H254.816C234.761 755.499 218.5 739.222 218.5 719.143V236.856C218.5 216.776 234.761 200.5 254.816 200.5Z" fill="white" stroke="black" stroke-width="3"/>
<ellipse cx="348" cy="315.881" rx="179" ry="141" fill="#4E3F6A"/>
</g>
<path d="M297.584 416.417H297.592M288.834 412.667H297.167C299.468 412.667 301.334 414.532 301.334 416.833V425.167C301.334 427.468 299.468 429.333 297.167 429.333H288.834C286.532 429.333 284.667 427.468 284.667 425.167V416.833C284.667 414.532 286.532 412.667 288.834 412.667ZM296.334 420.475C296.437 421.169 296.318 421.877 295.995 422.499C295.672 423.122 295.161 423.626 294.535 423.941C293.909 424.257 293.199 424.366 292.507 424.255C291.815 424.144 291.175 423.817 290.679 423.321C290.184 422.825 289.857 422.186 289.745 421.494C289.634 420.801 289.744 420.092 290.059 419.465C290.374 418.839 290.879 418.328 291.501 418.005C292.123 417.682 292.832 417.564 293.525 417.667C294.233 417.772 294.888 418.101 295.393 418.607C295.899 419.113 296.229 419.768 296.334 420.475Z" stroke="white" stroke-linecap="round" stroke-linejoin="round"/>
<path d="M331 412.667H328.5C327.395 412.667 326.335 413.106 325.553 413.887C324.772 414.668 324.333 415.728 324.333 416.833V419.333H321.833V422.667H324.333V429.333H327.666V422.667H330.166L331 419.333H327.666V416.833C327.666 416.612 327.754 416.4 327.91 416.244C328.067 416.088 328.279 416 328.5 416H331V412.667Z" stroke="white" stroke-linecap="round" stroke-linejoin="round"/>
<path d="M351.083 425.167C350.501 422.419 350.501 419.581 351.083 416.833C351.16 416.554 351.307 416.3 351.512 416.096C351.716 415.891 351.971 415.743 352.25 415.667C356.719 414.926 361.28 414.926 365.75 415.667C366.029 415.743 366.283 415.891 366.488 416.096C366.692 416.3 366.84 416.554 366.916 416.833C367.499 419.581 367.499 422.419 366.916 425.167C366.84 425.446 366.692 425.7 366.488 425.904C366.283 426.109 366.029 426.257 365.75 426.333C361.28 427.074 356.719 427.074 352.25 426.333C351.971 426.257 351.716 426.109 351.512 425.904C351.307 425.7 351.16 425.446 351.083 425.167Z" stroke="white" stroke-linecap="round" stroke-linejoin="round"/>
<path d="M357.333 423.5L361.5 421L357.333 418.5V423.5Z" stroke="white" stroke-linecap="round" stroke-linejoin="round"/>
<path d="M400.334 414.333C400.334 414.333 399.75 416.083 398.667 417.167C400 425.5 390.834 431.583 383.667 426.833C385.5 426.917 387.334 426.333 388.667 425.167C384.5 423.917 382.417 419 384.5 415.167C386.334 417.333 389.167 418.583 392 418.5C391.25 415 395.334 413 397.834 415.333C398.75 415.333 400.334 414.333 400.334 414.333Z" stroke="white" stroke-linecap="round" stroke-linejoin="round"/>
<path d="M265.651 383C265.549 383 265.469 382.972 265.413 382.916C265.357 382.851 265.329 382.771 265.329 382.678V373.536C265.329 373.433 265.357 373.354 265.413 373.298C265.469 373.233 265.549 373.2 265.651 373.2H268.829C269.791 373.2 270.565 373.345 271.153 373.634C271.741 373.923 272.171 374.353 272.441 374.922C272.712 375.482 272.852 376.173 272.861 376.994C272.871 377.414 272.875 377.783 272.875 378.1C272.875 378.417 272.871 378.781 272.861 379.192C272.843 380.051 272.698 380.765 272.427 381.334C272.166 381.894 271.746 382.314 271.167 382.594C270.598 382.865 269.842 383 268.899 383H265.651ZM266.701 381.81H268.829C269.473 381.81 269.987 381.721 270.369 381.544C270.752 381.367 271.027 381.082 271.195 380.69C271.373 380.298 271.466 379.78 271.475 379.136C271.494 378.856 271.503 378.613 271.503 378.408C271.503 378.193 271.503 377.983 271.503 377.778C271.503 377.563 271.494 377.321 271.475 377.05C271.457 376.145 271.242 375.477 270.831 375.048C270.421 374.609 269.73 374.39 268.759 374.39H266.701V381.81ZM275.122 383C275.028 383 274.949 382.972 274.884 382.916C274.828 382.851 274.8 382.771 274.8 382.678V376.042C274.8 375.949 274.828 375.874 274.884 375.818C274.949 375.753 275.028 375.72 275.122 375.72H275.794C275.887 375.72 275.962 375.753 276.018 375.818C276.074 375.874 276.102 375.949 276.102 376.042V382.678C276.102 382.771 276.074 382.851 276.018 382.916C275.962 382.972 275.887 383 275.794 383H275.122ZM275.01 374.362C274.916 374.362 274.837 374.334 274.772 374.278C274.716 374.213 274.688 374.133 274.688 374.04V373.284C274.688 373.191 274.716 373.116 274.772 373.06C274.837 372.995 274.916 372.962 275.01 372.962H275.892C275.985 372.962 276.06 372.995 276.116 373.06C276.181 373.116 276.214 373.191 276.214 373.284V374.04C276.214 374.133 276.181 374.213 276.116 374.278C276.06 374.334 275.985 374.362 275.892 374.362H275.01ZM281.172 386.08C280.538 386.08 280.015 385.996 279.604 385.828C279.203 385.66 278.886 385.455 278.652 385.212C278.428 384.979 278.265 384.741 278.162 384.498C278.069 384.265 278.018 384.078 278.008 383.938C277.999 383.845 278.027 383.765 278.092 383.7C278.167 383.635 278.246 383.602 278.33 383.602H279.002C279.086 383.602 279.156 383.621 279.212 383.658C279.268 383.695 279.315 383.775 279.352 383.896C279.408 384.036 279.492 384.19 279.604 384.358C279.716 384.535 279.889 384.685 280.122 384.806C280.356 384.937 280.682 385.002 281.102 385.002C281.541 385.002 281.91 384.941 282.208 384.82C282.507 384.708 282.731 384.503 282.88 384.204C283.039 383.915 283.118 383.513 283.118 383V382.048C282.894 382.337 282.6 382.58 282.236 382.776C281.872 382.963 281.415 383.056 280.864 383.056C280.342 383.056 279.894 382.967 279.52 382.79C279.147 382.603 278.839 382.356 278.596 382.048C278.363 381.731 278.186 381.371 278.064 380.97C277.952 380.569 277.887 380.149 277.868 379.71C277.859 379.449 277.859 379.192 277.868 378.94C277.887 378.501 277.952 378.081 278.064 377.68C278.186 377.279 278.363 376.919 278.596 376.602C278.839 376.285 279.147 376.037 279.52 375.86C279.894 375.673 280.342 375.58 280.864 375.58C281.424 375.58 281.886 375.687 282.25 375.902C282.624 376.107 282.927 376.359 283.16 376.658V376.056C283.16 375.963 283.188 375.883 283.244 375.818C283.31 375.753 283.389 375.72 283.482 375.72H284.126C284.22 375.72 284.299 375.753 284.364 375.818C284.43 375.883 284.462 375.963 284.462 376.056V382.846C284.462 383.471 284.355 384.027 284.14 384.512C283.935 384.997 283.59 385.38 283.104 385.66C282.628 385.94 281.984 386.08 281.172 386.08ZM281.144 381.936C281.611 381.936 281.984 381.829 282.264 381.614C282.554 381.399 282.764 381.129 282.894 380.802C283.034 380.475 283.109 380.144 283.118 379.808C283.128 379.677 283.132 379.519 283.132 379.332C283.132 379.136 283.128 378.973 283.118 378.842C283.109 378.506 283.034 378.175 282.894 377.848C282.764 377.521 282.554 377.251 282.264 377.036C281.984 376.821 281.611 376.714 281.144 376.714C280.678 376.714 280.304 376.821 280.024 377.036C279.744 377.241 279.544 377.517 279.422 377.862C279.301 378.198 279.231 378.562 279.212 378.954C279.203 379.197 279.203 379.444 279.212 379.696C279.231 380.088 279.301 380.457 279.422 380.802C279.544 381.138 279.744 381.413 280.024 381.628C280.304 381.833 280.678 381.936 281.144 381.936ZM286.866 383C286.772 383 286.693 382.972 286.628 382.916C286.572 382.851 286.544 382.771 286.544 382.678V376.042C286.544 375.949 286.572 375.874 286.628 375.818C286.693 375.753 286.772 375.72 286.866 375.72H287.538C287.631 375.72 287.706 375.753 287.762 375.818C287.818 375.874 287.846 375.949 287.846 376.042V382.678C287.846 382.771 287.818 382.851 287.762 382.916C287.706 382.972 287.631 383 287.538 383H286.866ZM286.754 374.362C286.66 374.362 286.581 374.334 286.516 374.278C286.46 374.213 286.432 374.133 286.432 374.04V373.284C286.432 373.191 286.46 373.116 286.516 373.06C286.581 372.995 286.66 372.962 286.754 372.962H287.636C287.729 372.962 287.804 372.995 287.86 373.06C287.925 373.116 287.958 373.191 287.958 373.284V374.04C287.958 374.133 287.925 374.213 287.86 374.278C287.804 374.334 287.729 374.362 287.636 374.362H286.754ZM292.776 383C292.254 383 291.829 382.902 291.502 382.706C291.176 382.501 290.938 382.216 290.788 381.852C290.639 381.479 290.564 381.04 290.564 380.536V376.84H289.472C289.379 376.84 289.3 376.812 289.234 376.756C289.178 376.691 289.15 376.611 289.15 376.518V376.042C289.15 375.949 289.178 375.874 289.234 375.818C289.3 375.753 289.379 375.72 289.472 375.72H290.564V373.382C290.564 373.289 290.592 373.214 290.648 373.158C290.714 373.093 290.793 373.06 290.886 373.06H291.544C291.638 373.06 291.712 373.093 291.768 373.158C291.834 373.214 291.866 373.289 291.866 373.382V375.72H293.602C293.696 375.72 293.77 375.753 293.826 375.818C293.892 375.874 293.924 375.949 293.924 376.042V376.518C293.924 376.611 293.892 376.691 293.826 376.756C293.77 376.812 293.696 376.84 293.602 376.84H291.866V380.438C291.866 380.877 291.941 381.222 292.09 381.474C292.24 381.726 292.506 381.852 292.888 381.852H293.742C293.836 381.852 293.91 381.885 293.966 381.95C294.032 382.006 294.064 382.081 294.064 382.174V382.678C294.064 382.771 294.032 382.851 293.966 382.916C293.91 382.972 293.836 383 293.742 383H292.776ZM297.433 383.14C296.967 383.14 296.542 383.047 296.159 382.86C295.777 382.673 295.469 382.421 295.235 382.104C295.002 381.787 294.885 381.427 294.885 381.026C294.885 380.382 295.147 379.869 295.669 379.486C296.192 379.103 296.873 378.851 297.713 378.73L299.799 378.436V378.03C299.799 377.582 299.669 377.232 299.407 376.98C299.155 376.728 298.74 376.602 298.161 376.602C297.741 376.602 297.401 376.686 297.139 376.854C296.887 377.022 296.71 377.237 296.607 377.498C296.551 377.638 296.453 377.708 296.313 377.708H295.683C295.581 377.708 295.501 377.68 295.445 377.624C295.399 377.559 295.375 377.484 295.375 377.4C295.375 377.26 295.427 377.087 295.529 376.882C295.641 376.677 295.809 376.476 296.033 376.28C296.257 376.084 296.542 375.921 296.887 375.79C297.242 375.65 297.671 375.58 298.175 375.58C298.735 375.58 299.207 375.655 299.589 375.804C299.972 375.944 300.271 376.135 300.485 376.378C300.709 376.621 300.868 376.896 300.961 377.204C301.064 377.512 301.115 377.825 301.115 378.142V382.678C301.115 382.771 301.083 382.851 301.017 382.916C300.961 382.972 300.887 383 300.793 383H300.149C300.047 383 299.967 382.972 299.911 382.916C299.855 382.851 299.827 382.771 299.827 382.678V382.076C299.706 382.244 299.543 382.412 299.337 382.58C299.132 382.739 298.875 382.874 298.567 382.986C298.259 383.089 297.881 383.14 297.433 383.14ZM297.727 382.09C298.11 382.09 298.46 382.011 298.777 381.852C299.095 381.684 299.342 381.427 299.519 381.082C299.706 380.737 299.799 380.303 299.799 379.78V379.388L298.175 379.626C297.513 379.719 297.013 379.878 296.677 380.102C296.341 380.317 296.173 380.592 296.173 380.928C296.173 381.189 296.248 381.409 296.397 381.586C296.556 381.754 296.752 381.88 296.985 381.964C297.228 382.048 297.475 382.09 297.727 382.09ZM303.464 383C303.37 383 303.291 382.972 303.226 382.916C303.17 382.851 303.142 382.771 303.142 382.678V373.382C303.142 373.289 303.17 373.214 303.226 373.158C303.291 373.093 303.37 373.06 303.464 373.06H304.122C304.224 373.06 304.304 373.093 304.36 373.158C304.416 373.214 304.444 373.289 304.444 373.382V382.678C304.444 382.771 304.416 382.851 304.36 382.916C304.304 382.972 304.224 383 304.122 383H303.464ZM310.468 383C310.374 383 310.295 382.972 310.23 382.916C310.174 382.851 310.146 382.771 310.146 382.678V373.536C310.146 373.433 310.174 373.354 310.23 373.298C310.295 373.233 310.374 373.2 310.468 373.2H311.168C311.28 373.2 311.364 373.228 311.42 373.284C311.476 373.34 311.508 373.387 311.518 373.424L314.486 379.08L317.468 373.424C317.486 373.387 317.519 373.34 317.566 373.284C317.622 373.228 317.706 373.2 317.818 373.2H318.504C318.606 373.2 318.686 373.233 318.742 373.298C318.807 373.354 318.84 373.433 318.84 373.536V382.678C318.84 382.771 318.807 382.851 318.742 382.916C318.686 382.972 318.606 383 318.504 383H317.818C317.724 383 317.645 382.972 317.58 382.916C317.524 382.851 317.496 382.771 317.496 382.678V375.79L315.158 380.354C315.12 380.447 315.064 380.522 314.99 380.578C314.915 380.625 314.822 380.648 314.71 380.648H314.276C314.154 380.648 314.056 380.625 313.982 380.578C313.916 380.522 313.86 380.447 313.814 380.354L311.476 375.79V382.678C311.476 382.771 311.443 382.851 311.378 382.916C311.322 382.972 311.247 383 311.154 383H310.468ZM323.109 383.14C322.642 383.14 322.218 383.047 321.835 382.86C321.452 382.673 321.144 382.421 320.911 382.104C320.678 381.787 320.561 381.427 320.561 381.026C320.561 380.382 320.822 379.869 321.345 379.486C321.868 379.103 322.549 378.851 323.389 378.73L325.475 378.436V378.03C325.475 377.582 325.344 377.232 325.083 376.98C324.831 376.728 324.416 376.602 323.837 376.602C323.417 376.602 323.076 376.686 322.815 376.854C322.563 377.022 322.386 377.237 322.283 377.498C322.227 377.638 322.129 377.708 321.989 377.708H321.359C321.256 377.708 321.177 377.68 321.121 377.624C321.074 377.559 321.051 377.484 321.051 377.4C321.051 377.26 321.102 377.087 321.205 376.882C321.317 376.677 321.485 376.476 321.709 376.28C321.933 376.084 322.218 375.921 322.563 375.79C322.918 375.65 323.347 375.58 323.851 375.58C324.411 375.58 324.882 375.655 325.265 375.804C325.648 375.944 325.946 376.135 326.161 376.378C326.385 376.621 326.544 376.896 326.637 377.204C326.74 377.512 326.791 377.825 326.791 378.142V382.678C326.791 382.771 326.758 382.851 326.693 382.916C326.637 382.972 326.562 383 326.469 383H325.825C325.722 383 325.643 382.972 325.587 382.916C325.531 382.851 325.503 382.771 325.503 382.678V382.076C325.382 382.244 325.218 382.412 325.013 382.58C324.808 382.739 324.551 382.874 324.243 382.986C323.935 383.089 323.557 383.14 323.109 383.14ZM323.403 382.09C323.786 382.09 324.136 382.011 324.453 381.852C324.77 381.684 325.018 381.427 325.195 381.082C325.382 380.737 325.475 380.303 325.475 379.78V379.388L323.851 379.626C323.188 379.719 322.689 379.878 322.353 380.102C322.017 380.317 321.849 380.592 321.849 380.928C321.849 381.189 321.924 381.409 322.073 381.586C322.232 381.754 322.428 381.88 322.661 381.964C322.904 382.048 323.151 382.09 323.403 382.09ZM329.126 383C329.032 383 328.953 382.972 328.888 382.916C328.832 382.851 328.804 382.771 328.804 382.678V376.056C328.804 375.963 328.832 375.883 328.888 375.818C328.953 375.753 329.032 375.72 329.126 375.72H329.77C329.863 375.72 329.942 375.753 330.008 375.818C330.073 375.883 330.106 375.963 330.106 376.056V376.672C330.292 376.355 330.549 376.117 330.876 375.958C331.202 375.799 331.594 375.72 332.052 375.72H332.612C332.705 375.72 332.78 375.753 332.836 375.818C332.892 375.874 332.92 375.949 332.92 376.042V376.616C332.92 376.709 332.892 376.784 332.836 376.84C332.78 376.896 332.705 376.924 332.612 376.924H331.772C331.268 376.924 330.871 377.073 330.582 377.372C330.292 377.661 330.148 378.058 330.148 378.562V382.678C330.148 382.771 330.115 382.851 330.05 382.916C329.984 382.972 329.905 383 329.812 383H329.126ZM334.458 383C334.365 383 334.285 382.972 334.22 382.916C334.164 382.851 334.136 382.771 334.136 382.678V373.382C334.136 373.289 334.164 373.214 334.22 373.158C334.285 373.093 334.365 373.06 334.458 373.06H335.116C335.209 373.06 335.284 373.093 335.34 373.158C335.405 373.214 335.438 373.289 335.438 373.382V378.254L338.196 375.958C338.308 375.865 338.392 375.804 338.448 375.776C338.513 375.739 338.616 375.72 338.756 375.72H339.498C339.582 375.72 339.652 375.748 339.708 375.804C339.764 375.86 339.792 375.93 339.792 376.014C339.792 376.051 339.778 376.093 339.75 376.14C339.731 376.187 339.689 376.233 339.624 376.28L336.39 378.968L339.974 382.454C340.086 382.547 340.142 382.631 340.142 382.706C340.142 382.79 340.114 382.86 340.058 382.916C340.002 382.972 339.932 383 339.848 383H339.12C338.98 383 338.877 382.986 338.812 382.958C338.747 382.921 338.663 382.855 338.56 382.762L335.438 379.78V382.678C335.438 382.771 335.405 382.851 335.34 382.916C335.284 382.972 335.209 383 335.116 383H334.458ZM343.897 383.14C342.936 383.14 342.17 382.846 341.601 382.258C341.032 381.661 340.719 380.849 340.663 379.822C340.654 379.701 340.649 379.547 340.649 379.36C340.649 379.164 340.654 379.005 340.663 378.884C340.7 378.221 340.854 377.643 341.125 377.148C341.396 376.644 341.764 376.257 342.231 375.986C342.707 375.715 343.262 375.58 343.897 375.58C344.606 375.58 345.199 375.729 345.675 376.028C346.16 376.327 346.529 376.751 346.781 377.302C347.033 377.853 347.159 378.497 347.159 379.234V379.472C347.159 379.575 347.126 379.654 347.061 379.71C347.005 379.766 346.93 379.794 346.837 379.794H341.993C341.993 379.803 341.993 379.822 341.993 379.85C341.993 379.878 341.993 379.901 341.993 379.92C342.012 380.303 342.096 380.662 342.245 380.998C342.394 381.325 342.609 381.591 342.889 381.796C343.169 382.001 343.505 382.104 343.897 382.104C344.233 382.104 344.513 382.053 344.737 381.95C344.961 381.847 345.143 381.735 345.283 381.614C345.423 381.483 345.516 381.385 345.563 381.32C345.647 381.199 345.712 381.129 345.759 381.11C345.806 381.082 345.88 381.068 345.983 381.068H346.655C346.748 381.068 346.823 381.096 346.879 381.152C346.944 381.199 346.972 381.269 346.963 381.362C346.954 381.502 346.879 381.675 346.739 381.88C346.599 382.076 346.398 382.272 346.137 382.468C345.876 382.664 345.558 382.827 345.185 382.958C344.812 383.079 344.382 383.14 343.897 383.14ZM341.993 378.828H345.829V378.786C345.829 378.366 345.75 377.993 345.591 377.666C345.442 377.339 345.222 377.083 344.933 376.896C344.644 376.7 344.298 376.602 343.897 376.602C343.496 376.602 343.15 376.7 342.861 376.896C342.581 377.083 342.366 377.339 342.217 377.666C342.068 377.993 341.993 378.366 341.993 378.786V378.828ZM351.634 383C351.111 383 350.687 382.902 350.36 382.706C350.033 382.501 349.795 382.216 349.646 381.852C349.497 381.479 349.422 381.04 349.422 380.536V376.84H348.33C348.237 376.84 348.157 376.812 348.092 376.756C348.036 376.691 348.008 376.611 348.008 376.518V376.042C348.008 375.949 348.036 375.874 348.092 375.818C348.157 375.753 348.237 375.72 348.33 375.72H349.422V373.382C349.422 373.289 349.45 373.214 349.506 373.158C349.571 373.093 349.651 373.06 349.744 373.06H350.402C350.495 373.06 350.57 373.093 350.626 373.158C350.691 373.214 350.724 373.289 350.724 373.382V375.72H352.46C352.553 375.72 352.628 375.753 352.684 375.818C352.749 375.874 352.782 375.949 352.782 376.042V376.518C352.782 376.611 352.749 376.691 352.684 376.756C352.628 376.812 352.553 376.84 352.46 376.84H350.724V380.438C350.724 380.877 350.799 381.222 350.948 381.474C351.097 381.726 351.363 381.852 351.746 381.852H352.6C352.693 381.852 352.768 381.885 352.824 381.95C352.889 382.006 352.922 382.081 352.922 382.174V382.678C352.922 382.771 352.889 382.851 352.824 382.916C352.768 382.972 352.693 383 352.6 383H351.634ZM354.583 383C354.489 383 354.41 382.972 354.345 382.916C354.289 382.851 354.261 382.771 354.261 382.678V376.042C354.261 375.949 354.289 375.874 354.345 375.818C354.41 375.753 354.489 375.72 354.583 375.72H355.255C355.348 375.72 355.423 375.753 355.479 375.818C355.535 375.874 355.563 375.949 355.563 376.042V382.678C355.563 382.771 355.535 382.851 355.479 382.916C355.423 382.972 355.348 383 355.255 383H354.583ZM354.471 374.362C354.377 374.362 354.298 374.334 354.233 374.278C354.177 374.213 354.149 374.133 354.149 374.04V373.284C354.149 373.191 354.177 373.116 354.233 373.06C354.298 372.995 354.377 372.962 354.471 372.962H355.353C355.446 372.962 355.521 372.995 355.577 373.06C355.642 373.116 355.675 373.191 355.675 373.284V374.04C355.675 374.133 355.642 374.213 355.577 374.278C355.521 374.334 355.446 374.362 355.353 374.362H354.471ZM357.973 383C357.88 383 357.801 382.972 357.735 382.916C357.679 382.851 357.651 382.771 357.651 382.678V376.042C357.651 375.949 357.679 375.874 357.735 375.818C357.801 375.753 357.88 375.72 357.973 375.72H358.631C358.725 375.72 358.799 375.753 358.855 375.818C358.921 375.874 358.953 375.949 358.953 376.042V376.658C359.196 376.341 359.499 376.084 359.863 375.888C360.237 375.683 360.713 375.58 361.291 375.58C361.898 375.58 362.411 375.715 362.831 375.986C363.261 376.247 363.583 376.616 363.797 377.092C364.012 377.559 364.119 378.105 364.119 378.73V382.678C364.119 382.771 364.091 382.851 364.035 382.916C363.979 382.972 363.905 383 363.811 383H363.111C363.018 383 362.939 382.972 362.873 382.916C362.817 382.851 362.789 382.771 362.789 382.678V378.8C362.789 378.147 362.631 377.638 362.313 377.274C361.996 376.901 361.529 376.714 360.913 376.714C360.335 376.714 359.868 376.901 359.513 377.274C359.168 377.638 358.995 378.147 358.995 378.8V382.678C358.995 382.771 358.963 382.851 358.897 382.916C358.841 382.972 358.767 383 358.673 383H357.973ZM369.123 386.08C368.489 386.08 367.966 385.996 367.555 385.828C367.154 385.66 366.837 385.455 366.603 385.212C366.379 384.979 366.216 384.741 366.113 384.498C366.02 384.265 365.969 384.078 365.959 383.938C365.95 383.845 365.978 383.765 366.043 383.7C366.118 383.635 366.197 383.602 366.281 383.602H366.953C367.037 383.602 367.107 383.621 367.163 383.658C367.219 383.695 367.266 383.775 367.303 383.896C367.359 384.036 367.443 384.19 367.555 384.358C367.667 384.535 367.84 384.685 368.073 384.806C368.307 384.937 368.633 385.002 369.053 385.002C369.492 385.002 369.861 384.941 370.159 384.82C370.458 384.708 370.682 384.503 370.831 384.204C370.99 383.915 371.069 383.513 371.069 383V382.048C370.845 382.337 370.551 382.58 370.187 382.776C369.823 382.963 369.366 383.056 368.815 383.056C368.293 383.056 367.845 382.967 367.471 382.79C367.098 382.603 366.79 382.356 366.547 382.048C366.314 381.731 366.137 381.371 366.015 380.97C365.903 380.569 365.838 380.149 365.819 379.71C365.81 379.449 365.81 379.192 365.819 378.94C365.838 378.501 365.903 378.081 366.015 377.68C366.137 377.279 366.314 376.919 366.547 376.602C366.79 376.285 367.098 376.037 367.471 375.86C367.845 375.673 368.293 375.58 368.815 375.58C369.375 375.58 369.837 375.687 370.201 375.902C370.575 376.107 370.878 376.359 371.111 376.658V376.056C371.111 375.963 371.139 375.883 371.195 375.818C371.261 375.753 371.34 375.72 371.433 375.72H372.077C372.171 375.72 372.25 375.753 372.315 375.818C372.381 375.883 372.413 375.963 372.413 376.056V382.846C372.413 383.471 372.306 384.027 372.091 384.512C371.886 384.997 371.541 385.38 371.055 385.66C370.579 385.94 369.935 386.08 369.123 386.08ZM369.095 381.936C369.562 381.936 369.935 381.829 370.215 381.614C370.505 381.399 370.715 381.129 370.845 380.802C370.985 380.475 371.06 380.144 371.069 379.808C371.079 379.677 371.083 379.519 371.083 379.332C371.083 379.136 371.079 378.973 371.069 378.842C371.06 378.506 370.985 378.175 370.845 377.848C370.715 377.521 370.505 377.251 370.215 377.036C369.935 376.821 369.562 376.714 369.095 376.714C368.629 376.714 368.255 376.821 367.975 377.036C367.695 377.241 367.495 377.517 367.373 377.862C367.252 378.198 367.182 378.562 367.163 378.954C367.154 379.197 367.154 379.444 367.163 379.696C367.182 380.088 367.252 380.457 367.373 380.802C367.495 381.138 367.695 381.413 367.975 381.628C368.255 381.833 368.629 381.936 369.095 381.936ZM378.431 383C378.328 383 378.249 382.972 378.193 382.916C378.137 382.851 378.109 382.771 378.109 382.678V373.536C378.109 373.433 378.137 373.354 378.193 373.298C378.249 373.233 378.328 373.2 378.431 373.2H384.213C384.315 373.2 384.395 373.233 384.451 373.298C384.507 373.354 384.535 373.433 384.535 373.536V374.068C384.535 374.171 384.507 374.25 384.451 374.306C384.395 374.362 384.315 374.39 384.213 374.39H379.453V377.456H383.905C384.007 377.456 384.087 377.489 384.143 377.554C384.199 377.61 384.227 377.689 384.227 377.792V378.31C384.227 378.403 384.199 378.483 384.143 378.548C384.087 378.604 384.007 378.632 383.905 378.632H379.453V381.81H384.325C384.427 381.81 384.507 381.838 384.563 381.894C384.619 381.95 384.647 382.029 384.647 382.132V382.678C384.647 382.771 384.619 382.851 384.563 382.916C384.507 382.972 384.427 383 384.325 383H378.431ZM386.081 383C386.006 383 385.936 382.972 385.871 382.916C385.815 382.86 385.787 382.79 385.787 382.706C385.787 382.678 385.792 382.645 385.801 382.608C385.82 382.561 385.848 382.51 385.885 382.454L388.321 379.276L386.039 376.266C386.002 376.21 385.974 376.163 385.955 376.126C385.946 376.089 385.941 376.051 385.941 376.014C385.941 375.93 385.969 375.86 386.025 375.804C386.081 375.748 386.151 375.72 386.235 375.72H386.949C387.052 375.72 387.126 375.748 387.173 375.804C387.229 375.851 387.276 375.897 387.313 375.944L389.175 378.366L391.037 375.958C391.074 375.911 391.116 375.86 391.163 375.804C391.219 375.748 391.298 375.72 391.401 375.72H392.087C392.171 375.72 392.241 375.748 392.297 375.804C392.353 375.86 392.381 375.93 392.381 376.014C392.381 376.051 392.372 376.089 392.353 376.126C392.344 376.163 392.32 376.21 392.283 376.266L389.973 379.304L392.409 382.454C392.446 382.51 392.47 382.557 392.479 382.594C392.498 382.631 392.507 382.669 392.507 382.706C392.507 382.79 392.479 382.86 392.423 382.916C392.367 382.972 392.297 383 392.213 383H391.471C391.378 383 391.303 382.977 391.247 382.93C391.191 382.883 391.144 382.837 391.107 382.79L389.133 380.228L387.159 382.79C387.122 382.827 387.075 382.874 387.019 382.93C386.972 382.977 386.898 383 386.795 383H386.081ZM394.3 385.66C394.206 385.66 394.127 385.627 394.062 385.562C394.006 385.506 393.978 385.431 393.978 385.338V376.042C393.978 375.949 394.006 375.874 394.062 375.818C394.127 375.753 394.206 375.72 394.3 375.72H394.944C395.037 375.72 395.112 375.753 395.168 375.818C395.233 375.874 395.266 375.949 395.266 376.042V376.658C395.49 376.35 395.788 376.093 396.162 375.888C396.535 375.683 397.002 375.58 397.562 375.58C398.084 375.58 398.528 375.669 398.892 375.846C399.265 376.023 399.568 376.266 399.802 376.574C400.044 376.882 400.226 377.232 400.348 377.624C400.469 378.016 400.534 378.436 400.544 378.884C400.553 379.033 400.558 379.192 400.558 379.36C400.558 379.528 400.553 379.687 400.544 379.836C400.534 380.275 400.469 380.695 400.348 381.096C400.226 381.488 400.044 381.838 399.802 382.146C399.568 382.445 399.265 382.687 398.892 382.874C398.528 383.051 398.084 383.14 397.562 383.14C397.02 383.14 396.563 383.042 396.19 382.846C395.826 382.641 395.527 382.389 395.294 382.09V385.338C395.294 385.431 395.266 385.506 395.21 385.562C395.154 385.627 395.074 385.66 394.972 385.66H394.3ZM397.268 382.006C397.753 382.006 398.131 381.903 398.402 381.698C398.682 381.483 398.882 381.208 399.004 380.872C399.125 380.527 399.195 380.158 399.214 379.766C399.223 379.495 399.223 379.225 399.214 378.954C399.195 378.562 399.125 378.198 399.004 377.862C398.882 377.517 398.682 377.241 398.402 377.036C398.131 376.821 397.753 376.714 397.268 376.714C396.81 376.714 396.437 376.821 396.148 377.036C395.868 377.251 395.658 377.526 395.518 377.862C395.387 378.189 395.312 378.525 395.294 378.87C395.284 379.019 395.28 379.197 395.28 379.402C395.28 379.607 395.284 379.789 395.294 379.948C395.303 380.275 395.378 380.597 395.518 380.914C395.667 381.231 395.886 381.493 396.176 381.698C396.465 381.903 396.829 382.006 397.268 382.006ZM405.202 383.14C404.24 383.14 403.475 382.846 402.906 382.258C402.336 381.661 402.024 380.849 401.968 379.822C401.958 379.701 401.954 379.547 401.954 379.36C401.954 379.164 401.958 379.005 401.968 378.884C402.005 378.221 402.159 377.643 402.43 377.148C402.7 376.644 403.069 376.257 403.536 375.986C404.012 375.715 404.567 375.58 405.202 375.58C405.911 375.58 406.504 375.729 406.98 376.028C407.465 376.327 407.834 376.751 408.086 377.302C408.338 377.853 408.464 378.497 408.464 379.234V379.472C408.464 379.575 408.431 379.654 408.366 379.71C408.31 379.766 408.235 379.794 408.142 379.794H403.298C403.298 379.803 403.298 379.822 403.298 379.85C403.298 379.878 403.298 379.901 403.298 379.92C403.316 380.303 403.4 380.662 403.55 380.998C403.699 381.325 403.914 381.591 404.194 381.796C404.474 382.001 404.81 382.104 405.202 382.104C405.538 382.104 405.818 382.053 406.042 381.95C406.266 381.847 406.448 381.735 406.588 381.614C406.728 381.483 406.821 381.385 406.868 381.32C406.952 381.199 407.017 381.129 407.064 381.11C407.11 381.082 407.185 381.068 407.288 381.068H407.96C408.053 381.068 408.128 381.096 408.184 381.152C408.249 381.199 408.277 381.269 408.268 381.362C408.258 381.502 408.184 381.675 408.044 381.88C407.904 382.076 407.703 382.272 407.442 382.468C407.18 382.664 406.863 382.827 406.49 382.958C406.116 383.079 405.687 383.14 405.202 383.14ZM403.298 378.828H407.134V378.786C407.134 378.366 407.054 377.993 406.896 377.666C406.746 377.339 406.527 377.083 406.238 376.896C405.948 376.7 405.603 376.602 405.202 376.602C404.8 376.602 404.455 376.7 404.166 376.896C403.886 377.083 403.671 377.339 403.522 377.666C403.372 377.993 403.298 378.366 403.298 378.786V378.828ZM410.46 383C410.366 383 410.287 382.972 410.222 382.916C410.166 382.851 410.138 382.771 410.138 382.678V376.056C410.138 375.963 410.166 375.883 410.222 375.818C410.287 375.753 410.366 375.72 410.46 375.72H411.104C411.197 375.72 411.276 375.753 411.342 375.818C411.407 375.883 411.44 375.963 411.44 376.056V376.672C411.626 376.355 411.883 376.117 412.21 375.958C412.536 375.799 412.928 375.72 413.386 375.72H413.946C414.039 375.72 414.114 375.753 414.17 375.818C414.226 375.874 414.254 375.949 414.254 376.042V376.616C414.254 376.709 414.226 376.784 414.17 376.84C414.114 376.896 414.039 376.924 413.946 376.924H413.106C412.602 376.924 412.205 377.073 411.916 377.372C411.626 377.661 411.482 378.058 411.482 378.562V382.678C411.482 382.771 411.449 382.851 411.384 382.916C411.318 382.972 411.239 383 411.146 383H410.46ZM418.298 383C417.775 383 417.351 382.902 417.024 382.706C416.697 382.501 416.459 382.216 416.31 381.852C416.161 381.479 416.086 381.04 416.086 380.536V376.84H414.994C414.901 376.84 414.821 376.812 414.756 376.756C414.7 376.691 414.672 376.611 414.672 376.518V376.042C414.672 375.949 414.7 375.874 414.756 375.818C414.821 375.753 414.901 375.72 414.994 375.72H416.086V373.382C416.086 373.289 416.114 373.214 416.17 373.158C416.235 373.093 416.315 373.06 416.408 373.06H417.066C417.159 373.06 417.234 373.093 417.29 373.158C417.355 373.214 417.388 373.289 417.388 373.382V375.72H419.124C419.217 375.72 419.292 375.753 419.348 375.818C419.413 375.874 419.446 375.949 419.446 376.042V376.518C419.446 376.611 419.413 376.691 419.348 376.756C419.292 376.812 419.217 376.84 419.124 376.84H417.388V380.438C417.388 380.877 417.463 381.222 417.612 381.474C417.761 381.726 418.027 381.852 418.41 381.852H419.264C419.357 381.852 419.432 381.885 419.488 381.95C419.553 382.006 419.586 382.081 419.586 382.174V382.678C419.586 382.771 419.553 382.851 419.488 382.916C419.432 382.972 419.357 383 419.264 383H418.298Z" fill="white"/>
<path d="M302.103 358.2C301.383 358.2 300.697 358.113 300.043 357.94C299.403 357.753 298.83 357.473 298.323 357.1C297.817 356.727 297.41 356.267 297.103 355.72C296.81 355.173 296.657 354.527 296.643 353.78C296.643 353.66 296.683 353.56 296.763 353.48C296.843 353.387 296.943 353.34 297.063 353.34H298.963C299.137 353.34 299.263 353.387 299.343 353.48C299.437 353.573 299.51 353.7 299.563 353.86C299.63 354.34 299.783 354.733 300.023 355.04C300.263 355.333 300.563 355.553 300.923 355.7C301.297 355.833 301.71 355.9 302.163 355.9C303.003 355.9 303.643 355.627 304.083 355.08C304.537 354.533 304.763 353.773 304.763 352.8V346.36H297.983C297.837 346.36 297.717 346.313 297.623 346.22C297.543 346.127 297.503 346.013 297.503 345.88V344.48C297.503 344.347 297.543 344.233 297.623 344.14C297.717 344.047 297.837 344 297.983 344H307.123C307.27 344 307.39 344.047 307.483 344.14C307.577 344.233 307.623 344.353 307.623 344.5V352.88C307.623 353.987 307.39 354.94 306.923 355.74C306.47 356.54 305.83 357.153 305.003 357.58C304.19 357.993 303.223 358.2 302.103 358.2ZM314.99 358.2C313.924 358.2 313.024 358.013 312.29 357.64C311.57 357.267 311.017 356.74 310.63 356.06C310.257 355.38 310.044 354.587 309.99 353.68C309.977 353.44 309.97 353.147 309.97 352.8C309.97 352.453 309.977 352.16 309.99 351.92C310.044 351 310.264 350.207 310.65 349.54C311.05 348.86 311.61 348.333 312.33 347.96C313.064 347.587 313.95 347.4 314.99 347.4C316.03 347.4 316.91 347.587 317.63 347.96C318.364 348.333 318.924 348.86 319.31 349.54C319.71 350.207 319.937 351 319.99 351.92C320.004 352.16 320.01 352.453 320.01 352.8C320.01 353.147 320.004 353.44 319.99 353.68C319.937 354.587 319.717 355.38 319.33 356.06C318.957 356.74 318.404 357.267 317.67 357.64C316.95 358.013 316.057 358.2 314.99 358.2ZM314.99 356.22C315.697 356.22 316.244 356 316.63 355.56C317.017 355.107 317.23 354.447 317.27 353.58C317.284 353.38 317.29 353.12 317.29 352.8C317.29 352.48 317.284 352.22 317.27 352.02C317.23 351.167 317.017 350.513 316.63 350.06C316.244 349.607 315.697 349.38 314.99 349.38C314.284 349.38 313.737 349.607 313.35 350.06C312.964 350.513 312.75 351.167 312.71 352.02C312.697 352.22 312.69 352.48 312.69 352.8C312.69 353.12 312.697 353.38 312.71 353.58C312.75 354.447 312.964 355.107 313.35 355.56C313.737 356 314.284 356.22 314.99 356.22ZM322.726 358C322.593 358 322.48 357.953 322.386 357.86C322.293 357.767 322.246 357.653 322.246 357.52V344.28C322.246 344.147 322.293 344.033 322.386 343.94C322.48 343.847 322.593 343.8 322.726 343.8H324.506C324.653 343.8 324.766 343.847 324.846 343.94C324.94 344.033 324.986 344.147 324.986 344.28V348.84C325.346 348.413 325.786 348.067 326.306 347.8C326.826 347.533 327.466 347.4 328.226 347.4C329.04 347.4 329.746 347.587 330.346 347.96C330.96 348.32 331.433 348.833 331.766 349.5C332.1 350.167 332.266 350.967 332.266 351.9V357.52C332.266 357.653 332.22 357.767 332.126 357.86C332.033 357.953 331.92 358 331.786 358H329.986C329.853 358 329.74 357.953 329.646 357.86C329.553 357.767 329.506 357.653 329.506 357.52V352.02C329.506 351.247 329.313 350.64 328.926 350.2C328.553 349.76 328.006 349.54 327.286 349.54C326.593 349.54 326.033 349.76 325.606 350.2C325.193 350.64 324.986 351.247 324.986 352.02V357.52C324.986 357.653 324.94 357.767 324.846 357.86C324.766 357.953 324.653 358 324.506 358H322.726ZM335.284 358C335.151 358 335.038 357.953 334.944 357.86C334.851 357.767 334.804 357.653 334.804 357.52V348.08C334.804 347.947 334.851 347.833 334.944 347.74C335.038 347.647 335.151 347.6 335.284 347.6H336.924C337.058 347.6 337.171 347.647 337.264 347.74C337.358 347.833 337.404 347.947 337.404 348.08V348.9C337.751 348.473 338.191 348.12 338.724 347.84C339.271 347.547 339.944 347.4 340.744 347.4C341.558 347.4 342.264 347.587 342.864 347.96C343.464 348.32 343.924 348.833 344.244 349.5C344.578 350.167 344.744 350.967 344.744 351.9V357.52C344.744 357.653 344.698 357.767 344.604 357.86C344.511 357.953 344.398 358 344.264 358H342.504C342.371 358 342.258 357.953 342.164 357.86C342.071 357.767 342.024 357.653 342.024 357.52V352.02C342.024 351.247 341.831 350.64 341.444 350.2C341.071 349.76 340.524 349.54 339.804 349.54C339.111 349.54 338.558 349.76 338.144 350.2C337.731 350.64 337.524 351.247 337.524 352.02V357.52C337.524 357.653 337.478 357.767 337.384 357.86C337.291 357.953 337.178 358 337.044 358H335.284ZM352.575 358C352.442 358 352.328 357.953 352.235 357.86C352.142 357.767 352.095 357.653 352.095 357.52V344.5C352.095 344.353 352.142 344.233 352.235 344.14C352.328 344.047 352.442 344 352.575 344H357.455C358.802 344 359.908 344.207 360.775 344.62C361.655 345.033 362.315 345.647 362.755 346.46C363.208 347.273 363.442 348.267 363.455 349.44C363.482 350.027 363.495 350.547 363.495 351C363.495 351.453 363.482 351.967 363.455 352.54C363.428 353.78 363.202 354.807 362.775 355.62C362.348 356.42 361.702 357.02 360.835 357.42C359.982 357.807 358.888 358 357.555 358H352.575ZM354.875 355.7H357.455C358.202 355.7 358.808 355.593 359.275 355.38C359.742 355.167 360.082 354.827 360.295 354.36C360.522 353.88 360.642 353.253 360.655 352.48C360.668 352.08 360.675 351.733 360.675 351.44C360.688 351.133 360.688 350.833 360.675 350.54C360.675 350.233 360.668 349.887 360.655 349.5C360.628 348.407 360.355 347.6 359.835 347.08C359.315 346.56 358.488 346.3 357.355 346.3H354.875V355.7ZM370.518 358.2C369.451 358.2 368.551 358.013 367.818 357.64C367.098 357.267 366.544 356.74 366.158 356.06C365.784 355.38 365.571 354.587 365.518 353.68C365.504 353.44 365.498 353.147 365.498 352.8C365.498 352.453 365.504 352.16 365.518 351.92C365.571 351 365.791 350.207 366.178 349.54C366.578 348.86 367.138 348.333 367.858 347.96C368.591 347.587 369.478 347.4 370.518 347.4C371.558 347.4 372.438 347.587 373.158 347.96C373.891 348.333 374.451 348.86 374.838 349.54C375.238 350.207 375.464 351 375.518 351.92C375.531 352.16 375.538 352.453 375.538 352.8C375.538 353.147 375.531 353.44 375.518 353.68C375.464 354.587 375.244 355.38 374.858 356.06C374.484 356.74 373.931 357.267 373.198 357.64C372.478 358.013 371.584 358.2 370.518 358.2ZM370.518 356.22C371.224 356.22 371.771 356 372.158 355.56C372.544 355.107 372.758 354.447 372.798 353.58C372.811 353.38 372.818 353.12 372.818 352.8C372.818 352.48 372.811 352.22 372.798 352.02C372.758 351.167 372.544 350.513 372.158 350.06C371.771 349.607 371.224 349.38 370.518 349.38C369.811 349.38 369.264 349.607 368.878 350.06C368.491 350.513 368.278 351.167 368.238 352.02C368.224 352.22 368.218 352.48 368.218 352.8C368.218 353.12 368.224 353.38 368.238 353.58C368.278 354.447 368.491 355.107 368.878 355.56C369.264 356 369.811 356.22 370.518 356.22ZM382.234 358.2C380.754 358.2 379.58 357.773 378.714 356.92C377.847 356.067 377.38 354.853 377.314 353.28C377.3 353.147 377.294 352.98 377.294 352.78C377.294 352.567 377.3 352.4 377.314 352.28C377.367 351.28 377.594 350.413 377.994 349.68C378.407 348.947 378.974 348.387 379.694 348C380.414 347.6 381.26 347.4 382.234 347.4C383.314 347.4 384.22 347.627 384.954 348.08C385.687 348.52 386.24 349.14 386.614 349.94C386.987 350.727 387.174 351.64 387.174 352.68V353.1C387.174 353.233 387.127 353.347 387.034 353.44C386.94 353.533 386.82 353.58 386.674 353.58H380.034C380.034 353.58 380.034 353.6 380.034 353.64C380.034 353.68 380.034 353.713 380.034 353.74C380.047 354.207 380.134 354.64 380.294 355.04C380.467 355.427 380.714 355.74 381.034 355.98C381.367 356.22 381.76 356.34 382.214 356.34C382.587 356.34 382.9 356.287 383.154 356.18C383.407 356.06 383.614 355.927 383.774 355.78C383.934 355.633 384.047 355.513 384.114 355.42C384.234 355.26 384.327 355.167 384.394 355.14C384.474 355.1 384.587 355.08 384.734 355.08H386.454C386.587 355.08 386.694 355.12 386.774 355.2C386.867 355.28 386.907 355.38 386.894 355.5C386.88 355.713 386.767 355.973 386.554 356.28C386.354 356.587 386.06 356.887 385.674 357.18C385.287 357.473 384.8 357.72 384.214 357.92C383.64 358.107 382.98 358.2 382.234 358.2ZM380.034 351.9H384.454V351.84C384.454 351.32 384.367 350.867 384.194 350.48C384.02 350.093 383.767 349.787 383.434 349.56C383.1 349.333 382.7 349.22 382.234 349.22C381.767 349.22 381.367 349.333 381.034 349.56C380.7 349.787 380.447 350.093 380.274 350.48C380.114 350.867 380.034 351.32 380.034 351.84V351.9Z" fill="white"/>
<circle cx="342" cy="279" r="50" fill="#26D367"/>
<path d="M349.639 270.8C348.599 270.267 347.493 269.813 346.319 269.44C345.146 269.04 344.026 268.84 342.959 268.84C341.519 268.84 340.373 269.16 339.519 269.8C338.693 270.44 338.279 271.32 338.279 272.44C338.279 273.24 338.573 273.947 339.159 274.56C339.746 275.147 340.493 275.667 341.399 276.12C342.306 276.547 343.266 276.96 344.279 277.36C345.159 277.68 346.026 278.067 346.879 278.52C347.759 278.947 348.546 279.48 349.239 280.12C349.933 280.76 350.479 281.56 350.879 282.52C351.306 283.453 351.519 284.613 351.519 286C351.519 287.52 351.133 288.92 350.359 290.2C349.586 291.453 348.479 292.453 347.039 293.2C345.599 293.947 343.839 294.32 341.759 294.32C340.559 294.32 339.373 294.187 338.199 293.92C337.053 293.653 335.959 293.293 334.919 292.84C333.879 292.36 332.919 291.827 332.039 291.24L334.119 287.6C334.759 288.08 335.493 288.52 336.319 288.92C337.146 289.32 337.999 289.64 338.879 289.88C339.759 290.093 340.586 290.2 341.359 290.2C342.186 290.2 342.999 290.067 343.799 289.8C344.626 289.533 345.306 289.093 345.839 288.48C346.399 287.867 346.679 287.053 346.679 286.04C346.679 285.213 346.439 284.507 345.959 283.92C345.479 283.333 344.853 282.827 344.079 282.4C343.333 281.947 342.506 281.547 341.599 281.2C340.693 280.853 339.759 280.467 338.799 280.04C337.866 279.613 336.999 279.093 336.199 278.48C335.399 277.84 334.746 277.067 334.239 276.16C333.733 275.253 333.479 274.133 333.479 272.8C333.479 271.2 333.853 269.813 334.599 268.64C335.346 267.467 336.373 266.533 337.679 265.84C339.013 265.147 340.546 264.773 342.279 264.72C344.333 264.72 346.079 264.973 347.519 265.48C348.986 265.96 350.279 266.547 351.399 267.24L349.639 270.8Z" fill="white"/>
<path d="M625.219 784.313C641.416 789.813 650.099 807.408 644.614 823.612C639.129 839.815 621.552 848.493 605.355 842.993C589.159 837.493 580.476 819.898 585.961 803.694C591.446 787.49 609.023 778.813 625.219 784.313Z" fill="black"/>
<path d="M625.219 784.313C641.416 789.813 650.099 807.408 644.614 823.612C639.129 839.815 621.552 848.493 605.355 842.993C589.159 837.493 580.476 819.898 585.961 803.694C591.446 787.49 609.023 778.813 625.219 784.313Z" stroke="black" stroke-width="5.9066"/>
<path d="M628.905 815.6C626.419 814.762 624.259 813.16 622.731 811.019L619.296 821.167C618.659 823.046 617.467 824.687 615.879 825.87C614.291 827.053 612.383 827.721 610.411 827.786C608.438 827.85 606.494 827.308 604.84 826.231C603.185 825.154 601.899 823.593 601.153 821.759C600.406 819.924 600.235 817.902 600.663 815.964C601.091 814.026 602.097 812.264 603.546 810.913C604.996 809.562 606.819 808.687 608.774 808.405C610.728 808.123 612.72 808.448 614.483 809.335L612.755 814.438C611.999 813.883 611.088 813.583 610.15 813.58C609.213 813.577 608.298 813.872 607.535 814.423C606.773 814.973 606.202 815.751 605.906 816.646C605.609 817.541 605.6 818.506 605.881 819.404C606.163 820.302 606.719 821.087 607.472 821.647C608.224 822.207 609.134 822.513 610.071 822.521C611.009 822.53 611.925 822.24 612.691 821.694C613.457 821.148 614.031 820.373 614.333 819.48L621.048 799.645L626.012 801.331C625.866 801.752 625.759 802.185 625.691 802.626C625.55 803.612 625.609 804.616 625.867 805.576C626.125 806.537 626.576 807.435 627.191 808.213C628.059 809.34 629.239 810.184 630.584 810.64L628.905 815.6Z" fill="black"/>
<path d="M622.203 780.959C638.4 786.459 647.083 804.053 641.598 820.257C636.113 836.461 618.536 845.138 602.34 839.638C586.143 834.138 577.46 816.544 582.945 800.34C588.43 784.136 606.007 775.459 622.203 780.959Z" fill="white"/>
<path d="M622.203 780.959C638.4 786.459 647.083 804.053 641.598 820.257C636.113 836.461 618.536 845.138 602.34 839.638C586.143 834.138 577.46 816.544 582.945 800.34C588.43 784.136 606.007 775.459 622.203 780.959Z" stroke="black" stroke-width="5.9066"/>
<path d="M625.889 812.245C623.403 811.408 621.243 809.805 619.716 807.664L616.281 817.812C615.643 819.691 614.451 821.333 612.863 822.515C611.276 823.699 609.368 824.367 607.395 824.431C605.422 824.495 603.479 823.953 601.824 822.876C600.17 821.799 598.884 820.239 598.137 818.404C597.391 816.569 597.22 814.548 597.647 812.61C598.075 810.672 599.081 808.909 600.531 807.558C601.98 806.208 603.804 805.332 605.758 805.051C607.712 804.768 609.704 805.093 611.467 805.98L609.739 811.084C608.983 810.528 608.072 810.228 607.135 810.225C606.197 810.222 605.282 810.517 604.519 811.068C603.758 811.618 603.187 812.397 602.89 813.292C602.593 814.186 602.584 815.152 602.866 816.05C603.147 816.948 603.704 817.733 604.456 818.293C605.209 818.852 606.118 819.158 607.056 819.167C607.993 819.175 608.91 818.886 609.675 818.339C610.441 817.793 611.016 817.019 611.318 816.126L618.032 796.291L622.997 797.977C622.85 798.398 622.743 798.831 622.676 799.271C622.534 800.257 622.594 801.261 622.852 802.222C623.11 803.183 623.56 804.08 624.175 804.859C625.044 805.986 626.224 806.83 627.568 807.285L625.889 812.245Z" fill="black"/>
<path d="M79.8642 588.047C91.3736 583.706 104.214 589.521 108.545 601.036C112.875 612.551 107.055 625.405 95.5459 629.746C84.0365 634.087 71.1957 628.272 66.8653 616.757C62.5349 605.243 68.3547 592.389 79.8642 588.047Z" fill="black"/>
<path d="M79.8642 588.047C91.3736 583.706 104.214 589.521 108.545 601.036C112.875 612.551 107.055 625.405 95.5459 629.746C84.0365 634.087 71.1957 628.272 66.8653 616.757C62.5349 605.243 68.3547 592.389 79.8642 588.047Z" stroke="black" stroke-width="4.24765"/>
<path d="M82.9869 596.788C89.6233 594.285 97.0272 597.638 99.5242 604.277C102.021 610.917 98.6656 618.329 92.0291 620.832C85.3927 623.335 77.9887 619.982 75.4917 613.342C72.9948 606.703 76.3505 599.291 82.9869 596.788Z" fill="black"/>
<path d="M99.8379 604.243C97.3251 597.561 89.847 594.201 83.13 596.734C76.4126 599.268 73.0066 606.734 75.5193 613.416C77.7935 619.463 84.0951 622.822 90.2598 621.499L87.0867 613.062L83.9979 614.227L82.6774 610.716L85.7662 609.551L84.7759 606.917C83.6387 603.894 84.8111 601.502 87.5568 600.466C88.9294 599.949 90.3941 599.675 90.3941 599.675L91.5129 602.649L89.993 603.223C88.4731 603.796 88.3313 604.908 88.6981 605.884L89.5417 608.127L92.9246 606.851L93.7058 610.565L90.8622 611.638L94.0353 620.075C99.5394 616.996 102.112 610.29 99.8379 604.243Z" fill="black"/>
<path d="M76.8486 584.861C88.358 580.519 101.199 586.335 105.529 597.849C109.86 609.364 104.04 622.218 92.5303 626.559C81.0208 630.901 68.18 625.085 63.8497 613.571C59.5193 602.056 65.3391 589.202 76.8486 584.861Z" fill="white"/>
<path d="M76.8486 584.861C88.358 580.519 101.199 586.335 105.529 597.849C109.86 609.364 104.04 622.218 92.5303 626.559C81.0208 630.901 68.18 625.085 63.8497 613.571C59.5193 602.056 65.3391 589.202 76.8486 584.861Z" stroke="black" stroke-width="4.24765"/>
<path d="M79.9713 593.601C86.6077 591.098 94.0116 594.451 96.5085 601.091C99.0055 607.73 95.6499 615.142 89.0135 617.645C82.3771 620.148 74.973 616.795 72.4761 610.156C69.9792 603.516 73.3349 596.105 79.9713 593.601Z" fill="white"/>
<path d="M96.8223 601.056C94.3095 594.375 86.8314 591.014 80.1144 593.548C73.397 596.081 69.991 603.547 72.5037 610.229C74.7779 616.276 81.0795 619.635 87.2442 618.313L84.0711 609.875L80.9823 611.04L79.6618 607.529L82.7506 606.364L81.7603 603.731C80.6231 600.707 81.7955 598.315 84.5411 597.28C85.9138 596.762 87.3785 596.488 87.3785 596.488L88.4973 599.463L86.9774 600.036C85.4574 600.609 85.3157 601.721 85.6825 602.697L86.526 604.94L89.909 603.664L90.6901 607.379L87.8466 608.451L91.0196 616.889C96.5238 613.81 99.0965 607.103 96.8223 601.056Z" fill="black"/>
<path d="M119.969 49.2319C145.723 42.3052 172.199 57.5776 179.104 83.3435C186.009 109.109 170.729 135.612 144.975 142.539C119.221 149.465 92.7449 134.193 85.8398 108.427C78.9347 82.6612 94.2148 56.1585 119.969 49.2319Z" fill="black"/>
<path d="M119.969 49.2319C145.723 42.3052 172.199 57.5776 179.104 83.3435C186.009 109.109 170.729 135.612 144.975 142.539C119.221 149.465 92.7449 134.193 85.8398 108.427C78.9347 82.6612 94.2148 56.1585 119.969 49.2319Z" stroke="black" stroke-width="9.20976"/>
<path d="M128.742 83.6394C121.599 85.5606 117.415 93.0004 119.372 100.302C121.329 107.605 128.67 111.946 135.813 110.025C142.956 108.104 147.14 100.663 145.183 93.3605C143.226 86.0584 135.885 81.7182 128.742 83.6394ZM134.576 105.41C129.959 106.651 125.155 103.819 123.887 99.088C122.62 94.3581 125.351 89.4996 129.979 88.255C134.606 87.0104 139.4 89.8451 140.667 94.575C141.935 99.3057 139.192 104.168 134.576 105.41ZM145.04 78.6773C145.499 80.3879 144.517 82.1166 142.855 82.5637C141.182 83.0137 139.476 81.9954 139.02 80.2964C138.565 78.5967 139.543 76.8572 141.206 76.4101C142.868 75.9629 144.585 76.9775 145.04 78.6773ZM154.424 79.5013C153.129 75.4306 151.23 72.0277 147.469 69.8138C143.721 67.5976 139.897 67.6167 135.809 68.4943C131.589 69.3709 119.132 72.7211 115.041 74.0798C111.073 75.3563 107.753 77.2579 105.605 81.0608C103.458 84.8627 103.527 88.7589 104.429 92.9351C105.332 97.247 108.745 109.981 110.119 114.166C111.415 118.237 113.314 121.641 117.074 123.854C120.834 126.068 124.647 126.051 128.734 125.173C132.954 124.297 145.411 120.947 149.502 119.588C153.482 118.308 156.802 116.407 158.935 112.595C161.071 108.796 161.014 104.897 160.111 100.721C159.209 96.4088 155.799 83.6863 154.424 79.5013ZM155.964 106.723C155.691 109.209 154.46 111.399 152.49 112.901C149.537 115.135 141.591 116.94 137.93 117.924C134.269 118.909 126.475 121.325 122.816 120.881C120.375 120.579 118.214 119.301 116.72 117.278C114.498 114.244 112.648 106.124 111.645 102.381C110.642 98.6375 108.192 90.6675 108.59 86.9418C108.863 84.4559 110.095 82.2657 112.065 80.7631C115.018 78.5292 122.963 76.7249 126.625 75.7401C130.286 74.7554 138.08 72.3383 141.738 72.7823C144.18 73.0859 146.341 74.3638 147.835 76.387C150.056 79.4208 151.906 87.5392 152.91 91.2823C153.913 95.0255 156.373 102.994 155.964 106.723Z" fill="black"/>
<path d="M118.654 45.5419C144.409 38.6153 170.884 53.8877 177.789 79.6536C184.694 105.42 169.414 131.922 143.66 138.849C117.906 145.776 91.4304 130.503 84.5253 104.737C77.6202 78.9713 92.9004 52.4686 118.654 45.5419Z" fill="white"/>
<path d="M118.654 45.5419C144.409 38.6153 170.884 53.8877 177.789 79.6536C184.694 105.42 169.414 131.922 143.66 138.849C117.906 145.776 91.4304 130.503 84.5253 104.737C77.6202 78.9713 92.9004 52.4686 118.654 45.5419Z" stroke="black" stroke-width="9.20976"/>
<path d="M127.427 79.9494C120.284 81.8706 116.1 89.3104 118.057 96.6125C120.014 103.915 127.355 108.256 134.499 106.335C141.642 104.414 145.825 96.9734 143.868 89.6706C141.911 82.3685 134.571 78.0282 127.427 79.9494ZM133.262 101.72C128.645 102.961 123.841 100.129 122.573 95.398C121.305 90.6681 124.037 85.8096 128.664 84.565C133.292 83.3205 138.085 86.1552 139.353 90.8851C140.62 95.6157 137.877 100.478 133.262 101.72ZM143.726 74.9873C144.184 76.698 143.203 78.4266 141.54 78.8737C139.867 79.3238 138.161 78.3055 137.706 76.6065C137.25 74.9067 138.229 73.1672 139.891 72.7201C141.554 72.273 143.271 73.2876 143.726 74.9873ZM153.11 75.8113C151.815 71.7407 149.915 68.3377 146.155 66.1239C142.407 63.9077 138.582 63.9267 134.495 64.8044C130.274 65.681 117.818 69.0311 113.727 70.3899C109.759 71.6664 106.439 73.5679 104.291 77.3708C102.144 81.1728 102.212 85.069 103.115 89.2452C104.018 93.5571 107.43 106.291 108.804 110.476C110.1 114.547 112 117.951 115.759 120.164C119.52 122.378 123.332 122.361 127.42 121.483C131.64 120.607 144.096 117.257 148.187 115.898C152.167 114.618 155.487 112.717 157.62 108.905C159.757 105.106 159.699 101.207 158.797 97.031C157.894 92.7188 154.485 79.9964 153.11 75.8113ZM154.65 103.033C154.376 105.519 153.145 107.709 151.175 109.211C148.222 111.445 140.277 113.25 136.616 114.234C132.954 115.219 125.16 117.635 121.502 117.191C119.06 116.889 116.9 115.611 115.406 113.588C113.184 110.554 111.333 102.434 110.33 98.6907C109.327 94.9475 106.878 86.9776 107.276 83.2518C107.549 80.766 108.781 78.5757 110.75 77.0732C113.704 74.8393 121.649 73.0349 125.31 72.0502C128.972 71.0654 136.765 68.6484 140.424 69.0924C142.866 69.396 145.026 70.6738 146.52 72.697C148.741 75.7308 150.592 83.8492 151.595 87.5924C152.598 91.3356 155.059 99.3042 154.65 103.033Z" fill="black"/>
</svg>
