<svg width="695" height="919" viewBox="0 0 695 919" fill="none" xmlns="http://www.w3.org/2000/svg">
<rect width="695" height="919" fill="#26D367"/>
<rect y="94" width="695" height="825" fill="#26D367"/>
<path d="M243.816 209.734H430.419C451.305 209.734 468.235 226.684 468.235 247.59V729.877C468.235 750.784 451.305 767.733 430.419 767.733H243.816C222.931 767.733 206 750.784 206 729.877V247.59C206 226.684 222.931 209.734 243.816 209.734Z" fill="black"/>
<mask id="mask0_146_480" style="mask-type:alpha" maskUnits="userSpaceOnUse" x="216" y="199" width="263" height="558">
<path d="M254.54 200.5H441.143C461.198 200.5 477.459 216.776 477.459 236.856V719.143C477.459 739.222 461.198 755.499 441.143 755.499H254.54C234.484 755.499 218.224 739.222 218.224 719.143V236.856C218.224 216.776 234.484 200.5 254.54 200.5Z" fill="white" stroke="black" stroke-width="3"/>
</mask>
<g mask="url(#mask0_146_480)">
<path d="M254.816 200.5H441.419C461.475 200.5 477.735 216.776 477.735 236.856V719.143C477.735 739.222 461.475 755.499 441.419 755.499H254.816C234.761 755.499 218.5 739.222 218.5 719.143V236.856C218.5 216.776 234.761 200.5 254.816 200.5Z" fill="white" stroke="black" stroke-width="3"/>
<ellipse cx="348" cy="315.881" rx="179" ry="141" fill="#4E3F6A"/>
</g>
<rect opacity="0.05" x="242" y="625" width="200" height="36" rx="18" fill="black"/>
<path d="M315.546 647.14C314.734 647.14 314.052 647.019 313.502 646.776C312.951 646.524 312.526 646.202 312.228 645.81C311.938 645.409 311.784 644.984 311.766 644.536C311.766 644.461 311.794 644.396 311.85 644.34C311.915 644.275 311.99 644.242 312.074 644.242H312.788C312.9 644.242 312.984 644.27 313.04 644.326C313.096 644.382 313.133 644.447 313.152 644.522C313.198 644.746 313.31 644.97 313.488 645.194C313.674 645.409 313.931 645.591 314.258 645.74C314.594 645.88 315.023 645.95 315.546 645.95C316.348 645.95 316.936 645.81 317.31 645.53C317.692 645.241 317.884 644.858 317.884 644.382C317.884 644.055 317.781 643.794 317.576 643.598C317.38 643.393 317.076 643.211 316.666 643.052C316.255 642.893 315.723 642.721 315.07 642.534C314.388 642.338 313.824 642.123 313.376 641.89C312.928 641.657 312.592 641.367 312.368 641.022C312.153 640.677 312.046 640.238 312.046 639.706C312.046 639.202 312.181 638.754 312.452 638.362C312.722 637.961 313.11 637.643 313.614 637.41C314.127 637.177 314.748 637.06 315.476 637.06C316.054 637.06 316.558 637.139 316.988 637.298C317.426 637.447 317.79 637.653 318.08 637.914C318.369 638.166 318.588 638.441 318.738 638.74C318.887 639.029 318.966 639.314 318.976 639.594C318.976 639.659 318.952 639.725 318.906 639.79C318.859 639.846 318.784 639.874 318.682 639.874H317.94C317.874 639.874 317.804 639.855 317.73 639.818C317.664 639.781 317.613 639.711 317.576 639.608C317.52 639.225 317.305 638.903 316.932 638.642C316.558 638.381 316.073 638.25 315.476 638.25C314.869 638.25 314.374 638.367 313.992 638.6C313.618 638.833 313.432 639.197 313.432 639.692C313.432 640.009 313.52 640.275 313.698 640.49C313.875 640.695 314.155 640.877 314.538 641.036C314.92 641.195 315.42 641.363 316.036 641.54C316.782 641.745 317.394 641.965 317.87 642.198C318.346 642.422 318.696 642.707 318.92 643.052C319.153 643.388 319.27 643.822 319.27 644.354C319.27 644.942 319.116 645.446 318.808 645.866C318.5 646.277 318.066 646.594 317.506 646.818C316.955 647.033 316.302 647.14 315.546 647.14ZM321.245 647C321.151 647 321.072 646.972 321.007 646.916C320.951 646.851 320.923 646.771 320.923 646.678V640.042C320.923 639.949 320.951 639.874 321.007 639.818C321.072 639.753 321.151 639.72 321.245 639.72H321.903C321.996 639.72 322.071 639.753 322.127 639.818C322.192 639.874 322.225 639.949 322.225 640.042V640.658C322.467 640.341 322.771 640.084 323.135 639.888C323.508 639.683 323.984 639.58 324.563 639.58C325.169 639.58 325.683 639.715 326.103 639.986C326.532 640.247 326.854 640.616 327.069 641.092C327.283 641.559 327.391 642.105 327.391 642.73V646.678C327.391 646.771 327.363 646.851 327.307 646.916C327.251 646.972 327.176 647 327.083 647H326.383C326.289 647 326.21 646.972 326.145 646.916C326.089 646.851 326.061 646.771 326.061 646.678V642.8C326.061 642.147 325.902 641.638 325.585 641.274C325.267 640.901 324.801 640.714 324.185 640.714C323.606 640.714 323.139 640.901 322.785 641.274C322.439 641.638 322.267 642.147 322.267 642.8V646.678C322.267 646.771 322.234 646.851 322.169 646.916C322.113 646.972 322.038 647 321.945 647H321.245ZM331.443 647.14C330.976 647.14 330.552 647.047 330.169 646.86C329.786 646.673 329.478 646.421 329.245 646.104C329.012 645.787 328.895 645.427 328.895 645.026C328.895 644.382 329.156 643.869 329.679 643.486C330.202 643.103 330.883 642.851 331.723 642.73L333.809 642.436V642.03C333.809 641.582 333.678 641.232 333.417 640.98C333.165 640.728 332.75 640.602 332.171 640.602C331.751 640.602 331.41 640.686 331.149 640.854C330.897 641.022 330.72 641.237 330.617 641.498C330.561 641.638 330.463 641.708 330.323 641.708H329.693C329.59 641.708 329.511 641.68 329.455 641.624C329.408 641.559 329.385 641.484 329.385 641.4C329.385 641.26 329.436 641.087 329.539 640.882C329.651 640.677 329.819 640.476 330.043 640.28C330.267 640.084 330.552 639.921 330.897 639.79C331.252 639.65 331.681 639.58 332.185 639.58C332.745 639.58 333.216 639.655 333.599 639.804C333.982 639.944 334.28 640.135 334.495 640.378C334.719 640.621 334.878 640.896 334.971 641.204C335.074 641.512 335.125 641.825 335.125 642.142V646.678C335.125 646.771 335.092 646.851 335.027 646.916C334.971 646.972 334.896 647 334.803 647H334.159C334.056 647 333.977 646.972 333.921 646.916C333.865 646.851 333.837 646.771 333.837 646.678V646.076C333.716 646.244 333.552 646.412 333.347 646.58C333.142 646.739 332.885 646.874 332.577 646.986C332.269 647.089 331.891 647.14 331.443 647.14ZM331.737 646.09C332.12 646.09 332.47 646.011 332.787 645.852C333.104 645.684 333.352 645.427 333.529 645.082C333.716 644.737 333.809 644.303 333.809 643.78V643.388L332.185 643.626C331.522 643.719 331.023 643.878 330.687 644.102C330.351 644.317 330.183 644.592 330.183 644.928C330.183 645.189 330.258 645.409 330.407 645.586C330.566 645.754 330.762 645.88 330.995 645.964C331.238 646.048 331.485 646.09 331.737 646.09ZM337.474 649.66C337.38 649.66 337.301 649.627 337.236 649.562C337.18 649.506 337.152 649.431 337.152 649.338V640.042C337.152 639.949 337.18 639.874 337.236 639.818C337.301 639.753 337.38 639.72 337.474 639.72H338.118C338.211 639.72 338.286 639.753 338.342 639.818C338.407 639.874 338.44 639.949 338.44 640.042V640.658C338.664 640.35 338.962 640.093 339.336 639.888C339.709 639.683 340.176 639.58 340.736 639.58C341.258 639.58 341.702 639.669 342.066 639.846C342.439 640.023 342.742 640.266 342.976 640.574C343.218 640.882 343.4 641.232 343.522 641.624C343.643 642.016 343.708 642.436 343.718 642.884C343.727 643.033 343.732 643.192 343.732 643.36C343.732 643.528 343.727 643.687 343.718 643.836C343.708 644.275 343.643 644.695 343.522 645.096C343.4 645.488 343.218 645.838 342.976 646.146C342.742 646.445 342.439 646.687 342.066 646.874C341.702 647.051 341.258 647.14 340.736 647.14C340.194 647.14 339.737 647.042 339.364 646.846C339 646.641 338.701 646.389 338.468 646.09V649.338C338.468 649.431 338.44 649.506 338.384 649.562C338.328 649.627 338.248 649.66 338.146 649.66H337.474ZM340.442 646.006C340.927 646.006 341.305 645.903 341.576 645.698C341.856 645.483 342.056 645.208 342.178 644.872C342.299 644.527 342.369 644.158 342.388 643.766C342.397 643.495 342.397 643.225 342.388 642.954C342.369 642.562 342.299 642.198 342.178 641.862C342.056 641.517 341.856 641.241 341.576 641.036C341.305 640.821 340.927 640.714 340.442 640.714C339.984 640.714 339.611 640.821 339.322 641.036C339.042 641.251 338.832 641.526 338.692 641.862C338.561 642.189 338.486 642.525 338.468 642.87C338.458 643.019 338.454 643.197 338.454 643.402C338.454 643.607 338.458 643.789 338.468 643.948C338.477 644.275 338.552 644.597 338.692 644.914C338.841 645.231 339.06 645.493 339.35 645.698C339.639 645.903 340.003 646.006 340.442 646.006ZM348.417 647.14C347.755 647.14 347.181 647.014 346.695 646.762C346.219 646.501 345.851 646.132 345.589 645.656C345.328 645.171 345.188 644.592 345.169 643.92C345.16 643.78 345.155 643.593 345.155 643.36C345.155 643.127 345.16 642.94 345.169 642.8C345.188 642.128 345.328 641.554 345.589 641.078C345.851 640.593 346.219 640.224 346.695 639.972C347.181 639.711 347.755 639.58 348.417 639.58C348.959 639.58 349.421 639.655 349.803 639.804C350.195 639.953 350.517 640.145 350.769 640.378C351.021 640.611 351.208 640.863 351.329 641.134C351.46 641.405 351.53 641.661 351.539 641.904C351.549 641.997 351.521 642.072 351.455 642.128C351.39 642.184 351.311 642.212 351.217 642.212H350.545C350.452 642.212 350.382 642.193 350.335 642.156C350.289 642.109 350.242 642.035 350.195 641.932C350.027 641.475 349.799 641.153 349.509 640.966C349.22 640.779 348.861 640.686 348.431 640.686C347.871 640.686 347.414 640.859 347.059 641.204C346.714 641.549 346.527 642.105 346.499 642.87C346.49 643.206 346.49 643.533 346.499 643.85C346.527 644.625 346.714 645.185 347.059 645.53C347.414 645.866 347.871 646.034 348.431 646.034C348.861 646.034 349.22 645.941 349.509 645.754C349.799 645.567 350.027 645.245 350.195 644.788C350.242 644.685 350.289 644.615 350.335 644.578C350.382 644.531 350.452 644.508 350.545 644.508H351.217C351.311 644.508 351.39 644.536 351.455 644.592C351.521 644.648 351.549 644.723 351.539 644.816C351.53 645.012 351.488 645.213 351.413 645.418C351.339 645.623 351.217 645.833 351.049 646.048C350.891 646.253 350.69 646.44 350.447 646.608C350.205 646.767 349.911 646.897 349.565 647C349.229 647.093 348.847 647.14 348.417 647.14ZM353.538 647C353.445 647 353.365 646.972 353.3 646.916C353.244 646.851 353.216 646.771 353.216 646.678V637.382C353.216 637.289 353.244 637.214 353.3 637.158C353.365 637.093 353.445 637.06 353.538 637.06H354.238C354.341 637.06 354.42 637.093 354.476 637.158C354.532 637.214 354.56 637.289 354.56 637.382V640.644C354.812 640.327 355.12 640.07 355.484 639.874C355.848 639.678 356.31 639.58 356.87 639.58C357.477 639.58 357.99 639.715 358.41 639.986C358.839 640.247 359.161 640.616 359.376 641.092C359.6 641.559 359.712 642.105 359.712 642.73V646.678C359.712 646.771 359.684 646.851 359.628 646.916C359.572 646.972 359.493 647 359.39 647H358.69C358.597 647 358.517 646.972 358.452 646.916C358.396 646.851 358.368 646.771 358.368 646.678V642.8C358.368 642.147 358.209 641.638 357.892 641.274C357.575 640.901 357.108 640.714 356.492 640.714C355.913 640.714 355.447 640.901 355.092 641.274C354.737 641.638 354.56 642.147 354.56 642.8V646.678C354.56 646.771 354.532 646.851 354.476 646.916C354.42 646.972 354.341 647 354.238 647H353.538ZM363.763 647.14C363.297 647.14 362.872 647.047 362.489 646.86C362.107 646.673 361.799 646.421 361.565 646.104C361.332 645.787 361.215 645.427 361.215 645.026C361.215 644.382 361.477 643.869 361.999 643.486C362.522 643.103 363.203 642.851 364.043 642.73L366.129 642.436V642.03C366.129 641.582 365.999 641.232 365.737 640.98C365.485 640.728 365.07 640.602 364.491 640.602C364.071 640.602 363.731 640.686 363.469 640.854C363.217 641.022 363.04 641.237 362.937 641.498C362.881 641.638 362.783 641.708 362.643 641.708H362.013C361.911 641.708 361.831 641.68 361.775 641.624C361.729 641.559 361.705 641.484 361.705 641.4C361.705 641.26 361.757 641.087 361.859 640.882C361.971 640.677 362.139 640.476 362.363 640.28C362.587 640.084 362.872 639.921 363.217 639.79C363.572 639.65 364.001 639.58 364.505 639.58C365.065 639.58 365.537 639.655 365.919 639.804C366.302 639.944 366.601 640.135 366.815 640.378C367.039 640.621 367.198 640.896 367.291 641.204C367.394 641.512 367.445 641.825 367.445 642.142V646.678C367.445 646.771 367.413 646.851 367.347 646.916C367.291 646.972 367.217 647 367.123 647H366.479C366.377 647 366.297 646.972 366.241 646.916C366.185 646.851 366.157 646.771 366.157 646.678V646.076C366.036 646.244 365.873 646.412 365.667 646.58C365.462 646.739 365.205 646.874 364.897 646.986C364.589 647.089 364.211 647.14 363.763 647.14ZM364.057 646.09C364.44 646.09 364.79 646.011 365.107 645.852C365.425 645.684 365.672 645.427 365.849 645.082C366.036 644.737 366.129 644.303 366.129 643.78V643.388L364.505 643.626C363.843 643.719 363.343 643.878 363.007 644.102C362.671 644.317 362.503 644.592 362.503 644.928C362.503 645.189 362.578 645.409 362.727 645.586C362.886 645.754 363.082 645.88 363.315 645.964C363.558 646.048 363.805 646.09 364.057 646.09ZM372.232 647C371.709 647 371.284 646.902 370.958 646.706C370.631 646.501 370.393 646.216 370.244 645.852C370.094 645.479 370.02 645.04 370.02 644.536V640.84H368.928C368.834 640.84 368.755 640.812 368.69 640.756C368.634 640.691 368.606 640.611 368.606 640.518V640.042C368.606 639.949 368.634 639.874 368.69 639.818C368.755 639.753 368.834 639.72 368.928 639.72H370.02V637.382C370.02 637.289 370.048 637.214 370.104 637.158C370.169 637.093 370.248 637.06 370.342 637.06H371C371.093 637.06 371.168 637.093 371.224 637.158C371.289 637.214 371.322 637.289 371.322 637.382V639.72H373.058C373.151 639.72 373.226 639.753 373.282 639.818C373.347 639.874 373.38 639.949 373.38 640.042V640.518C373.38 640.611 373.347 640.691 373.282 640.756C373.226 640.812 373.151 640.84 373.058 640.84H371.322V644.438C371.322 644.877 371.396 645.222 371.546 645.474C371.695 645.726 371.961 645.852 372.344 645.852H373.198C373.291 645.852 373.366 645.885 373.422 645.95C373.487 646.006 373.52 646.081 373.52 646.174V646.678C373.52 646.771 373.487 646.851 373.422 646.916C373.366 646.972 373.291 647 373.198 647H372.232Z" fill="#29292B"/>
<rect opacity="0.05" x="242" y="574" width="200" height="36" rx="18" fill="black"/>
<path d="M317.392 596C317.299 596 317.22 595.972 317.154 595.916C317.098 595.851 317.07 595.771 317.07 595.678V592.374L313.696 586.662C313.687 586.634 313.678 586.606 313.668 586.578C313.659 586.55 313.654 586.517 313.654 586.48C313.654 586.405 313.682 586.34 313.738 586.284C313.794 586.228 313.86 586.2 313.934 586.2H314.662C314.746 586.2 314.821 586.223 314.886 586.27C314.952 586.307 314.998 586.363 315.026 586.438L317.756 590.974L320.486 586.438C320.533 586.363 320.584 586.307 320.64 586.27C320.706 586.223 320.78 586.2 320.864 586.2H321.578C321.662 586.2 321.732 586.228 321.788 586.284C321.844 586.34 321.872 586.405 321.872 586.48C321.872 586.517 321.868 586.55 321.858 586.578C321.849 586.606 321.835 586.634 321.816 586.662L318.456 592.374V595.678C318.456 595.771 318.424 595.851 318.358 595.916C318.302 595.972 318.223 596 318.12 596H317.392ZM325.141 596.14C324.432 596.14 323.839 596.005 323.363 595.734C322.887 595.463 322.523 595.09 322.271 594.614C322.019 594.129 321.879 593.578 321.851 592.962C321.842 592.803 321.837 592.603 321.837 592.36C321.837 592.108 321.842 591.907 321.851 591.758C321.879 591.133 322.019 590.582 322.271 590.106C322.532 589.63 322.901 589.257 323.377 588.986C323.853 588.715 324.441 588.58 325.141 588.58C325.841 588.58 326.429 588.715 326.905 588.986C327.381 589.257 327.745 589.63 327.997 590.106C328.258 590.582 328.403 591.133 328.431 591.758C328.44 591.907 328.445 592.108 328.445 592.36C328.445 592.603 328.44 592.803 328.431 592.962C328.403 593.578 328.263 594.129 328.011 594.614C327.759 595.09 327.395 595.463 326.919 595.734C326.443 596.005 325.85 596.14 325.141 596.14ZM325.141 595.062C325.72 595.062 326.182 594.88 326.527 594.516C326.872 594.143 327.059 593.601 327.087 592.892C327.096 592.752 327.101 592.575 327.101 592.36C327.101 592.145 327.096 591.968 327.087 591.828C327.059 591.119 326.872 590.582 326.527 590.218C326.182 589.845 325.72 589.658 325.141 589.658C324.562 589.658 324.096 589.845 323.741 590.218C323.396 590.582 323.214 591.119 323.195 591.828C323.186 591.968 323.181 592.145 323.181 592.36C323.181 592.575 323.186 592.752 323.195 592.892C323.214 593.601 323.396 594.143 323.741 594.516C324.096 594.88 324.562 595.062 325.141 595.062ZM332.914 596.14C332.317 596.14 331.808 596.009 331.388 595.748C330.977 595.477 330.665 595.104 330.45 594.628C330.235 594.152 330.128 593.606 330.128 592.99V589.042C330.128 588.949 330.156 588.874 330.212 588.818C330.277 588.753 330.357 588.72 330.45 588.72H331.15C331.243 588.72 331.318 588.753 331.374 588.818C331.439 588.874 331.472 588.949 331.472 589.042V592.92C331.472 594.311 332.079 595.006 333.292 595.006C333.871 595.006 334.333 594.824 334.678 594.46C335.033 594.087 335.21 593.573 335.21 592.92V589.042C335.21 588.949 335.238 588.874 335.294 588.818C335.359 588.753 335.439 588.72 335.532 588.72H336.218C336.321 588.72 336.4 588.753 336.456 588.818C336.512 588.874 336.54 588.949 336.54 589.042V595.678C336.54 595.771 336.512 595.851 336.456 595.916C336.4 595.972 336.321 596 336.218 596H335.574C335.481 596 335.401 595.972 335.336 595.916C335.28 595.851 335.252 595.771 335.252 595.678V595.062C335 595.389 334.692 595.65 334.328 595.846C333.973 596.042 333.502 596.14 332.914 596.14ZM344.593 596C344.07 596 343.646 595.902 343.319 595.706C342.992 595.501 342.754 595.216 342.605 594.852C342.456 594.479 342.381 594.04 342.381 593.536V589.84H341.289C341.196 589.84 341.116 589.812 341.051 589.756C340.995 589.691 340.967 589.611 340.967 589.518V589.042C340.967 588.949 340.995 588.874 341.051 588.818C341.116 588.753 341.196 588.72 341.289 588.72H342.381V586.382C342.381 586.289 342.409 586.214 342.465 586.158C342.53 586.093 342.61 586.06 342.703 586.06H343.361C343.454 586.06 343.529 586.093 343.585 586.158C343.65 586.214 343.683 586.289 343.683 586.382V588.72H345.419C345.512 588.72 345.587 588.753 345.643 588.818C345.708 588.874 345.741 588.949 345.741 589.042V589.518C345.741 589.611 345.708 589.691 345.643 589.756C345.587 589.812 345.512 589.84 345.419 589.84H343.683V593.438C343.683 593.877 343.758 594.222 343.907 594.474C344.056 594.726 344.322 594.852 344.705 594.852H345.559C345.652 594.852 345.727 594.885 345.783 594.95C345.848 595.006 345.881 595.081 345.881 595.174V595.678C345.881 595.771 345.848 595.851 345.783 595.916C345.727 595.972 345.652 596 345.559 596H344.593ZM349.936 596.14C349.338 596.14 348.83 596.009 348.41 595.748C347.999 595.477 347.686 595.104 347.472 594.628C347.257 594.152 347.15 593.606 347.15 592.99V589.042C347.15 588.949 347.178 588.874 347.234 588.818C347.299 588.753 347.378 588.72 347.472 588.72H348.172C348.265 588.72 348.34 588.753 348.396 588.818C348.461 588.874 348.494 588.949 348.494 589.042V592.92C348.494 594.311 349.1 595.006 350.314 595.006C350.892 595.006 351.354 594.824 351.7 594.46C352.054 594.087 352.232 593.573 352.232 592.92V589.042C352.232 588.949 352.26 588.874 352.316 588.818C352.381 588.753 352.46 588.72 352.554 588.72H353.24C353.342 588.72 353.422 588.753 353.478 588.818C353.534 588.874 353.562 588.949 353.562 589.042V595.678C353.562 595.771 353.534 595.851 353.478 595.916C353.422 595.972 353.342 596 353.24 596H352.596C352.502 596 352.423 595.972 352.358 595.916C352.302 595.851 352.274 595.771 352.274 595.678V595.062C352.022 595.389 351.714 595.65 351.35 595.846C350.995 596.042 350.524 596.14 349.936 596.14ZM359.239 596.14C358.679 596.14 358.213 596.042 357.839 595.846C357.466 595.641 357.167 595.389 356.943 595.09V595.678C356.943 595.771 356.911 595.851 356.845 595.916C356.789 595.972 356.715 596 356.621 596H355.977C355.884 596 355.805 595.972 355.739 595.916C355.683 595.851 355.655 595.771 355.655 595.678V586.382C355.655 586.289 355.683 586.214 355.739 586.158C355.805 586.093 355.884 586.06 355.977 586.06H356.649C356.752 586.06 356.831 586.093 356.887 586.158C356.943 586.214 356.971 586.289 356.971 586.382V589.602C357.205 589.313 357.503 589.07 357.867 588.874C358.241 588.678 358.698 588.58 359.239 588.58C359.762 588.58 360.205 588.673 360.569 588.86C360.943 589.037 361.246 589.285 361.479 589.602C361.722 589.919 361.904 590.279 362.025 590.68C362.147 591.081 362.212 591.501 362.221 591.94C362.231 592.089 362.235 592.229 362.235 592.36C362.235 592.491 362.231 592.631 362.221 592.78C362.212 593.228 362.147 593.653 362.025 594.054C361.904 594.455 361.722 594.815 361.479 595.132C361.246 595.44 360.943 595.687 360.569 595.874C360.205 596.051 359.762 596.14 359.239 596.14ZM358.945 595.006C359.431 595.006 359.809 594.903 360.079 594.698C360.359 594.483 360.56 594.208 360.681 593.872C360.803 593.527 360.873 593.158 360.891 592.766C360.901 592.495 360.901 592.225 360.891 591.954C360.873 591.562 360.803 591.198 360.681 590.862C360.56 590.517 360.359 590.241 360.079 590.036C359.809 589.821 359.431 589.714 358.945 589.714C358.507 589.714 358.143 589.817 357.853 590.022C357.564 590.227 357.345 590.489 357.195 590.806C357.055 591.123 356.981 591.445 356.971 591.772C356.962 591.921 356.957 592.103 356.957 592.318C356.957 592.523 356.962 592.701 356.971 592.85C356.99 593.195 357.065 593.536 357.195 593.872C357.335 594.199 357.545 594.469 357.825 594.684C358.115 594.899 358.488 595.006 358.945 595.006ZM366.866 596.14C365.904 596.14 365.139 595.846 364.57 595.258C364 594.661 363.688 593.849 363.632 592.822C363.622 592.701 363.618 592.547 363.618 592.36C363.618 592.164 363.622 592.005 363.632 591.884C363.669 591.221 363.823 590.643 364.094 590.148C364.364 589.644 364.733 589.257 365.2 588.986C365.676 588.715 366.231 588.58 366.866 588.58C367.575 588.58 368.168 588.729 368.644 589.028C369.129 589.327 369.498 589.751 369.75 590.302C370.002 590.853 370.128 591.497 370.128 592.234V592.472C370.128 592.575 370.095 592.654 370.03 592.71C369.974 592.766 369.899 592.794 369.806 592.794H364.962C364.962 592.803 364.962 592.822 364.962 592.85C364.962 592.878 364.962 592.901 364.962 592.92C364.98 593.303 365.064 593.662 365.214 593.998C365.363 594.325 365.578 594.591 365.858 594.796C366.138 595.001 366.474 595.104 366.866 595.104C367.202 595.104 367.482 595.053 367.706 594.95C367.93 594.847 368.112 594.735 368.252 594.614C368.392 594.483 368.485 594.385 368.532 594.32C368.616 594.199 368.681 594.129 368.728 594.11C368.774 594.082 368.849 594.068 368.952 594.068H369.624C369.717 594.068 369.792 594.096 369.848 594.152C369.913 594.199 369.941 594.269 369.932 594.362C369.922 594.502 369.848 594.675 369.708 594.88C369.568 595.076 369.367 595.272 369.106 595.468C368.844 595.664 368.527 595.827 368.154 595.958C367.78 596.079 367.351 596.14 366.866 596.14ZM364.962 591.828H368.798V591.786C368.798 591.366 368.718 590.993 368.56 590.666C368.41 590.339 368.191 590.083 367.902 589.896C367.612 589.7 367.267 589.602 366.866 589.602C366.464 589.602 366.119 589.7 365.83 589.896C365.55 590.083 365.335 590.339 365.186 590.666C365.036 590.993 364.962 591.366 364.962 591.786V591.828Z" fill="#29292B"/>
<rect opacity="0.05" x="242" y="523" width="200" height="36" rx="18" fill="black"/>
<path d="M312.704 545C312.601 545 312.522 544.972 312.466 544.916C312.41 544.851 312.382 544.771 312.382 544.678V535.536C312.382 535.433 312.41 535.354 312.466 535.298C312.522 535.233 312.601 535.2 312.704 535.2H318.416C318.519 535.2 318.598 535.233 318.654 535.298C318.71 535.354 318.738 535.433 318.738 535.536V536.096C318.738 536.199 318.71 536.278 318.654 536.334C318.598 536.39 318.519 536.418 318.416 536.418H313.74V539.68H318.136C318.239 539.68 318.318 539.713 318.374 539.778C318.43 539.834 318.458 539.913 318.458 540.016V540.576C318.458 540.669 318.43 540.749 318.374 540.814C318.318 540.87 318.239 540.898 318.136 540.898H313.74V544.678C313.74 544.771 313.707 544.851 313.642 544.916C313.586 544.972 313.507 545 313.404 545H312.704ZM321.996 545.14C321.529 545.14 321.104 545.047 320.722 544.86C320.339 544.673 320.031 544.421 319.798 544.104C319.564 543.787 319.448 543.427 319.448 543.026C319.448 542.382 319.709 541.869 320.232 541.486C320.754 541.103 321.436 540.851 322.276 540.73L324.362 540.436V540.03C324.362 539.582 324.231 539.232 323.97 538.98C323.718 538.728 323.302 538.602 322.724 538.602C322.304 538.602 321.963 538.686 321.702 538.854C321.45 539.022 321.272 539.237 321.17 539.498C321.114 539.638 321.016 539.708 320.876 539.708H320.246C320.143 539.708 320.064 539.68 320.008 539.624C319.961 539.559 319.938 539.484 319.938 539.4C319.938 539.26 319.989 539.087 320.092 538.882C320.204 538.677 320.372 538.476 320.596 538.28C320.82 538.084 321.104 537.921 321.45 537.79C321.804 537.65 322.234 537.58 322.738 537.58C323.298 537.58 323.769 537.655 324.152 537.804C324.534 537.944 324.833 538.135 325.048 538.378C325.272 538.621 325.43 538.896 325.524 539.204C325.626 539.512 325.678 539.825 325.678 540.142V544.678C325.678 544.771 325.645 544.851 325.58 544.916C325.524 544.972 325.449 545 325.356 545H324.712C324.609 545 324.53 544.972 324.474 544.916C324.418 544.851 324.39 544.771 324.39 544.678V544.076C324.268 544.244 324.105 544.412 323.9 544.58C323.694 544.739 323.438 544.874 323.13 544.986C322.822 545.089 322.444 545.14 321.996 545.14ZM322.29 544.09C322.672 544.09 323.022 544.011 323.34 543.852C323.657 543.684 323.904 543.427 324.082 543.082C324.268 542.737 324.362 542.303 324.362 541.78V541.388L322.738 541.626C322.075 541.719 321.576 541.878 321.24 542.102C320.904 542.317 320.736 542.592 320.736 542.928C320.736 543.189 320.81 543.409 320.96 543.586C321.118 543.754 321.314 543.88 321.548 543.964C321.79 544.048 322.038 544.09 322.29 544.09ZM330.63 545.14C329.968 545.14 329.394 545.014 328.908 544.762C328.432 544.501 328.064 544.132 327.802 543.656C327.541 543.171 327.401 542.592 327.382 541.92C327.373 541.78 327.368 541.593 327.368 541.36C327.368 541.127 327.373 540.94 327.382 540.8C327.401 540.128 327.541 539.554 327.802 539.078C328.064 538.593 328.432 538.224 328.908 537.972C329.394 537.711 329.968 537.58 330.63 537.58C331.172 537.58 331.634 537.655 332.016 537.804C332.408 537.953 332.73 538.145 332.982 538.378C333.234 538.611 333.421 538.863 333.542 539.134C333.673 539.405 333.743 539.661 333.752 539.904C333.762 539.997 333.734 540.072 333.668 540.128C333.603 540.184 333.524 540.212 333.43 540.212H332.758C332.665 540.212 332.595 540.193 332.548 540.156C332.502 540.109 332.455 540.035 332.408 539.932C332.24 539.475 332.012 539.153 331.722 538.966C331.433 538.779 331.074 538.686 330.644 538.686C330.084 538.686 329.627 538.859 329.272 539.204C328.927 539.549 328.74 540.105 328.712 540.87C328.703 541.206 328.703 541.533 328.712 541.85C328.74 542.625 328.927 543.185 329.272 543.53C329.627 543.866 330.084 544.034 330.644 544.034C331.074 544.034 331.433 543.941 331.722 543.754C332.012 543.567 332.24 543.245 332.408 542.788C332.455 542.685 332.502 542.615 332.548 542.578C332.595 542.531 332.665 542.508 332.758 542.508H333.43C333.524 542.508 333.603 542.536 333.668 542.592C333.734 542.648 333.762 542.723 333.752 542.816C333.743 543.012 333.701 543.213 333.626 543.418C333.552 543.623 333.43 543.833 333.262 544.048C333.104 544.253 332.903 544.44 332.66 544.608C332.418 544.767 332.124 544.897 331.778 545C331.442 545.093 331.06 545.14 330.63 545.14ZM338.313 545.14C337.352 545.14 336.586 544.846 336.017 544.258C335.448 543.661 335.135 542.849 335.079 541.822C335.07 541.701 335.065 541.547 335.065 541.36C335.065 541.164 335.07 541.005 335.079 540.884C335.116 540.221 335.27 539.643 335.541 539.148C335.812 538.644 336.18 538.257 336.647 537.986C337.123 537.715 337.678 537.58 338.313 537.58C339.022 537.58 339.615 537.729 340.091 538.028C340.576 538.327 340.945 538.751 341.197 539.302C341.449 539.853 341.575 540.497 341.575 541.234V541.472C341.575 541.575 341.542 541.654 341.477 541.71C341.421 541.766 341.346 541.794 341.253 541.794H336.409C336.409 541.803 336.409 541.822 336.409 541.85C336.409 541.878 336.409 541.901 336.409 541.92C336.428 542.303 336.512 542.662 336.661 542.998C336.81 543.325 337.025 543.591 337.305 543.796C337.585 544.001 337.921 544.104 338.313 544.104C338.649 544.104 338.929 544.053 339.153 543.95C339.377 543.847 339.559 543.735 339.699 543.614C339.839 543.483 339.932 543.385 339.979 543.32C340.063 543.199 340.128 543.129 340.175 543.11C340.222 543.082 340.296 543.068 340.399 543.068H341.071C341.164 543.068 341.239 543.096 341.295 543.152C341.36 543.199 341.388 543.269 341.379 543.362C341.37 543.502 341.295 543.675 341.155 543.88C341.015 544.076 340.814 544.272 340.553 544.468C340.292 544.664 339.974 544.827 339.601 544.958C339.228 545.079 338.798 545.14 338.313 545.14ZM336.409 540.828H340.245V540.786C340.245 540.366 340.166 539.993 340.007 539.666C339.858 539.339 339.638 539.083 339.349 538.896C339.06 538.7 338.714 538.602 338.313 538.602C337.912 538.602 337.566 538.7 337.277 538.896C336.997 539.083 336.782 539.339 336.633 539.666C336.484 539.993 336.409 540.366 336.409 540.786V540.828ZM346.847 545.14C346.287 545.14 345.82 545.042 345.447 544.846C345.074 544.641 344.775 544.389 344.551 544.09V544.678C344.551 544.771 344.518 544.851 344.453 544.916C344.397 544.972 344.322 545 344.229 545H343.585C343.492 545 343.412 544.972 343.347 544.916C343.291 544.851 343.263 544.771 343.263 544.678V535.382C343.263 535.289 343.291 535.214 343.347 535.158C343.412 535.093 343.492 535.06 343.585 535.06H344.257C344.36 535.06 344.439 535.093 344.495 535.158C344.551 535.214 344.579 535.289 344.579 535.382V538.602C344.812 538.313 345.111 538.07 345.475 537.874C345.848 537.678 346.306 537.58 346.847 537.58C347.37 537.58 347.813 537.673 348.177 537.86C348.55 538.037 348.854 538.285 349.087 538.602C349.33 538.919 349.512 539.279 349.633 539.68C349.754 540.081 349.82 540.501 349.829 540.94C349.838 541.089 349.843 541.229 349.843 541.36C349.843 541.491 349.838 541.631 349.829 541.78C349.82 542.228 349.754 542.653 349.633 543.054C349.512 543.455 349.33 543.815 349.087 544.132C348.854 544.44 348.55 544.687 348.177 544.874C347.813 545.051 347.37 545.14 346.847 545.14ZM346.553 544.006C347.038 544.006 347.416 543.903 347.687 543.698C347.967 543.483 348.168 543.208 348.289 542.872C348.41 542.527 348.48 542.158 348.499 541.766C348.508 541.495 348.508 541.225 348.499 540.954C348.48 540.562 348.41 540.198 348.289 539.862C348.168 539.517 347.967 539.241 347.687 539.036C347.416 538.821 347.038 538.714 346.553 538.714C346.114 538.714 345.75 538.817 345.461 539.022C345.172 539.227 344.952 539.489 344.803 539.806C344.663 540.123 344.588 540.445 344.579 540.772C344.57 540.921 344.565 541.103 344.565 541.318C344.565 541.523 344.57 541.701 344.579 541.85C344.598 542.195 344.672 542.536 344.803 542.872C344.943 543.199 345.153 543.469 345.433 543.684C345.722 543.899 346.096 544.006 346.553 544.006ZM354.557 545.14C353.848 545.14 353.255 545.005 352.779 544.734C352.303 544.463 351.939 544.09 351.687 543.614C351.435 543.129 351.295 542.578 351.267 541.962C351.258 541.803 351.253 541.603 351.253 541.36C351.253 541.108 351.258 540.907 351.267 540.758C351.295 540.133 351.435 539.582 351.687 539.106C351.948 538.63 352.317 538.257 352.793 537.986C353.269 537.715 353.857 537.58 354.557 537.58C355.257 537.58 355.845 537.715 356.321 537.986C356.797 538.257 357.161 538.63 357.413 539.106C357.674 539.582 357.819 540.133 357.847 540.758C357.856 540.907 357.861 541.108 357.861 541.36C357.861 541.603 357.856 541.803 357.847 541.962C357.819 542.578 357.679 543.129 357.427 543.614C357.175 544.09 356.811 544.463 356.335 544.734C355.859 545.005 355.266 545.14 354.557 545.14ZM354.557 544.062C355.136 544.062 355.598 543.88 355.943 543.516C356.288 543.143 356.475 542.601 356.503 541.892C356.512 541.752 356.517 541.575 356.517 541.36C356.517 541.145 356.512 540.968 356.503 540.828C356.475 540.119 356.288 539.582 355.943 539.218C355.598 538.845 355.136 538.658 354.557 538.658C353.978 538.658 353.512 538.845 353.157 539.218C352.812 539.582 352.63 540.119 352.611 540.828C352.602 540.968 352.597 541.145 352.597 541.36C352.597 541.575 352.602 541.752 352.611 541.892C352.63 542.601 352.812 543.143 353.157 543.516C353.512 543.88 353.978 544.062 354.557 544.062ZM362.596 545.14C361.887 545.14 361.294 545.005 360.818 544.734C360.342 544.463 359.978 544.09 359.726 543.614C359.474 543.129 359.334 542.578 359.306 541.962C359.297 541.803 359.292 541.603 359.292 541.36C359.292 541.108 359.297 540.907 359.306 540.758C359.334 540.133 359.474 539.582 359.726 539.106C359.987 538.63 360.356 538.257 360.832 537.986C361.308 537.715 361.896 537.58 362.596 537.58C363.296 537.58 363.884 537.715 364.36 537.986C364.836 538.257 365.2 538.63 365.452 539.106C365.713 539.582 365.858 540.133 365.886 540.758C365.895 540.907 365.9 541.108 365.9 541.36C365.9 541.603 365.895 541.803 365.886 541.962C365.858 542.578 365.718 543.129 365.466 543.614C365.214 544.09 364.85 544.463 364.374 544.734C363.898 545.005 363.305 545.14 362.596 545.14ZM362.596 544.062C363.175 544.062 363.637 543.88 363.982 543.516C364.327 543.143 364.514 542.601 364.542 541.892C364.551 541.752 364.556 541.575 364.556 541.36C364.556 541.145 364.551 540.968 364.542 540.828C364.514 540.119 364.327 539.582 363.982 539.218C363.637 538.845 363.175 538.658 362.596 538.658C362.017 538.658 361.551 538.845 361.196 539.218C360.851 539.582 360.669 540.119 360.65 540.828C360.641 540.968 360.636 541.145 360.636 541.36C360.636 541.575 360.641 541.752 360.65 541.892C360.669 542.601 360.851 543.143 361.196 543.516C361.551 543.88 362.017 544.062 362.596 544.062ZM367.989 545C367.896 545 367.817 544.972 367.751 544.916C367.695 544.851 367.667 544.771 367.667 544.678V535.382C367.667 535.289 367.695 535.214 367.751 535.158C367.817 535.093 367.896 535.06 367.989 535.06H368.647C368.741 535.06 368.815 535.093 368.871 535.158C368.937 535.214 368.969 535.289 368.969 535.382V540.254L371.727 537.958C371.839 537.865 371.923 537.804 371.979 537.776C372.045 537.739 372.147 537.72 372.287 537.72H373.029C373.113 537.72 373.183 537.748 373.239 537.804C373.295 537.86 373.323 537.93 373.323 538.014C373.323 538.051 373.309 538.093 373.281 538.14C373.263 538.187 373.221 538.233 373.155 538.28L369.921 540.968L373.505 544.454C373.617 544.547 373.673 544.631 373.673 544.706C373.673 544.79 373.645 544.86 373.589 544.916C373.533 544.972 373.463 545 373.379 545H372.651C372.511 545 372.409 544.986 372.343 544.958C372.278 544.921 372.194 544.855 372.091 544.762L368.969 541.78V544.678C368.969 544.771 368.937 544.851 368.871 544.916C368.815 544.972 368.741 545 368.647 545H367.989Z" fill="#29292B"/>
<rect opacity="0.05" x="242" y="472" width="200" height="36" rx="18" fill="black"/>
<path d="M310.858 494C310.756 494 310.676 493.972 310.62 493.916C310.564 493.851 310.536 493.771 310.536 493.678V484.522C310.536 484.429 310.564 484.354 310.62 484.298C310.676 484.233 310.756 484.2 310.858 484.2H311.6C311.694 484.2 311.768 484.233 311.824 484.298C311.89 484.354 311.922 484.429 311.922 484.522V493.678C311.922 493.771 311.89 493.851 311.824 493.916C311.768 493.972 311.694 494 311.6 494H310.858ZM314.504 494C314.411 494 314.332 493.972 314.266 493.916C314.21 493.851 314.182 493.771 314.182 493.678V487.042C314.182 486.949 314.21 486.874 314.266 486.818C314.332 486.753 314.411 486.72 314.504 486.72H315.162C315.256 486.72 315.33 486.753 315.386 486.818C315.452 486.874 315.484 486.949 315.484 487.042V487.658C315.727 487.341 316.03 487.084 316.394 486.888C316.768 486.683 317.244 486.58 317.822 486.58C318.429 486.58 318.942 486.715 319.362 486.986C319.792 487.247 320.114 487.616 320.328 488.092C320.543 488.559 320.65 489.105 320.65 489.73V493.678C320.65 493.771 320.622 493.851 320.566 493.916C320.51 493.972 320.436 494 320.342 494H319.642C319.549 494 319.47 493.972 319.404 493.916C319.348 493.851 319.32 493.771 319.32 493.678V489.8C319.32 489.147 319.162 488.638 318.844 488.274C318.527 487.901 318.06 487.714 317.444 487.714C316.866 487.714 316.399 487.901 316.044 488.274C315.699 488.638 315.526 489.147 315.526 489.8V493.678C315.526 493.771 315.494 493.851 315.428 493.916C315.372 493.972 315.298 494 315.204 494H314.504ZM325.193 494.14C324.67 494.14 324.222 494.075 323.849 493.944C323.475 493.813 323.172 493.655 322.939 493.468C322.705 493.281 322.528 493.095 322.407 492.908C322.295 492.721 322.234 492.572 322.225 492.46C322.215 492.357 322.248 492.278 322.323 492.222C322.397 492.166 322.472 492.138 322.547 492.138H323.163C323.219 492.138 323.261 492.147 323.289 492.166C323.326 492.175 323.373 492.213 323.429 492.278C323.55 492.409 323.685 492.539 323.835 492.67C323.984 492.801 324.166 492.908 324.381 492.992C324.605 493.076 324.88 493.118 325.207 493.118C325.683 493.118 326.075 493.029 326.383 492.852C326.691 492.665 326.845 492.395 326.845 492.04C326.845 491.807 326.779 491.62 326.649 491.48C326.527 491.34 326.303 491.214 325.977 491.102C325.659 490.99 325.221 490.873 324.661 490.752C324.101 490.621 323.657 490.463 323.331 490.276C323.004 490.08 322.771 489.851 322.631 489.59C322.491 489.319 322.421 489.016 322.421 488.68C322.421 488.335 322.523 488.003 322.729 487.686C322.934 487.359 323.233 487.093 323.625 486.888C324.026 486.683 324.525 486.58 325.123 486.58C325.608 486.58 326.023 486.641 326.369 486.762C326.714 486.883 326.999 487.037 327.223 487.224C327.447 487.401 327.615 487.579 327.727 487.756C327.839 487.933 327.899 488.083 327.909 488.204C327.918 488.297 327.89 488.377 327.825 488.442C327.759 488.498 327.685 488.526 327.601 488.526H327.013C326.947 488.526 326.891 488.512 326.845 488.484C326.807 488.456 326.77 488.423 326.733 488.386C326.639 488.265 326.527 488.143 326.397 488.022C326.275 487.901 326.112 487.803 325.907 487.728C325.711 487.644 325.449 487.602 325.123 487.602C324.656 487.602 324.306 487.7 324.073 487.896C323.839 488.092 323.723 488.339 323.723 488.638C323.723 488.815 323.774 488.974 323.877 489.114C323.979 489.254 324.175 489.38 324.465 489.492C324.754 489.604 325.183 489.725 325.753 489.856C326.369 489.977 326.854 490.141 327.209 490.346C327.563 490.551 327.815 490.789 327.965 491.06C328.114 491.331 328.189 491.643 328.189 491.998C328.189 492.39 328.072 492.749 327.839 493.076C327.615 493.403 327.279 493.664 326.831 493.86C326.392 494.047 325.846 494.14 325.193 494.14ZM332.638 494C332.115 494 331.69 493.902 331.364 493.706C331.037 493.501 330.799 493.216 330.65 492.852C330.5 492.479 330.426 492.04 330.426 491.536V487.84H329.334C329.24 487.84 329.161 487.812 329.096 487.756C329.04 487.691 329.012 487.611 329.012 487.518V487.042C329.012 486.949 329.04 486.874 329.096 486.818C329.161 486.753 329.24 486.72 329.334 486.72H330.426V484.382C330.426 484.289 330.454 484.214 330.51 484.158C330.575 484.093 330.654 484.06 330.748 484.06H331.406C331.499 484.06 331.574 484.093 331.63 484.158C331.695 484.214 331.728 484.289 331.728 484.382V486.72H333.464C333.557 486.72 333.632 486.753 333.688 486.818C333.753 486.874 333.786 486.949 333.786 487.042V487.518C333.786 487.611 333.753 487.691 333.688 487.756C333.632 487.812 333.557 487.84 333.464 487.84H331.728V491.438C331.728 491.877 331.802 492.222 331.952 492.474C332.101 492.726 332.367 492.852 332.75 492.852H333.604C333.697 492.852 333.772 492.885 333.828 492.95C333.893 493.006 333.926 493.081 333.926 493.174V493.678C333.926 493.771 333.893 493.851 333.828 493.916C333.772 493.972 333.697 494 333.604 494H332.638ZM337.295 494.14C336.828 494.14 336.403 494.047 336.021 493.86C335.638 493.673 335.33 493.421 335.097 493.104C334.863 492.787 334.747 492.427 334.747 492.026C334.747 491.382 335.008 490.869 335.531 490.486C336.053 490.103 336.735 489.851 337.575 489.73L339.661 489.436V489.03C339.661 488.582 339.53 488.232 339.269 487.98C339.017 487.728 338.601 487.602 338.023 487.602C337.603 487.602 337.262 487.686 337.001 487.854C336.749 488.022 336.571 488.237 336.469 488.498C336.413 488.638 336.315 488.708 336.175 488.708H335.545C335.442 488.708 335.363 488.68 335.307 488.624C335.26 488.559 335.237 488.484 335.237 488.4C335.237 488.26 335.288 488.087 335.391 487.882C335.503 487.677 335.671 487.476 335.895 487.28C336.119 487.084 336.403 486.921 336.749 486.79C337.103 486.65 337.533 486.58 338.037 486.58C338.597 486.58 339.068 486.655 339.451 486.804C339.833 486.944 340.132 487.135 340.347 487.378C340.571 487.621 340.729 487.896 340.823 488.204C340.925 488.512 340.977 488.825 340.977 489.142V493.678C340.977 493.771 340.944 493.851 340.879 493.916C340.823 493.972 340.748 494 340.655 494H340.011C339.908 494 339.829 493.972 339.773 493.916C339.717 493.851 339.689 493.771 339.689 493.678V493.076C339.567 493.244 339.404 493.412 339.199 493.58C338.993 493.739 338.737 493.874 338.429 493.986C338.121 494.089 337.743 494.14 337.295 494.14ZM337.589 493.09C337.971 493.09 338.321 493.011 338.639 492.852C338.956 492.684 339.203 492.427 339.381 492.082C339.567 491.737 339.661 491.303 339.661 490.78V490.388L338.037 490.626C337.374 490.719 336.875 490.878 336.539 491.102C336.203 491.317 336.035 491.592 336.035 491.928C336.035 492.189 336.109 492.409 336.259 492.586C336.417 492.754 336.613 492.88 336.847 492.964C337.089 493.048 337.337 493.09 337.589 493.09ZM345.971 497.08C345.336 497.08 344.814 496.996 344.403 496.828C344.002 496.66 343.684 496.455 343.451 496.212C343.227 495.979 343.064 495.741 342.961 495.498C342.868 495.265 342.816 495.078 342.807 494.938C342.798 494.845 342.826 494.765 342.891 494.7C342.966 494.635 343.045 494.602 343.129 494.602H343.801C343.885 494.602 343.955 494.621 344.011 494.658C344.067 494.695 344.114 494.775 344.151 494.896C344.207 495.036 344.291 495.19 344.403 495.358C344.515 495.535 344.688 495.685 344.921 495.806C345.154 495.937 345.481 496.002 345.901 496.002C346.34 496.002 346.708 495.941 347.007 495.82C347.306 495.708 347.53 495.503 347.679 495.204C347.838 494.915 347.917 494.513 347.917 494V493.048C347.693 493.337 347.399 493.58 347.035 493.776C346.671 493.963 346.214 494.056 345.663 494.056C345.14 494.056 344.692 493.967 344.319 493.79C343.946 493.603 343.638 493.356 343.395 493.048C343.162 492.731 342.984 492.371 342.863 491.97C342.751 491.569 342.686 491.149 342.667 490.71C342.658 490.449 342.658 490.192 342.667 489.94C342.686 489.501 342.751 489.081 342.863 488.68C342.984 488.279 343.162 487.919 343.395 487.602C343.638 487.285 343.946 487.037 344.319 486.86C344.692 486.673 345.14 486.58 345.663 486.58C346.223 486.58 346.685 486.687 347.049 486.902C347.422 487.107 347.726 487.359 347.959 487.658V487.056C347.959 486.963 347.987 486.883 348.043 486.818C348.108 486.753 348.188 486.72 348.281 486.72H348.925C349.018 486.72 349.098 486.753 349.163 486.818C349.228 486.883 349.261 486.963 349.261 487.056V493.846C349.261 494.471 349.154 495.027 348.939 495.512C348.734 495.997 348.388 496.38 347.903 496.66C347.427 496.94 346.783 497.08 345.971 497.08ZM345.943 492.936C346.41 492.936 346.783 492.829 347.063 492.614C347.352 492.399 347.562 492.129 347.693 491.802C347.833 491.475 347.908 491.144 347.917 490.808C347.926 490.677 347.931 490.519 347.931 490.332C347.931 490.136 347.926 489.973 347.917 489.842C347.908 489.506 347.833 489.175 347.693 488.848C347.562 488.521 347.352 488.251 347.063 488.036C346.783 487.821 346.41 487.714 345.943 487.714C345.476 487.714 345.103 487.821 344.823 488.036C344.543 488.241 344.342 488.517 344.221 488.862C344.1 489.198 344.03 489.562 344.011 489.954C344.002 490.197 344.002 490.444 344.011 490.696C344.03 491.088 344.1 491.457 344.221 491.802C344.342 492.138 344.543 492.413 344.823 492.628C345.103 492.833 345.476 492.936 345.943 492.936ZM351.665 494C351.571 494 351.492 493.972 351.427 493.916C351.371 493.851 351.343 493.771 351.343 493.678V487.056C351.343 486.963 351.371 486.883 351.427 486.818C351.492 486.753 351.571 486.72 351.665 486.72H352.309C352.402 486.72 352.481 486.753 352.547 486.818C352.612 486.883 352.645 486.963 352.645 487.056V487.672C352.831 487.355 353.088 487.117 353.415 486.958C353.741 486.799 354.133 486.72 354.591 486.72H355.151C355.244 486.72 355.319 486.753 355.375 486.818C355.431 486.874 355.459 486.949 355.459 487.042V487.616C355.459 487.709 355.431 487.784 355.375 487.84C355.319 487.896 355.244 487.924 355.151 487.924H354.311C353.807 487.924 353.41 488.073 353.121 488.372C352.831 488.661 352.687 489.058 352.687 489.562V493.678C352.687 493.771 352.654 493.851 352.589 493.916C352.523 493.972 352.444 494 352.351 494H351.665ZM358.582 494.14C358.115 494.14 357.69 494.047 357.308 493.86C356.925 493.673 356.617 493.421 356.384 493.104C356.15 492.787 356.034 492.427 356.034 492.026C356.034 491.382 356.295 490.869 356.818 490.486C357.34 490.103 358.022 489.851 358.862 489.73L360.948 489.436V489.03C360.948 488.582 360.817 488.232 360.556 487.98C360.304 487.728 359.888 487.602 359.31 487.602C358.89 487.602 358.549 487.686 358.288 487.854C358.036 488.022 357.858 488.237 357.756 488.498C357.7 488.638 357.602 488.708 357.462 488.708H356.832C356.729 488.708 356.65 488.68 356.594 488.624C356.547 488.559 356.524 488.484 356.524 488.4C356.524 488.26 356.575 488.087 356.678 487.882C356.79 487.677 356.958 487.476 357.182 487.28C357.406 487.084 357.69 486.921 358.036 486.79C358.39 486.65 358.82 486.58 359.324 486.58C359.884 486.58 360.355 486.655 360.738 486.804C361.12 486.944 361.419 487.135 361.634 487.378C361.858 487.621 362.016 487.896 362.11 488.204C362.212 488.512 362.264 488.825 362.264 489.142V493.678C362.264 493.771 362.231 493.851 362.166 493.916C362.11 493.972 362.035 494 361.942 494H361.298C361.195 494 361.116 493.972 361.06 493.916C361.004 493.851 360.976 493.771 360.976 493.678V493.076C360.854 493.244 360.691 493.412 360.486 493.58C360.28 493.739 360.024 493.874 359.716 493.986C359.408 494.089 359.03 494.14 358.582 494.14ZM358.876 493.09C359.258 493.09 359.608 493.011 359.926 492.852C360.243 492.684 360.49 492.427 360.668 492.082C360.854 491.737 360.948 491.303 360.948 490.78V490.388L359.324 490.626C358.661 490.719 358.162 490.878 357.826 491.102C357.49 491.317 357.322 491.592 357.322 491.928C357.322 492.189 357.396 492.409 357.546 492.586C357.704 492.754 357.9 492.88 358.134 492.964C358.376 493.048 358.624 493.09 358.876 493.09ZM364.598 494C364.505 494 364.426 493.972 364.36 493.916C364.304 493.851 364.276 493.771 364.276 493.678V487.042C364.276 486.949 364.304 486.874 364.36 486.818C364.426 486.753 364.505 486.72 364.598 486.72H365.228C365.322 486.72 365.396 486.753 365.452 486.818C365.518 486.874 365.55 486.949 365.55 487.042V487.532C365.765 487.243 366.036 487.014 366.362 486.846C366.689 486.669 367.081 486.58 367.538 486.58C368.593 486.571 369.34 487 369.778 487.868C369.993 487.476 370.306 487.163 370.716 486.93C371.127 486.697 371.594 486.58 372.116 486.58C372.602 486.58 373.04 486.692 373.432 486.916C373.834 487.14 374.146 487.481 374.37 487.938C374.604 488.386 374.72 488.951 374.72 489.632V493.678C374.72 493.771 374.688 493.851 374.622 493.916C374.566 493.972 374.492 494 374.398 494H373.74C373.647 494 373.568 493.972 373.502 493.916C373.446 493.851 373.418 493.771 373.418 493.678V489.758C373.418 489.235 373.344 488.825 373.194 488.526C373.045 488.227 372.844 488.017 372.592 487.896C372.34 487.775 372.065 487.714 371.766 487.714C371.524 487.714 371.276 487.775 371.024 487.896C370.772 488.017 370.562 488.227 370.394 488.526C370.236 488.825 370.156 489.235 370.156 489.758V493.678C370.156 493.771 370.124 493.851 370.058 493.916C370.002 493.972 369.928 494 369.834 494H369.176C369.083 494 369.004 493.972 368.938 493.916C368.882 493.851 368.854 493.771 368.854 493.678V489.758C368.854 489.235 368.775 488.825 368.616 488.526C368.458 488.227 368.252 488.017 368 487.896C367.748 487.775 367.482 487.714 367.202 487.714C366.96 487.714 366.712 487.775 366.46 487.896C366.208 488.017 365.998 488.227 365.83 488.526C365.672 488.825 365.592 489.231 365.592 489.744V493.678C365.592 493.771 365.56 493.851 365.494 493.916C365.438 493.972 365.364 494 365.27 494H364.598Z" fill="#29292B"/>
<path d="M297.584 416.417H297.592M288.834 412.667H297.167C299.468 412.667 301.334 414.532 301.334 416.833V425.167C301.334 427.468 299.468 429.333 297.167 429.333H288.834C286.532 429.333 284.667 427.468 284.667 425.167V416.833C284.667 414.532 286.532 412.667 288.834 412.667ZM296.334 420.475C296.437 421.169 296.318 421.877 295.995 422.499C295.672 423.122 295.161 423.626 294.535 423.941C293.909 424.257 293.199 424.366 292.507 424.255C291.815 424.144 291.175 423.817 290.679 423.321C290.184 422.825 289.857 422.186 289.745 421.494C289.634 420.801 289.744 420.092 290.059 419.465C290.374 418.839 290.879 418.328 291.501 418.005C292.123 417.682 292.832 417.564 293.525 417.667C294.233 417.772 294.888 418.101 295.393 418.607C295.899 419.113 296.229 419.768 296.334 420.475Z" stroke="white" stroke-linecap="round" stroke-linejoin="round"/>
<path d="M331 412.667H328.5C327.395 412.667 326.335 413.106 325.553 413.887C324.772 414.668 324.333 415.728 324.333 416.833V419.333H321.833V422.667H324.333V429.333H327.666V422.667H330.166L331 419.333H327.666V416.833C327.666 416.612 327.754 416.4 327.91 416.244C328.067 416.088 328.279 416 328.5 416H331V412.667Z" stroke="white" stroke-linecap="round" stroke-linejoin="round"/>
<path d="M351.083 425.167C350.501 422.419 350.501 419.581 351.083 416.833C351.16 416.554 351.307 416.3 351.512 416.096C351.716 415.891 351.971 415.743 352.25 415.667C356.719 414.926 361.28 414.926 365.75 415.667C366.029 415.743 366.283 415.891 366.488 416.096C366.692 416.3 366.84 416.554 366.916 416.833C367.499 419.581 367.499 422.419 366.916 425.167C366.84 425.446 366.692 425.7 366.488 425.904C366.283 426.109 366.029 426.257 365.75 426.333C361.28 427.074 356.719 427.074 352.25 426.333C351.971 426.257 351.716 426.109 351.512 425.904C351.307 425.7 351.16 425.446 351.083 425.167Z" stroke="white" stroke-linecap="round" stroke-linejoin="round"/>
<path d="M357.333 423.5L361.5 421L357.333 418.5V423.5Z" stroke="white" stroke-linecap="round" stroke-linejoin="round"/>
<path d="M400.334 414.333C400.334 414.333 399.75 416.083 398.667 417.167C400 425.5 390.834 431.583 383.667 426.833C385.5 426.917 387.334 426.333 388.667 425.167C384.5 423.917 382.417 419 384.5 415.167C386.334 417.333 389.167 418.583 392 418.5C391.25 415 395.334 413 397.834 415.333C398.75 415.333 400.334 414.333 400.334 414.333Z" stroke="white" stroke-linecap="round" stroke-linejoin="round"/>
<path d="M265.651 383C265.549 383 265.469 382.972 265.413 382.916C265.357 382.851 265.329 382.771 265.329 382.678V373.536C265.329 373.433 265.357 373.354 265.413 373.298C265.469 373.233 265.549 373.2 265.651 373.2H268.829C269.791 373.2 270.565 373.345 271.153 373.634C271.741 373.923 272.171 374.353 272.441 374.922C272.712 375.482 272.852 376.173 272.861 376.994C272.871 377.414 272.875 377.783 272.875 378.1C272.875 378.417 272.871 378.781 272.861 379.192C272.843 380.051 272.698 380.765 272.427 381.334C272.166 381.894 271.746 382.314 271.167 382.594C270.598 382.865 269.842 383 268.899 383H265.651ZM266.701 381.81H268.829C269.473 381.81 269.987 381.721 270.369 381.544C270.752 381.367 271.027 381.082 271.195 380.69C271.373 380.298 271.466 379.78 271.475 379.136C271.494 378.856 271.503 378.613 271.503 378.408C271.503 378.193 271.503 377.983 271.503 377.778C271.503 377.563 271.494 377.321 271.475 377.05C271.457 376.145 271.242 375.477 270.831 375.048C270.421 374.609 269.73 374.39 268.759 374.39H266.701V381.81ZM275.122 383C275.028 383 274.949 382.972 274.884 382.916C274.828 382.851 274.8 382.771 274.8 382.678V376.042C274.8 375.949 274.828 375.874 274.884 375.818C274.949 375.753 275.028 375.72 275.122 375.72H275.794C275.887 375.72 275.962 375.753 276.018 375.818C276.074 375.874 276.102 375.949 276.102 376.042V382.678C276.102 382.771 276.074 382.851 276.018 382.916C275.962 382.972 275.887 383 275.794 383H275.122ZM275.01 374.362C274.916 374.362 274.837 374.334 274.772 374.278C274.716 374.213 274.688 374.133 274.688 374.04V373.284C274.688 373.191 274.716 373.116 274.772 373.06C274.837 372.995 274.916 372.962 275.01 372.962H275.892C275.985 372.962 276.06 372.995 276.116 373.06C276.181 373.116 276.214 373.191 276.214 373.284V374.04C276.214 374.133 276.181 374.213 276.116 374.278C276.06 374.334 275.985 374.362 275.892 374.362H275.01ZM281.172 386.08C280.538 386.08 280.015 385.996 279.604 385.828C279.203 385.66 278.886 385.455 278.652 385.212C278.428 384.979 278.265 384.741 278.162 384.498C278.069 384.265 278.018 384.078 278.008 383.938C277.999 383.845 278.027 383.765 278.092 383.7C278.167 383.635 278.246 383.602 278.33 383.602H279.002C279.086 383.602 279.156 383.621 279.212 383.658C279.268 383.695 279.315 383.775 279.352 383.896C279.408 384.036 279.492 384.19 279.604 384.358C279.716 384.535 279.889 384.685 280.122 384.806C280.356 384.937 280.682 385.002 281.102 385.002C281.541 385.002 281.91 384.941 282.208 384.82C282.507 384.708 282.731 384.503 282.88 384.204C283.039 383.915 283.118 383.513 283.118 383V382.048C282.894 382.337 282.6 382.58 282.236 382.776C281.872 382.963 281.415 383.056 280.864 383.056C280.342 383.056 279.894 382.967 279.52 382.79C279.147 382.603 278.839 382.356 278.596 382.048C278.363 381.731 278.186 381.371 278.064 380.97C277.952 380.569 277.887 380.149 277.868 379.71C277.859 379.449 277.859 379.192 277.868 378.94C277.887 378.501 277.952 378.081 278.064 377.68C278.186 377.279 278.363 376.919 278.596 376.602C278.839 376.285 279.147 376.037 279.52 375.86C279.894 375.673 280.342 375.58 280.864 375.58C281.424 375.58 281.886 375.687 282.25 375.902C282.624 376.107 282.927 376.359 283.16 376.658V376.056C283.16 375.963 283.188 375.883 283.244 375.818C283.31 375.753 283.389 375.72 283.482 375.72H284.126C284.22 375.72 284.299 375.753 284.364 375.818C284.43 375.883 284.462 375.963 284.462 376.056V382.846C284.462 383.471 284.355 384.027 284.14 384.512C283.935 384.997 283.59 385.38 283.104 385.66C282.628 385.94 281.984 386.08 281.172 386.08ZM281.144 381.936C281.611 381.936 281.984 381.829 282.264 381.614C282.554 381.399 282.764 381.129 282.894 380.802C283.034 380.475 283.109 380.144 283.118 379.808C283.128 379.677 283.132 379.519 283.132 379.332C283.132 379.136 283.128 378.973 283.118 378.842C283.109 378.506 283.034 378.175 282.894 377.848C282.764 377.521 282.554 377.251 282.264 377.036C281.984 376.821 281.611 376.714 281.144 376.714C280.678 376.714 280.304 376.821 280.024 377.036C279.744 377.241 279.544 377.517 279.422 377.862C279.301 378.198 279.231 378.562 279.212 378.954C279.203 379.197 279.203 379.444 279.212 379.696C279.231 380.088 279.301 380.457 279.422 380.802C279.544 381.138 279.744 381.413 280.024 381.628C280.304 381.833 280.678 381.936 281.144 381.936ZM286.866 383C286.772 383 286.693 382.972 286.628 382.916C286.572 382.851 286.544 382.771 286.544 382.678V376.042C286.544 375.949 286.572 375.874 286.628 375.818C286.693 375.753 286.772 375.72 286.866 375.72H287.538C287.631 375.72 287.706 375.753 287.762 375.818C287.818 375.874 287.846 375.949 287.846 376.042V382.678C287.846 382.771 287.818 382.851 287.762 382.916C287.706 382.972 287.631 383 287.538 383H286.866ZM286.754 374.362C286.66 374.362 286.581 374.334 286.516 374.278C286.46 374.213 286.432 374.133 286.432 374.04V373.284C286.432 373.191 286.46 373.116 286.516 373.06C286.581 372.995 286.66 372.962 286.754 372.962H287.636C287.729 372.962 287.804 372.995 287.86 373.06C287.925 373.116 287.958 373.191 287.958 373.284V374.04C287.958 374.133 287.925 374.213 287.86 374.278C287.804 374.334 287.729 374.362 287.636 374.362H286.754ZM292.776 383C292.254 383 291.829 382.902 291.502 382.706C291.176 382.501 290.938 382.216 290.788 381.852C290.639 381.479 290.564 381.04 290.564 380.536V376.84H289.472C289.379 376.84 289.3 376.812 289.234 376.756C289.178 376.691 289.15 376.611 289.15 376.518V376.042C289.15 375.949 289.178 375.874 289.234 375.818C289.3 375.753 289.379 375.72 289.472 375.72H290.564V373.382C290.564 373.289 290.592 373.214 290.648 373.158C290.714 373.093 290.793 373.06 290.886 373.06H291.544C291.638 373.06 291.712 373.093 291.768 373.158C291.834 373.214 291.866 373.289 291.866 373.382V375.72H293.602C293.696 375.72 293.77 375.753 293.826 375.818C293.892 375.874 293.924 375.949 293.924 376.042V376.518C293.924 376.611 293.892 376.691 293.826 376.756C293.77 376.812 293.696 376.84 293.602 376.84H291.866V380.438C291.866 380.877 291.941 381.222 292.09 381.474C292.24 381.726 292.506 381.852 292.888 381.852H293.742C293.836 381.852 293.91 381.885 293.966 381.95C294.032 382.006 294.064 382.081 294.064 382.174V382.678C294.064 382.771 294.032 382.851 293.966 382.916C293.91 382.972 293.836 383 293.742 383H292.776ZM297.433 383.14C296.967 383.14 296.542 383.047 296.159 382.86C295.777 382.673 295.469 382.421 295.235 382.104C295.002 381.787 294.885 381.427 294.885 381.026C294.885 380.382 295.147 379.869 295.669 379.486C296.192 379.103 296.873 378.851 297.713 378.73L299.799 378.436V378.03C299.799 377.582 299.669 377.232 299.407 376.98C299.155 376.728 298.74 376.602 298.161 376.602C297.741 376.602 297.401 376.686 297.139 376.854C296.887 377.022 296.71 377.237 296.607 377.498C296.551 377.638 296.453 377.708 296.313 377.708H295.683C295.581 377.708 295.501 377.68 295.445 377.624C295.399 377.559 295.375 377.484 295.375 377.4C295.375 377.26 295.427 377.087 295.529 376.882C295.641 376.677 295.809 376.476 296.033 376.28C296.257 376.084 296.542 375.921 296.887 375.79C297.242 375.65 297.671 375.58 298.175 375.58C298.735 375.58 299.207 375.655 299.589 375.804C299.972 375.944 300.271 376.135 300.485 376.378C300.709 376.621 300.868 376.896 300.961 377.204C301.064 377.512 301.115 377.825 301.115 378.142V382.678C301.115 382.771 301.083 382.851 301.017 382.916C300.961 382.972 300.887 383 300.793 383H300.149C300.047 383 299.967 382.972 299.911 382.916C299.855 382.851 299.827 382.771 299.827 382.678V382.076C299.706 382.244 299.543 382.412 299.337 382.58C299.132 382.739 298.875 382.874 298.567 382.986C298.259 383.089 297.881 383.14 297.433 383.14ZM297.727 382.09C298.11 382.09 298.46 382.011 298.777 381.852C299.095 381.684 299.342 381.427 299.519 381.082C299.706 380.737 299.799 380.303 299.799 379.78V379.388L298.175 379.626C297.513 379.719 297.013 379.878 296.677 380.102C296.341 380.317 296.173 380.592 296.173 380.928C296.173 381.189 296.248 381.409 296.397 381.586C296.556 381.754 296.752 381.88 296.985 381.964C297.228 382.048 297.475 382.09 297.727 382.09ZM303.464 383C303.37 383 303.291 382.972 303.226 382.916C303.17 382.851 303.142 382.771 303.142 382.678V373.382C303.142 373.289 303.17 373.214 303.226 373.158C303.291 373.093 303.37 373.06 303.464 373.06H304.122C304.224 373.06 304.304 373.093 304.36 373.158C304.416 373.214 304.444 373.289 304.444 373.382V382.678C304.444 382.771 304.416 382.851 304.36 382.916C304.304 382.972 304.224 383 304.122 383H303.464ZM310.468 383C310.374 383 310.295 382.972 310.23 382.916C310.174 382.851 310.146 382.771 310.146 382.678V373.536C310.146 373.433 310.174 373.354 310.23 373.298C310.295 373.233 310.374 373.2 310.468 373.2H311.168C311.28 373.2 311.364 373.228 311.42 373.284C311.476 373.34 311.508 373.387 311.518 373.424L314.486 379.08L317.468 373.424C317.486 373.387 317.519 373.34 317.566 373.284C317.622 373.228 317.706 373.2 317.818 373.2H318.504C318.606 373.2 318.686 373.233 318.742 373.298C318.807 373.354 318.84 373.433 318.84 373.536V382.678C318.84 382.771 318.807 382.851 318.742 382.916C318.686 382.972 318.606 383 318.504 383H317.818C317.724 383 317.645 382.972 317.58 382.916C317.524 382.851 317.496 382.771 317.496 382.678V375.79L315.158 380.354C315.12 380.447 315.064 380.522 314.99 380.578C314.915 380.625 314.822 380.648 314.71 380.648H314.276C314.154 380.648 314.056 380.625 313.982 380.578C313.916 380.522 313.86 380.447 313.814 380.354L311.476 375.79V382.678C311.476 382.771 311.443 382.851 311.378 382.916C311.322 382.972 311.247 383 311.154 383H310.468ZM323.109 383.14C322.642 383.14 322.218 383.047 321.835 382.86C321.452 382.673 321.144 382.421 320.911 382.104C320.678 381.787 320.561 381.427 320.561 381.026C320.561 380.382 320.822 379.869 321.345 379.486C321.868 379.103 322.549 378.851 323.389 378.73L325.475 378.436V378.03C325.475 377.582 325.344 377.232 325.083 376.98C324.831 376.728 324.416 376.602 323.837 376.602C323.417 376.602 323.076 376.686 322.815 376.854C322.563 377.022 322.386 377.237 322.283 377.498C322.227 377.638 322.129 377.708 321.989 377.708H321.359C321.256 377.708 321.177 377.68 321.121 377.624C321.074 377.559 321.051 377.484 321.051 377.4C321.051 377.26 321.102 377.087 321.205 376.882C321.317 376.677 321.485 376.476 321.709 376.28C321.933 376.084 322.218 375.921 322.563 375.79C322.918 375.65 323.347 375.58 323.851 375.58C324.411 375.58 324.882 375.655 325.265 375.804C325.648 375.944 325.946 376.135 326.161 376.378C326.385 376.621 326.544 376.896 326.637 377.204C326.74 377.512 326.791 377.825 326.791 378.142V382.678C326.791 382.771 326.758 382.851 326.693 382.916C326.637 382.972 326.562 383 326.469 383H325.825C325.722 383 325.643 382.972 325.587 382.916C325.531 382.851 325.503 382.771 325.503 382.678V382.076C325.382 382.244 325.218 382.412 325.013 382.58C324.808 382.739 324.551 382.874 324.243 382.986C323.935 383.089 323.557 383.14 323.109 383.14ZM323.403 382.09C323.786 382.09 324.136 382.011 324.453 381.852C324.77 381.684 325.018 381.427 325.195 381.082C325.382 380.737 325.475 380.303 325.475 379.78V379.388L323.851 379.626C323.188 379.719 322.689 379.878 322.353 380.102C322.017 380.317 321.849 380.592 321.849 380.928C321.849 381.189 321.924 381.409 322.073 381.586C322.232 381.754 322.428 381.88 322.661 381.964C322.904 382.048 323.151 382.09 323.403 382.09ZM329.126 383C329.032 383 328.953 382.972 328.888 382.916C328.832 382.851 328.804 382.771 328.804 382.678V376.056C328.804 375.963 328.832 375.883 328.888 375.818C328.953 375.753 329.032 375.72 329.126 375.72H329.77C329.863 375.72 329.942 375.753 330.008 375.818C330.073 375.883 330.106 375.963 330.106 376.056V376.672C330.292 376.355 330.549 376.117 330.876 375.958C331.202 375.799 331.594 375.72 332.052 375.72H332.612C332.705 375.72 332.78 375.753 332.836 375.818C332.892 375.874 332.92 375.949 332.92 376.042V376.616C332.92 376.709 332.892 376.784 332.836 376.84C332.78 376.896 332.705 376.924 332.612 376.924H331.772C331.268 376.924 330.871 377.073 330.582 377.372C330.292 377.661 330.148 378.058 330.148 378.562V382.678C330.148 382.771 330.115 382.851 330.05 382.916C329.984 382.972 329.905 383 329.812 383H329.126ZM334.458 383C334.365 383 334.285 382.972 334.22 382.916C334.164 382.851 334.136 382.771 334.136 382.678V373.382C334.136 373.289 334.164 373.214 334.22 373.158C334.285 373.093 334.365 373.06 334.458 373.06H335.116C335.209 373.06 335.284 373.093 335.34 373.158C335.405 373.214 335.438 373.289 335.438 373.382V378.254L338.196 375.958C338.308 375.865 338.392 375.804 338.448 375.776C338.513 375.739 338.616 375.72 338.756 375.72H339.498C339.582 375.72 339.652 375.748 339.708 375.804C339.764 375.86 339.792 375.93 339.792 376.014C339.792 376.051 339.778 376.093 339.75 376.14C339.731 376.187 339.689 376.233 339.624 376.28L336.39 378.968L339.974 382.454C340.086 382.547 340.142 382.631 340.142 382.706C340.142 382.79 340.114 382.86 340.058 382.916C340.002 382.972 339.932 383 339.848 383H339.12C338.98 383 338.877 382.986 338.812 382.958C338.747 382.921 338.663 382.855 338.56 382.762L335.438 379.78V382.678C335.438 382.771 335.405 382.851 335.34 382.916C335.284 382.972 335.209 383 335.116 383H334.458ZM343.897 383.14C342.936 383.14 342.17 382.846 341.601 382.258C341.032 381.661 340.719 380.849 340.663 379.822C340.654 379.701 340.649 379.547 340.649 379.36C340.649 379.164 340.654 379.005 340.663 378.884C340.7 378.221 340.854 377.643 341.125 377.148C341.396 376.644 341.764 376.257 342.231 375.986C342.707 375.715 343.262 375.58 343.897 375.58C344.606 375.58 345.199 375.729 345.675 376.028C346.16 376.327 346.529 376.751 346.781 377.302C347.033 377.853 347.159 378.497 347.159 379.234V379.472C347.159 379.575 347.126 379.654 347.061 379.71C347.005 379.766 346.93 379.794 346.837 379.794H341.993C341.993 379.803 341.993 379.822 341.993 379.85C341.993 379.878 341.993 379.901 341.993 379.92C342.012 380.303 342.096 380.662 342.245 380.998C342.394 381.325 342.609 381.591 342.889 381.796C343.169 382.001 343.505 382.104 343.897 382.104C344.233 382.104 344.513 382.053 344.737 381.95C344.961 381.847 345.143 381.735 345.283 381.614C345.423 381.483 345.516 381.385 345.563 381.32C345.647 381.199 345.712 381.129 345.759 381.11C345.806 381.082 345.88 381.068 345.983 381.068H346.655C346.748 381.068 346.823 381.096 346.879 381.152C346.944 381.199 346.972 381.269 346.963 381.362C346.954 381.502 346.879 381.675 346.739 381.88C346.599 382.076 346.398 382.272 346.137 382.468C345.876 382.664 345.558 382.827 345.185 382.958C344.812 383.079 344.382 383.14 343.897 383.14ZM341.993 378.828H345.829V378.786C345.829 378.366 345.75 377.993 345.591 377.666C345.442 377.339 345.222 377.083 344.933 376.896C344.644 376.7 344.298 376.602 343.897 376.602C343.496 376.602 343.15 376.7 342.861 376.896C342.581 377.083 342.366 377.339 342.217 377.666C342.068 377.993 341.993 378.366 341.993 378.786V378.828ZM351.634 383C351.111 383 350.687 382.902 350.36 382.706C350.033 382.501 349.795 382.216 349.646 381.852C349.497 381.479 349.422 381.04 349.422 380.536V376.84H348.33C348.237 376.84 348.157 376.812 348.092 376.756C348.036 376.691 348.008 376.611 348.008 376.518V376.042C348.008 375.949 348.036 375.874 348.092 375.818C348.157 375.753 348.237 375.72 348.33 375.72H349.422V373.382C349.422 373.289 349.45 373.214 349.506 373.158C349.571 373.093 349.651 373.06 349.744 373.06H350.402C350.495 373.06 350.57 373.093 350.626 373.158C350.691 373.214 350.724 373.289 350.724 373.382V375.72H352.46C352.553 375.72 352.628 375.753 352.684 375.818C352.749 375.874 352.782 375.949 352.782 376.042V376.518C352.782 376.611 352.749 376.691 352.684 376.756C352.628 376.812 352.553 376.84 352.46 376.84H350.724V380.438C350.724 380.877 350.799 381.222 350.948 381.474C351.097 381.726 351.363 381.852 351.746 381.852H352.6C352.693 381.852 352.768 381.885 352.824 381.95C352.889 382.006 352.922 382.081 352.922 382.174V382.678C352.922 382.771 352.889 382.851 352.824 382.916C352.768 382.972 352.693 383 352.6 383H351.634ZM354.583 383C354.489 383 354.41 382.972 354.345 382.916C354.289 382.851 354.261 382.771 354.261 382.678V376.042C354.261 375.949 354.289 375.874 354.345 375.818C354.41 375.753 354.489 375.72 354.583 375.72H355.255C355.348 375.72 355.423 375.753 355.479 375.818C355.535 375.874 355.563 375.949 355.563 376.042V382.678C355.563 382.771 355.535 382.851 355.479 382.916C355.423 382.972 355.348 383 355.255 383H354.583ZM354.471 374.362C354.377 374.362 354.298 374.334 354.233 374.278C354.177 374.213 354.149 374.133 354.149 374.04V373.284C354.149 373.191 354.177 373.116 354.233 373.06C354.298 372.995 354.377 372.962 354.471 372.962H355.353C355.446 372.962 355.521 372.995 355.577 373.06C355.642 373.116 355.675 373.191 355.675 373.284V374.04C355.675 374.133 355.642 374.213 355.577 374.278C355.521 374.334 355.446 374.362 355.353 374.362H354.471ZM357.973 383C357.88 383 357.801 382.972 357.735 382.916C357.679 382.851 357.651 382.771 357.651 382.678V376.042C357.651 375.949 357.679 375.874 357.735 375.818C357.801 375.753 357.88 375.72 357.973 375.72H358.631C358.725 375.72 358.799 375.753 358.855 375.818C358.921 375.874 358.953 375.949 358.953 376.042V376.658C359.196 376.341 359.499 376.084 359.863 375.888C360.237 375.683 360.713 375.58 361.291 375.58C361.898 375.58 362.411 375.715 362.831 375.986C363.261 376.247 363.583 376.616 363.797 377.092C364.012 377.559 364.119 378.105 364.119 378.73V382.678C364.119 382.771 364.091 382.851 364.035 382.916C363.979 382.972 363.905 383 363.811 383H363.111C363.018 383 362.939 382.972 362.873 382.916C362.817 382.851 362.789 382.771 362.789 382.678V378.8C362.789 378.147 362.631 377.638 362.313 377.274C361.996 376.901 361.529 376.714 360.913 376.714C360.335 376.714 359.868 376.901 359.513 377.274C359.168 377.638 358.995 378.147 358.995 378.8V382.678C358.995 382.771 358.963 382.851 358.897 382.916C358.841 382.972 358.767 383 358.673 383H357.973ZM369.123 386.08C368.489 386.08 367.966 385.996 367.555 385.828C367.154 385.66 366.837 385.455 366.603 385.212C366.379 384.979 366.216 384.741 366.113 384.498C366.02 384.265 365.969 384.078 365.959 383.938C365.95 383.845 365.978 383.765 366.043 383.7C366.118 383.635 366.197 383.602 366.281 383.602H366.953C367.037 383.602 367.107 383.621 367.163 383.658C367.219 383.695 367.266 383.775 367.303 383.896C367.359 384.036 367.443 384.19 367.555 384.358C367.667 384.535 367.84 384.685 368.073 384.806C368.307 384.937 368.633 385.002 369.053 385.002C369.492 385.002 369.861 384.941 370.159 384.82C370.458 384.708 370.682 384.503 370.831 384.204C370.99 383.915 371.069 383.513 371.069 383V382.048C370.845 382.337 370.551 382.58 370.187 382.776C369.823 382.963 369.366 383.056 368.815 383.056C368.293 383.056 367.845 382.967 367.471 382.79C367.098 382.603 366.79 382.356 366.547 382.048C366.314 381.731 366.137 381.371 366.015 380.97C365.903 380.569 365.838 380.149 365.819 379.71C365.81 379.449 365.81 379.192 365.819 378.94C365.838 378.501 365.903 378.081 366.015 377.68C366.137 377.279 366.314 376.919 366.547 376.602C366.79 376.285 367.098 376.037 367.471 375.86C367.845 375.673 368.293 375.58 368.815 375.58C369.375 375.58 369.837 375.687 370.201 375.902C370.575 376.107 370.878 376.359 371.111 376.658V376.056C371.111 375.963 371.139 375.883 371.195 375.818C371.261 375.753 371.34 375.72 371.433 375.72H372.077C372.171 375.72 372.25 375.753 372.315 375.818C372.381 375.883 372.413 375.963 372.413 376.056V382.846C372.413 383.471 372.306 384.027 372.091 384.512C371.886 384.997 371.541 385.38 371.055 385.66C370.579 385.94 369.935 386.08 369.123 386.08ZM369.095 381.936C369.562 381.936 369.935 381.829 370.215 381.614C370.505 381.399 370.715 381.129 370.845 380.802C370.985 380.475 371.06 380.144 371.069 379.808C371.079 379.677 371.083 379.519 371.083 379.332C371.083 379.136 371.079 378.973 371.069 378.842C371.06 378.506 370.985 378.175 370.845 377.848C370.715 377.521 370.505 377.251 370.215 377.036C369.935 376.821 369.562 376.714 369.095 376.714C368.629 376.714 368.255 376.821 367.975 377.036C367.695 377.241 367.495 377.517 367.373 377.862C367.252 378.198 367.182 378.562 367.163 378.954C367.154 379.197 367.154 379.444 367.163 379.696C367.182 380.088 367.252 380.457 367.373 380.802C367.495 381.138 367.695 381.413 367.975 381.628C368.255 381.833 368.629 381.936 369.095 381.936ZM378.431 383C378.328 383 378.249 382.972 378.193 382.916C378.137 382.851 378.109 382.771 378.109 382.678V373.536C378.109 373.433 378.137 373.354 378.193 373.298C378.249 373.233 378.328 373.2 378.431 373.2H384.213C384.315 373.2 384.395 373.233 384.451 373.298C384.507 373.354 384.535 373.433 384.535 373.536V374.068C384.535 374.171 384.507 374.25 384.451 374.306C384.395 374.362 384.315 374.39 384.213 374.39H379.453V377.456H383.905C384.007 377.456 384.087 377.489 384.143 377.554C384.199 377.61 384.227 377.689 384.227 377.792V378.31C384.227 378.403 384.199 378.483 384.143 378.548C384.087 378.604 384.007 378.632 383.905 378.632H379.453V381.81H384.325C384.427 381.81 384.507 381.838 384.563 381.894C384.619 381.95 384.647 382.029 384.647 382.132V382.678C384.647 382.771 384.619 382.851 384.563 382.916C384.507 382.972 384.427 383 384.325 383H378.431ZM386.081 383C386.006 383 385.936 382.972 385.871 382.916C385.815 382.86 385.787 382.79 385.787 382.706C385.787 382.678 385.792 382.645 385.801 382.608C385.82 382.561 385.848 382.51 385.885 382.454L388.321 379.276L386.039 376.266C386.002 376.21 385.974 376.163 385.955 376.126C385.946 376.089 385.941 376.051 385.941 376.014C385.941 375.93 385.969 375.86 386.025 375.804C386.081 375.748 386.151 375.72 386.235 375.72H386.949C387.052 375.72 387.126 375.748 387.173 375.804C387.229 375.851 387.276 375.897 387.313 375.944L389.175 378.366L391.037 375.958C391.074 375.911 391.116 375.86 391.163 375.804C391.219 375.748 391.298 375.72 391.401 375.72H392.087C392.171 375.72 392.241 375.748 392.297 375.804C392.353 375.86 392.381 375.93 392.381 376.014C392.381 376.051 392.372 376.089 392.353 376.126C392.344 376.163 392.32 376.21 392.283 376.266L389.973 379.304L392.409 382.454C392.446 382.51 392.47 382.557 392.479 382.594C392.498 382.631 392.507 382.669 392.507 382.706C392.507 382.79 392.479 382.86 392.423 382.916C392.367 382.972 392.297 383 392.213 383H391.471C391.378 383 391.303 382.977 391.247 382.93C391.191 382.883 391.144 382.837 391.107 382.79L389.133 380.228L387.159 382.79C387.122 382.827 387.075 382.874 387.019 382.93C386.972 382.977 386.898 383 386.795 383H386.081ZM394.3 385.66C394.206 385.66 394.127 385.627 394.062 385.562C394.006 385.506 393.978 385.431 393.978 385.338V376.042C393.978 375.949 394.006 375.874 394.062 375.818C394.127 375.753 394.206 375.72 394.3 375.72H394.944C395.037 375.72 395.112 375.753 395.168 375.818C395.233 375.874 395.266 375.949 395.266 376.042V376.658C395.49 376.35 395.788 376.093 396.162 375.888C396.535 375.683 397.002 375.58 397.562 375.58C398.084 375.58 398.528 375.669 398.892 375.846C399.265 376.023 399.568 376.266 399.802 376.574C400.044 376.882 400.226 377.232 400.348 377.624C400.469 378.016 400.534 378.436 400.544 378.884C400.553 379.033 400.558 379.192 400.558 379.36C400.558 379.528 400.553 379.687 400.544 379.836C400.534 380.275 400.469 380.695 400.348 381.096C400.226 381.488 400.044 381.838 399.802 382.146C399.568 382.445 399.265 382.687 398.892 382.874C398.528 383.051 398.084 383.14 397.562 383.14C397.02 383.14 396.563 383.042 396.19 382.846C395.826 382.641 395.527 382.389 395.294 382.09V385.338C395.294 385.431 395.266 385.506 395.21 385.562C395.154 385.627 395.074 385.66 394.972 385.66H394.3ZM397.268 382.006C397.753 382.006 398.131 381.903 398.402 381.698C398.682 381.483 398.882 381.208 399.004 380.872C399.125 380.527 399.195 380.158 399.214 379.766C399.223 379.495 399.223 379.225 399.214 378.954C399.195 378.562 399.125 378.198 399.004 377.862C398.882 377.517 398.682 377.241 398.402 377.036C398.131 376.821 397.753 376.714 397.268 376.714C396.81 376.714 396.437 376.821 396.148 377.036C395.868 377.251 395.658 377.526 395.518 377.862C395.387 378.189 395.312 378.525 395.294 378.87C395.284 379.019 395.28 379.197 395.28 379.402C395.28 379.607 395.284 379.789 395.294 379.948C395.303 380.275 395.378 380.597 395.518 380.914C395.667 381.231 395.886 381.493 396.176 381.698C396.465 381.903 396.829 382.006 397.268 382.006ZM405.202 383.14C404.24 383.14 403.475 382.846 402.906 382.258C402.336 381.661 402.024 380.849 401.968 379.822C401.958 379.701 401.954 379.547 401.954 379.36C401.954 379.164 401.958 379.005 401.968 378.884C402.005 378.221 402.159 377.643 402.43 377.148C402.7 376.644 403.069 376.257 403.536 375.986C404.012 375.715 404.567 375.58 405.202 375.58C405.911 375.58 406.504 375.729 406.98 376.028C407.465 376.327 407.834 376.751 408.086 377.302C408.338 377.853 408.464 378.497 408.464 379.234V379.472C408.464 379.575 408.431 379.654 408.366 379.71C408.31 379.766 408.235 379.794 408.142 379.794H403.298C403.298 379.803 403.298 379.822 403.298 379.85C403.298 379.878 403.298 379.901 403.298 379.92C403.316 380.303 403.4 380.662 403.55 380.998C403.699 381.325 403.914 381.591 404.194 381.796C404.474 382.001 404.81 382.104 405.202 382.104C405.538 382.104 405.818 382.053 406.042 381.95C406.266 381.847 406.448 381.735 406.588 381.614C406.728 381.483 406.821 381.385 406.868 381.32C406.952 381.199 407.017 381.129 407.064 381.11C407.11 381.082 407.185 381.068 407.288 381.068H407.96C408.053 381.068 408.128 381.096 408.184 381.152C408.249 381.199 408.277 381.269 408.268 381.362C408.258 381.502 408.184 381.675 408.044 381.88C407.904 382.076 407.703 382.272 407.442 382.468C407.18 382.664 406.863 382.827 406.49 382.958C406.116 383.079 405.687 383.14 405.202 383.14ZM403.298 378.828H407.134V378.786C407.134 378.366 407.054 377.993 406.896 377.666C406.746 377.339 406.527 377.083 406.238 376.896C405.948 376.7 405.603 376.602 405.202 376.602C404.8 376.602 404.455 376.7 404.166 376.896C403.886 377.083 403.671 377.339 403.522 377.666C403.372 377.993 403.298 378.366 403.298 378.786V378.828ZM410.46 383C410.366 383 410.287 382.972 410.222 382.916C410.166 382.851 410.138 382.771 410.138 382.678V376.056C410.138 375.963 410.166 375.883 410.222 375.818C410.287 375.753 410.366 375.72 410.46 375.72H411.104C411.197 375.72 411.276 375.753 411.342 375.818C411.407 375.883 411.44 375.963 411.44 376.056V376.672C411.626 376.355 411.883 376.117 412.21 375.958C412.536 375.799 412.928 375.72 413.386 375.72H413.946C414.039 375.72 414.114 375.753 414.17 375.818C414.226 375.874 414.254 375.949 414.254 376.042V376.616C414.254 376.709 414.226 376.784 414.17 376.84C414.114 376.896 414.039 376.924 413.946 376.924H413.106C412.602 376.924 412.205 377.073 411.916 377.372C411.626 377.661 411.482 378.058 411.482 378.562V382.678C411.482 382.771 411.449 382.851 411.384 382.916C411.318 382.972 411.239 383 411.146 383H410.46ZM418.298 383C417.775 383 417.351 382.902 417.024 382.706C416.697 382.501 416.459 382.216 416.31 381.852C416.161 381.479 416.086 381.04 416.086 380.536V376.84H414.994C414.901 376.84 414.821 376.812 414.756 376.756C414.7 376.691 414.672 376.611 414.672 376.518V376.042C414.672 375.949 414.7 375.874 414.756 375.818C414.821 375.753 414.901 375.72 414.994 375.72H416.086V373.382C416.086 373.289 416.114 373.214 416.17 373.158C416.235 373.093 416.315 373.06 416.408 373.06H417.066C417.159 373.06 417.234 373.093 417.29 373.158C417.355 373.214 417.388 373.289 417.388 373.382V375.72H419.124C419.217 375.72 419.292 375.753 419.348 375.818C419.413 375.874 419.446 375.949 419.446 376.042V376.518C419.446 376.611 419.413 376.691 419.348 376.756C419.292 376.812 419.217 376.84 419.124 376.84H417.388V380.438C417.388 380.877 417.463 381.222 417.612 381.474C417.761 381.726 418.027 381.852 418.41 381.852H419.264C419.357 381.852 419.432 381.885 419.488 381.95C419.553 382.006 419.586 382.081 419.586 382.174V382.678C419.586 382.771 419.553 382.851 419.488 382.916C419.432 382.972 419.357 383 419.264 383H418.298Z" fill="white"/>
<path d="M302.103 358.2C301.383 358.2 300.697 358.113 300.043 357.94C299.403 357.753 298.83 357.473 298.323 357.1C297.817 356.727 297.41 356.267 297.103 355.72C296.81 355.173 296.657 354.527 296.643 353.78C296.643 353.66 296.683 353.56 296.763 353.48C296.843 353.387 296.943 353.34 297.063 353.34H298.963C299.137 353.34 299.263 353.387 299.343 353.48C299.437 353.573 299.51 353.7 299.563 353.86C299.63 354.34 299.783 354.733 300.023 355.04C300.263 355.333 300.563 355.553 300.923 355.7C301.297 355.833 301.71 355.9 302.163 355.9C303.003 355.9 303.643 355.627 304.083 355.08C304.537 354.533 304.763 353.773 304.763 352.8V346.36H297.983C297.837 346.36 297.717 346.313 297.623 346.22C297.543 346.127 297.503 346.013 297.503 345.88V344.48C297.503 344.347 297.543 344.233 297.623 344.14C297.717 344.047 297.837 344 297.983 344H307.123C307.27 344 307.39 344.047 307.483 344.14C307.577 344.233 307.623 344.353 307.623 344.5V352.88C307.623 353.987 307.39 354.94 306.923 355.74C306.47 356.54 305.83 357.153 305.003 357.58C304.19 357.993 303.223 358.2 302.103 358.2ZM314.99 358.2C313.924 358.2 313.024 358.013 312.29 357.64C311.57 357.267 311.017 356.74 310.63 356.06C310.257 355.38 310.044 354.587 309.99 353.68C309.977 353.44 309.97 353.147 309.97 352.8C309.97 352.453 309.977 352.16 309.99 351.92C310.044 351 310.264 350.207 310.65 349.54C311.05 348.86 311.61 348.333 312.33 347.96C313.064 347.587 313.95 347.4 314.99 347.4C316.03 347.4 316.91 347.587 317.63 347.96C318.364 348.333 318.924 348.86 319.31 349.54C319.71 350.207 319.937 351 319.99 351.92C320.004 352.16 320.01 352.453 320.01 352.8C320.01 353.147 320.004 353.44 319.99 353.68C319.937 354.587 319.717 355.38 319.33 356.06C318.957 356.74 318.404 357.267 317.67 357.64C316.95 358.013 316.057 358.2 314.99 358.2ZM314.99 356.22C315.697 356.22 316.244 356 316.63 355.56C317.017 355.107 317.23 354.447 317.27 353.58C317.284 353.38 317.29 353.12 317.29 352.8C317.29 352.48 317.284 352.22 317.27 352.02C317.23 351.167 317.017 350.513 316.63 350.06C316.244 349.607 315.697 349.38 314.99 349.38C314.284 349.38 313.737 349.607 313.35 350.06C312.964 350.513 312.75 351.167 312.71 352.02C312.697 352.22 312.69 352.48 312.69 352.8C312.69 353.12 312.697 353.38 312.71 353.58C312.75 354.447 312.964 355.107 313.35 355.56C313.737 356 314.284 356.22 314.99 356.22ZM322.726 358C322.593 358 322.48 357.953 322.386 357.86C322.293 357.767 322.246 357.653 322.246 357.52V344.28C322.246 344.147 322.293 344.033 322.386 343.94C322.48 343.847 322.593 343.8 322.726 343.8H324.506C324.653 343.8 324.766 343.847 324.846 343.94C324.94 344.033 324.986 344.147 324.986 344.28V348.84C325.346 348.413 325.786 348.067 326.306 347.8C326.826 347.533 327.466 347.4 328.226 347.4C329.04 347.4 329.746 347.587 330.346 347.96C330.96 348.32 331.433 348.833 331.766 349.5C332.1 350.167 332.266 350.967 332.266 351.9V357.52C332.266 357.653 332.22 357.767 332.126 357.86C332.033 357.953 331.92 358 331.786 358H329.986C329.853 358 329.74 357.953 329.646 357.86C329.553 357.767 329.506 357.653 329.506 357.52V352.02C329.506 351.247 329.313 350.64 328.926 350.2C328.553 349.76 328.006 349.54 327.286 349.54C326.593 349.54 326.033 349.76 325.606 350.2C325.193 350.64 324.986 351.247 324.986 352.02V357.52C324.986 357.653 324.94 357.767 324.846 357.86C324.766 357.953 324.653 358 324.506 358H322.726ZM335.284 358C335.151 358 335.038 357.953 334.944 357.86C334.851 357.767 334.804 357.653 334.804 357.52V348.08C334.804 347.947 334.851 347.833 334.944 347.74C335.038 347.647 335.151 347.6 335.284 347.6H336.924C337.058 347.6 337.171 347.647 337.264 347.74C337.358 347.833 337.404 347.947 337.404 348.08V348.9C337.751 348.473 338.191 348.12 338.724 347.84C339.271 347.547 339.944 347.4 340.744 347.4C341.558 347.4 342.264 347.587 342.864 347.96C343.464 348.32 343.924 348.833 344.244 349.5C344.578 350.167 344.744 350.967 344.744 351.9V357.52C344.744 357.653 344.698 357.767 344.604 357.86C344.511 357.953 344.398 358 344.264 358H342.504C342.371 358 342.258 357.953 342.164 357.86C342.071 357.767 342.024 357.653 342.024 357.52V352.02C342.024 351.247 341.831 350.64 341.444 350.2C341.071 349.76 340.524 349.54 339.804 349.54C339.111 349.54 338.558 349.76 338.144 350.2C337.731 350.64 337.524 351.247 337.524 352.02V357.52C337.524 357.653 337.478 357.767 337.384 357.86C337.291 357.953 337.178 358 337.044 358H335.284ZM352.575 358C352.442 358 352.328 357.953 352.235 357.86C352.142 357.767 352.095 357.653 352.095 357.52V344.5C352.095 344.353 352.142 344.233 352.235 344.14C352.328 344.047 352.442 344 352.575 344H357.455C358.802 344 359.908 344.207 360.775 344.62C361.655 345.033 362.315 345.647 362.755 346.46C363.208 347.273 363.442 348.267 363.455 349.44C363.482 350.027 363.495 350.547 363.495 351C363.495 351.453 363.482 351.967 363.455 352.54C363.428 353.78 363.202 354.807 362.775 355.62C362.348 356.42 361.702 357.02 360.835 357.42C359.982 357.807 358.888 358 357.555 358H352.575ZM354.875 355.7H357.455C358.202 355.7 358.808 355.593 359.275 355.38C359.742 355.167 360.082 354.827 360.295 354.36C360.522 353.88 360.642 353.253 360.655 352.48C360.668 352.08 360.675 351.733 360.675 351.44C360.688 351.133 360.688 350.833 360.675 350.54C360.675 350.233 360.668 349.887 360.655 349.5C360.628 348.407 360.355 347.6 359.835 347.08C359.315 346.56 358.488 346.3 357.355 346.3H354.875V355.7ZM370.518 358.2C369.451 358.2 368.551 358.013 367.818 357.64C367.098 357.267 366.544 356.74 366.158 356.06C365.784 355.38 365.571 354.587 365.518 353.68C365.504 353.44 365.498 353.147 365.498 352.8C365.498 352.453 365.504 352.16 365.518 351.92C365.571 351 365.791 350.207 366.178 349.54C366.578 348.86 367.138 348.333 367.858 347.96C368.591 347.587 369.478 347.4 370.518 347.4C371.558 347.4 372.438 347.587 373.158 347.96C373.891 348.333 374.451 348.86 374.838 349.54C375.238 350.207 375.464 351 375.518 351.92C375.531 352.16 375.538 352.453 375.538 352.8C375.538 353.147 375.531 353.44 375.518 353.68C375.464 354.587 375.244 355.38 374.858 356.06C374.484 356.74 373.931 357.267 373.198 357.64C372.478 358.013 371.584 358.2 370.518 358.2ZM370.518 356.22C371.224 356.22 371.771 356 372.158 355.56C372.544 355.107 372.758 354.447 372.798 353.58C372.811 353.38 372.818 353.12 372.818 352.8C372.818 352.48 372.811 352.22 372.798 352.02C372.758 351.167 372.544 350.513 372.158 350.06C371.771 349.607 371.224 349.38 370.518 349.38C369.811 349.38 369.264 349.607 368.878 350.06C368.491 350.513 368.278 351.167 368.238 352.02C368.224 352.22 368.218 352.48 368.218 352.8C368.218 353.12 368.224 353.38 368.238 353.58C368.278 354.447 368.491 355.107 368.878 355.56C369.264 356 369.811 356.22 370.518 356.22ZM382.234 358.2C380.754 358.2 379.58 357.773 378.714 356.92C377.847 356.067 377.38 354.853 377.314 353.28C377.3 353.147 377.294 352.98 377.294 352.78C377.294 352.567 377.3 352.4 377.314 352.28C377.367 351.28 377.594 350.413 377.994 349.68C378.407 348.947 378.974 348.387 379.694 348C380.414 347.6 381.26 347.4 382.234 347.4C383.314 347.4 384.22 347.627 384.954 348.08C385.687 348.52 386.24 349.14 386.614 349.94C386.987 350.727 387.174 351.64 387.174 352.68V353.1C387.174 353.233 387.127 353.347 387.034 353.44C386.94 353.533 386.82 353.58 386.674 353.58H380.034C380.034 353.58 380.034 353.6 380.034 353.64C380.034 353.68 380.034 353.713 380.034 353.74C380.047 354.207 380.134 354.64 380.294 355.04C380.467 355.427 380.714 355.74 381.034 355.98C381.367 356.22 381.76 356.34 382.214 356.34C382.587 356.34 382.9 356.287 383.154 356.18C383.407 356.06 383.614 355.927 383.774 355.78C383.934 355.633 384.047 355.513 384.114 355.42C384.234 355.26 384.327 355.167 384.394 355.14C384.474 355.1 384.587 355.08 384.734 355.08H386.454C386.587 355.08 386.694 355.12 386.774 355.2C386.867 355.28 386.907 355.38 386.894 355.5C386.88 355.713 386.767 355.973 386.554 356.28C386.354 356.587 386.06 356.887 385.674 357.18C385.287 357.473 384.8 357.72 384.214 357.92C383.64 358.107 382.98 358.2 382.234 358.2ZM380.034 351.9H384.454V351.84C384.454 351.32 384.367 350.867 384.194 350.48C384.02 350.093 383.767 349.787 383.434 349.56C383.1 349.333 382.7 349.22 382.234 349.22C381.767 349.22 381.367 349.333 381.034 349.56C380.7 349.787 380.447 350.093 380.274 350.48C380.114 350.867 380.034 351.32 380.034 351.84V351.9Z" fill="white"/>
<circle cx="342" cy="279" r="50" fill="#26D367"/>
<path d="M349.639 270.8C348.599 270.267 347.493 269.813 346.319 269.44C345.146 269.04 344.026 268.84 342.959 268.84C341.519 268.84 340.373 269.16 339.519 269.8C338.693 270.44 338.279 271.32 338.279 272.44C338.279 273.24 338.573 273.947 339.159 274.56C339.746 275.147 340.493 275.667 341.399 276.12C342.306 276.547 343.266 276.96 344.279 277.36C345.159 277.68 346.026 278.067 346.879 278.52C347.759 278.947 348.546 279.48 349.239 280.12C349.933 280.76 350.479 281.56 350.879 282.52C351.306 283.453 351.519 284.613 351.519 286C351.519 287.52 351.133 288.92 350.359 290.2C349.586 291.453 348.479 292.453 347.039 293.2C345.599 293.947 343.839 294.32 341.759 294.32C340.559 294.32 339.373 294.187 338.199 293.92C337.053 293.653 335.959 293.293 334.919 292.84C333.879 292.36 332.919 291.827 332.039 291.24L334.119 287.6C334.759 288.08 335.493 288.52 336.319 288.92C337.146 289.32 337.999 289.64 338.879 289.88C339.759 290.093 340.586 290.2 341.359 290.2C342.186 290.2 342.999 290.067 343.799 289.8C344.626 289.533 345.306 289.093 345.839 288.48C346.399 287.867 346.679 287.053 346.679 286.04C346.679 285.213 346.439 284.507 345.959 283.92C345.479 283.333 344.853 282.827 344.079 282.4C343.333 281.947 342.506 281.547 341.599 281.2C340.693 280.853 339.759 280.467 338.799 280.04C337.866 279.613 336.999 279.093 336.199 278.48C335.399 277.84 334.746 277.067 334.239 276.16C333.733 275.253 333.479 274.133 333.479 272.8C333.479 271.2 333.853 269.813 334.599 268.64C335.346 267.467 336.373 266.533 337.679 265.84C339.013 265.147 340.546 264.773 342.279 264.72C344.333 264.72 346.079 264.973 347.519 265.48C348.986 265.96 350.279 266.547 351.399 267.24L349.639 270.8Z" fill="white"/>
<path d="M625.219 784.313C641.416 789.813 650.099 807.408 644.614 823.612C639.129 839.815 621.552 848.493 605.355 842.993C589.159 837.493 580.476 819.898 585.961 803.694C591.446 787.49 609.023 778.813 625.219 784.313Z" fill="black"/>
<path d="M625.219 784.313C641.416 789.813 650.099 807.408 644.614 823.612C639.129 839.815 621.552 848.493 605.355 842.993C589.159 837.493 580.476 819.898 585.961 803.694C591.446 787.49 609.023 778.813 625.219 784.313Z" stroke="black" stroke-width="5.9066"/>
<path d="M628.905 815.6C626.419 814.762 624.259 813.16 622.731 811.019L619.296 821.167C618.659 823.046 617.467 824.687 615.879 825.87C614.291 827.053 612.383 827.721 610.411 827.786C608.438 827.85 606.494 827.308 604.84 826.231C603.185 825.154 601.899 823.593 601.153 821.759C600.406 819.924 600.235 817.902 600.663 815.964C601.091 814.026 602.097 812.264 603.546 810.913C604.996 809.562 606.819 808.687 608.774 808.405C610.728 808.123 612.72 808.448 614.483 809.335L612.755 814.438C611.999 813.883 611.088 813.583 610.15 813.58C609.213 813.577 608.298 813.872 607.535 814.423C606.773 814.973 606.202 815.751 605.906 816.646C605.609 817.541 605.6 818.506 605.881 819.404C606.163 820.302 606.719 821.087 607.472 821.647C608.224 822.207 609.134 822.513 610.071 822.521C611.009 822.53 611.925 822.24 612.691 821.694C613.457 821.148 614.031 820.373 614.333 819.48L621.048 799.645L626.012 801.331C625.866 801.752 625.759 802.185 625.691 802.626C625.55 803.612 625.609 804.616 625.867 805.576C626.125 806.537 626.576 807.435 627.191 808.213C628.059 809.34 629.239 810.184 630.584 810.64L628.905 815.6Z" fill="black"/>
<path d="M622.203 780.959C638.4 786.459 647.083 804.053 641.598 820.257C636.113 836.461 618.536 845.138 602.34 839.638C586.143 834.138 577.46 816.544 582.945 800.34C588.43 784.136 606.007 775.459 622.203 780.959Z" fill="white"/>
<path d="M622.203 780.959C638.4 786.459 647.083 804.053 641.598 820.257C636.113 836.461 618.536 845.138 602.34 839.638C586.143 834.138 577.46 816.544 582.945 800.34C588.43 784.136 606.007 775.459 622.203 780.959Z" stroke="black" stroke-width="5.9066"/>
<path d="M625.889 812.245C623.403 811.408 621.243 809.805 619.716 807.664L616.281 817.812C615.643 819.691 614.451 821.333 612.863 822.515C611.276 823.699 609.368 824.367 607.395 824.431C605.422 824.495 603.479 823.953 601.824 822.876C600.17 821.799 598.884 820.239 598.137 818.404C597.391 816.569 597.22 814.548 597.647 812.61C598.075 810.672 599.081 808.909 600.531 807.558C601.98 806.208 603.804 805.332 605.758 805.051C607.712 804.768 609.704 805.093 611.467 805.98L609.739 811.084C608.983 810.528 608.072 810.228 607.135 810.225C606.197 810.222 605.282 810.517 604.519 811.068C603.758 811.618 603.187 812.397 602.89 813.292C602.593 814.186 602.584 815.152 602.866 816.05C603.147 816.948 603.704 817.733 604.456 818.293C605.209 818.852 606.118 819.158 607.056 819.167C607.993 819.175 608.91 818.886 609.675 818.339C610.441 817.793 611.016 817.019 611.318 816.126L618.032 796.291L622.997 797.977C622.85 798.398 622.743 798.831 622.676 799.271C622.534 800.257 622.594 801.261 622.852 802.222C623.11 803.183 623.56 804.08 624.175 804.859C625.044 805.986 626.224 806.83 627.568 807.285L625.889 812.245Z" fill="black"/>
<path d="M79.8642 588.047C91.3736 583.706 104.214 589.521 108.545 601.036C112.875 612.551 107.055 625.405 95.5459 629.746C84.0365 634.087 71.1957 628.272 66.8653 616.757C62.5349 605.243 68.3547 592.389 79.8642 588.047Z" fill="black"/>
<path d="M79.8642 588.047C91.3736 583.706 104.214 589.521 108.545 601.036C112.875 612.551 107.055 625.405 95.5459 629.746C84.0365 634.087 71.1957 628.272 66.8653 616.757C62.5349 605.243 68.3547 592.389 79.8642 588.047Z" stroke="black" stroke-width="4.24765"/>
<path d="M82.9869 596.788C89.6233 594.285 97.0272 597.638 99.5242 604.277C102.021 610.917 98.6656 618.329 92.0291 620.832C85.3927 623.335 77.9887 619.982 75.4917 613.342C72.9948 606.703 76.3505 599.291 82.9869 596.788Z" fill="black"/>
<path d="M99.8379 604.243C97.3251 597.561 89.847 594.201 83.13 596.734C76.4126 599.268 73.0066 606.734 75.5193 613.416C77.7935 619.463 84.0951 622.822 90.2598 621.499L87.0867 613.062L83.9979 614.227L82.6774 610.716L85.7662 609.551L84.7759 606.917C83.6387 603.894 84.8111 601.502 87.5568 600.466C88.9294 599.949 90.3941 599.675 90.3941 599.675L91.5129 602.649L89.993 603.223C88.4731 603.796 88.3313 604.908 88.6981 605.884L89.5417 608.127L92.9246 606.851L93.7058 610.565L90.8622 611.638L94.0353 620.075C99.5394 616.996 102.112 610.29 99.8379 604.243Z" fill="black"/>
<path d="M76.8486 584.861C88.358 580.519 101.199 586.335 105.529 597.849C109.86 609.364 104.04 622.218 92.5303 626.559C81.0208 630.901 68.18 625.085 63.8497 613.571C59.5193 602.056 65.3391 589.202 76.8486 584.861Z" fill="white"/>
<path d="M76.8486 584.861C88.358 580.519 101.199 586.335 105.529 597.849C109.86 609.364 104.04 622.218 92.5303 626.559C81.0208 630.901 68.18 625.085 63.8497 613.571C59.5193 602.056 65.3391 589.202 76.8486 584.861Z" stroke="black" stroke-width="4.24765"/>
<path d="M79.9713 593.601C86.6077 591.098 94.0116 594.451 96.5085 601.091C99.0055 607.73 95.6499 615.142 89.0135 617.645C82.3771 620.148 74.973 616.795 72.4761 610.156C69.9792 603.516 73.3349 596.105 79.9713 593.601Z" fill="white"/>
<path d="M96.8223 601.056C94.3095 594.375 86.8314 591.014 80.1144 593.548C73.397 596.081 69.991 603.547 72.5037 610.229C74.7779 616.276 81.0795 619.635 87.2442 618.313L84.0711 609.875L80.9823 611.04L79.6618 607.529L82.7506 606.364L81.7603 603.731C80.6231 600.707 81.7955 598.315 84.5411 597.28C85.9138 596.762 87.3785 596.488 87.3785 596.488L88.4973 599.463L86.9774 600.036C85.4574 600.609 85.3157 601.721 85.6825 602.697L86.526 604.94L89.909 603.664L90.6901 607.379L87.8466 608.451L91.0196 616.889C96.5238 613.81 99.0965 607.103 96.8223 601.056Z" fill="black"/>
<path d="M119.969 49.2319C145.723 42.3052 172.199 57.5776 179.104 83.3435C186.009 109.109 170.729 135.612 144.975 142.539C119.221 149.465 92.7449 134.193 85.8398 108.427C78.9347 82.6612 94.2148 56.1585 119.969 49.2319Z" fill="black"/>
<path d="M119.969 49.2319C145.723 42.3052 172.199 57.5776 179.104 83.3435C186.009 109.109 170.729 135.612 144.975 142.539C119.221 149.465 92.7449 134.193 85.8398 108.427C78.9347 82.6612 94.2148 56.1585 119.969 49.2319Z" stroke="black" stroke-width="9.20976"/>
<path d="M128.742 83.6394C121.599 85.5606 117.415 93.0004 119.372 100.302C121.329 107.605 128.67 111.946 135.813 110.025C142.956 108.104 147.14 100.663 145.183 93.3605C143.226 86.0584 135.885 81.7182 128.742 83.6394ZM134.576 105.41C129.959 106.651 125.155 103.819 123.887 99.088C122.62 94.3581 125.351 89.4996 129.979 88.255C134.606 87.0104 139.4 89.8451 140.667 94.575C141.935 99.3057 139.192 104.168 134.576 105.41ZM145.04 78.6773C145.499 80.3879 144.517 82.1166 142.855 82.5637C141.182 83.0137 139.476 81.9954 139.02 80.2964C138.565 78.5967 139.543 76.8572 141.206 76.4101C142.868 75.9629 144.585 76.9775 145.04 78.6773ZM154.424 79.5013C153.129 75.4306 151.23 72.0277 147.469 69.8138C143.721 67.5976 139.897 67.6167 135.809 68.4943C131.589 69.3709 119.132 72.7211 115.041 74.0798C111.073 75.3563 107.753 77.2579 105.605 81.0608C103.458 84.8627 103.527 88.7589 104.429 92.9351C105.332 97.247 108.745 109.981 110.119 114.166C111.415 118.237 113.314 121.641 117.074 123.854C120.834 126.068 124.647 126.051 128.734 125.173C132.954 124.297 145.411 120.947 149.502 119.588C153.482 118.308 156.802 116.407 158.935 112.595C161.071 108.796 161.014 104.897 160.111 100.721C159.209 96.4088 155.799 83.6863 154.424 79.5013ZM155.964 106.723C155.691 109.209 154.46 111.399 152.49 112.901C149.537 115.135 141.591 116.94 137.93 117.924C134.269 118.909 126.475 121.325 122.816 120.881C120.375 120.579 118.214 119.301 116.72 117.278C114.498 114.244 112.648 106.124 111.645 102.381C110.642 98.6375 108.192 90.6675 108.59 86.9418C108.863 84.4559 110.095 82.2657 112.065 80.7631C115.018 78.5292 122.963 76.7249 126.625 75.7401C130.286 74.7554 138.08 72.3383 141.738 72.7823C144.18 73.0859 146.341 74.3638 147.835 76.387C150.056 79.4208 151.906 87.5392 152.91 91.2823C153.913 95.0255 156.373 102.994 155.964 106.723Z" fill="black"/>
<path d="M118.654 45.5419C144.409 38.6153 170.884 53.8877 177.789 79.6536C184.694 105.42 169.414 131.922 143.66 138.849C117.906 145.776 91.4304 130.503 84.5253 104.737C77.6202 78.9713 92.9004 52.4686 118.654 45.5419Z" fill="white"/>
<path d="M118.654 45.5419C144.409 38.6153 170.884 53.8877 177.789 79.6536C184.694 105.42 169.414 131.922 143.66 138.849C117.906 145.776 91.4304 130.503 84.5253 104.737C77.6202 78.9713 92.9004 52.4686 118.654 45.5419Z" stroke="black" stroke-width="9.20976"/>
<path d="M127.427 79.9494C120.284 81.8706 116.1 89.3104 118.057 96.6125C120.014 103.915 127.355 108.256 134.499 106.335C141.642 104.414 145.825 96.9734 143.868 89.6706C141.911 82.3685 134.571 78.0282 127.427 79.9494ZM133.262 101.72C128.645 102.961 123.841 100.129 122.573 95.398C121.305 90.6681 124.037 85.8096 128.664 84.565C133.292 83.3205 138.085 86.1552 139.353 90.8851C140.62 95.6157 137.877 100.478 133.262 101.72ZM143.726 74.9873C144.184 76.698 143.203 78.4266 141.54 78.8737C139.867 79.3238 138.161 78.3055 137.706 76.6065C137.25 74.9067 138.229 73.1672 139.891 72.7201C141.554 72.273 143.271 73.2876 143.726 74.9873ZM153.11 75.8113C151.815 71.7407 149.915 68.3377 146.155 66.1239C142.407 63.9077 138.582 63.9267 134.495 64.8044C130.274 65.681 117.818 69.0311 113.727 70.3899C109.759 71.6664 106.439 73.5679 104.291 77.3708C102.144 81.1728 102.212 85.069 103.115 89.2452C104.018 93.5571 107.43 106.291 108.804 110.476C110.1 114.547 112 117.951 115.759 120.164C119.52 122.378 123.332 122.361 127.42 121.483C131.64 120.607 144.096 117.257 148.187 115.898C152.167 114.618 155.487 112.717 157.62 108.905C159.757 105.106 159.699 101.207 158.797 97.031C157.894 92.7188 154.485 79.9964 153.11 75.8113ZM154.65 103.033C154.376 105.519 153.145 107.709 151.175 109.211C148.222 111.445 140.277 113.25 136.616 114.234C132.954 115.219 125.16 117.635 121.502 117.191C119.06 116.889 116.9 115.611 115.406 113.588C113.184 110.554 111.333 102.434 110.33 98.6907C109.327 94.9475 106.878 86.9776 107.276 83.2518C107.549 80.766 108.781 78.5757 110.75 77.0732C113.704 74.8393 121.649 73.0349 125.31 72.0502C128.972 71.0654 136.765 68.6484 140.424 69.0924C142.866 69.396 145.026 70.6738 146.52 72.697C148.741 75.7308 150.592 83.8492 151.595 87.5924C152.598 91.3356 155.059 99.3042 154.65 103.033Z" fill="black"/>
</svg>
