<svg width="20" height="20" viewBox="0 0 24 24" fill="none" xmlns="http://www.w3.org/2000/svg">
<path d="M7.615 23C7.57801 22.9999 7.54114 22.9959 7.505 22.988C7.40421 22.9652 7.31298 22.9116 7.24386 22.8348C7.17474 22.758 7.13112 22.6616 7.119 22.559L6.953 21.159C6.77869 19.9045 6.79453 18.6308 7 17.381C7.205 16.499 8.223 12.181 8.432 11.29C8.20045 10.6809 8.0825 10.0346 8.084 9.383C8.084 7.391 9.303 5.831 10.86 5.831C11.1516 5.82598 11.441 5.88264 11.7091 5.99726C11.9773 6.11188 12.2183 6.28187 12.4161 6.4961C12.614 6.71033 12.7644 6.96395 12.8575 7.24036C12.9505 7.51677 12.9841 7.80971 12.956 8.1C12.8814 9.03082 12.6795 9.94701 12.356 10.823C12.195 11.346 12.028 11.883 11.902 12.407C11.8496 12.6004 11.8427 12.8033 11.8817 12.9999C11.9208 13.1964 12.0047 13.3813 12.127 13.54C12.2662 13.7092 12.4421 13.8444 12.6414 13.9353C12.8406 14.0263 13.058 14.0707 13.277 14.065C15.277 14.065 16.729 11.856 16.729 8.813C16.7485 8.18935 16.6375 7.5685 16.4032 6.9902C16.1689 6.41191 15.8164 5.8889 15.3683 5.45467C14.9203 5.02044 14.3865 4.68455 13.8011 4.4685C13.2158 4.25245 12.5917 4.16099 11.969 4.2C11.2998 4.17 10.6314 4.27596 10.0043 4.51148C9.37712 4.74699 8.80423 5.10719 8.32018 5.5703C7.83614 6.03341 7.45098 6.58982 7.18798 7.20594C6.92499 7.82206 6.7896 8.4851 6.79 9.155C6.79859 9.83468 6.95451 10.5044 7.247 11.118C7.33483 11.2995 7.35709 11.5059 7.31 11.702L6.882 13.518C6.8519 13.6492 6.78879 13.7705 6.69866 13.8704C6.60853 13.9703 6.49437 14.0456 6.367 14.089C6.23648 14.1336 6.09678 14.1442 5.96102 14.1199C5.82527 14.0955 5.69794 14.0371 5.591 13.95C4.92103 13.3325 4.38671 12.5825 4.02194 11.7476C3.65716 10.9127 3.46989 10.0111 3.472 9.1C3.472 5.2 6.228 1 12.279 1C16.979 1 20.528 4.337 20.528 8.762C20.528 13.505 17.511 17.083 13.51 17.083C12.5559 17.085 11.6285 16.7682 10.875 16.183L10.332 18.252C9.94707 19.4639 9.40227 20.6191 8.712 21.687L8.039 22.766C7.99393 22.8377 7.93138 22.8968 7.85722 22.9378C7.78306 22.9787 7.69971 23.0001 7.615 23ZM10.862 6.831C9.867 6.831 9.086 7.952 9.086 9.383C9.08071 9.94652 9.19027 10.5052 9.408 11.025C9.45741 11.129 9.47044 11.2467 9.445 11.359C9.445 11.359 8.205 16.623 7.977 17.605C7.80138 18.7381 7.78993 19.8906 7.943 21.027C8.54567 20.0838 9.02333 19.0662 9.364 18L10.151 15.007C10.1768 14.909 10.2317 14.8212 10.3084 14.7551C10.3852 14.689 10.4803 14.6479 10.581 14.637C10.6816 14.6272 10.7829 14.6476 10.8719 14.6955C10.9609 14.7434 11.0337 14.8167 11.081 14.906C11.3571 15.2878 11.7236 15.5952 12.1477 15.8006C12.5718 16.0061 13.0402 16.1031 13.511 16.083C16.942 16.083 19.529 12.935 19.529 8.762C19.528 4.907 16.412 2 12.279 2C6.916 2 4.472 5.682 4.472 9.1C4.48112 10.5295 5.02065 11.9047 5.986 12.959L6.337 11.467C5.97951 10.7486 5.79234 9.95745 5.79 9.155C5.7869 8.35304 5.94631 7.55877 6.25861 6.82011C6.57091 6.08145 7.02962 5.41371 7.60706 4.8572C8.18451 4.30069 8.86872 3.86693 9.6184 3.58211C10.3681 3.29729 11.1677 3.1673 11.969 3.2C12.7241 3.15549 13.4801 3.26898 14.1888 3.53321C14.8975 3.79745 15.5433 4.20662 16.0849 4.73459C16.6265 5.26255 17.052 5.89769 17.3343 6.59943C17.6165 7.30116 17.7492 8.05406 17.724 8.81C17.724 12.433 15.852 15.062 13.272 15.062C12.9022 15.0685 12.5357 14.9909 12.2003 14.835C11.8649 14.6791 11.5694 14.4489 11.336 14.162C11.1188 13.885 10.9686 13.5615 10.8971 13.2168C10.8256 12.8721 10.8348 12.5155 10.924 12.175C11.056 11.63 11.224 11.075 11.396 10.529C11.6856 9.74726 11.8738 8.93161 11.956 8.102C11.9791 7.94467 11.9681 7.78421 11.9237 7.6315C11.8794 7.47879 11.8028 7.33739 11.699 7.21687C11.5953 7.09635 11.4669 6.99953 11.3225 6.93295C11.178 6.86638 11.021 6.83161 10.862 6.831Z" fill="black"/>
</svg>
