<svg width="100" height="100" viewBox="0 0 100 100" fill="none" xmlns="http://www.w3.org/2000/svg">
<circle cx="50" cy="50" r="49.5" fill="#26D367" stroke="#26D367"/>
<path d="M45.9046 41.26C45.0646 40.8 44.2046 40.42 43.3246 40.12C42.4646 39.82 41.6546 39.67 40.8946 39.67C39.9546 39.67 39.2146 39.86 38.6746 40.24C38.1346 40.62 37.8646 41.19 37.8646 41.95C37.8646 42.47 38.0646 42.94 38.4646 43.36C38.8846 43.76 39.4146 44.12 40.0546 44.44C40.7146 44.76 41.3946 45.05 42.0946 45.31C42.7346 45.55 43.3646 45.84 43.9846 46.18C44.6246 46.5 45.1946 46.91 45.6946 47.41C46.1946 47.89 46.5946 48.5 46.8946 49.24C47.1946 49.96 47.3446 50.85 47.3446 51.91C47.3446 53.03 47.0546 54.07 46.4746 55.03C45.8946 55.99 45.0446 56.77 43.9246 57.37C42.8046 57.95 41.4246 58.24 39.7846 58.24C38.9446 58.24 38.0846 58.16 37.2046 58C36.3446 57.82 35.4946 57.56 34.6546 57.22C33.8146 56.86 33.0046 56.41 32.2246 55.87L34.1446 52.48C34.6646 52.86 35.2246 53.2 35.8246 53.5C36.4446 53.78 37.0646 54 37.6846 54.16C38.3046 54.32 38.8746 54.4 39.3946 54.4C39.9146 54.4 40.4346 54.33 40.9546 54.19C41.4946 54.03 41.9346 53.77 42.2746 53.41C42.6346 53.05 42.8146 52.55 42.8146 51.91C42.8146 51.47 42.6646 51.07 42.3646 50.71C42.0846 50.35 41.6946 50.02 41.1946 49.72C40.7146 49.42 40.1846 49.16 39.6046 48.94C38.9246 48.68 38.2246 48.38 37.5046 48.04C36.7846 47.7 36.1046 47.29 35.4646 46.81C34.8446 46.31 34.3346 45.7 33.9346 44.98C33.5546 44.24 33.3646 43.34 33.3646 42.28C33.3646 41 33.6446 39.89 34.2046 38.95C34.7846 38.01 35.5946 37.27 36.6346 36.73C37.6746 36.17 38.8746 35.86 40.2346 35.8C42.0146 35.8 43.4546 36.01 44.5546 36.43C45.6746 36.85 46.6746 37.35 47.5546 37.93L45.9046 41.26ZM51.6049 35.92H66.6649V40.12H55.9549V44.83H65.4349V49.03H55.9549V53.8H67.0849V58H51.6049V35.92Z" fill="white"/>
</svg>
