<svg width="114" height="114" viewBox="0 0 114 114" fill="none" xmlns="http://www.w3.org/2000/svg">
<circle cx="57" cy="57" r="56" stroke="black" stroke-width="2"/>
<circle cx="57" cy="57" r="49.5" fill="#26D367" stroke="#26D367"/>
<path d="M62.8949 48.26C62.0549 47.8 61.1949 47.42 60.3149 47.12C59.4549 46.82 58.6449 46.67 57.8849 46.67C56.9449 46.67 56.2049 46.86 55.6649 47.24C55.1249 47.62 54.8549 48.19 54.8549 48.95C54.8549 49.47 55.0549 49.94 55.4549 50.36C55.8749 50.76 56.4049 51.12 57.0449 51.44C57.7049 51.76 58.3849 52.05 59.0849 52.31C59.7249 52.55 60.3549 52.84 60.9749 53.18C61.6149 53.5 62.1849 53.91 62.6849 54.41C63.1849 54.89 63.5849 55.5 63.8849 56.24C64.1849 56.96 64.3349 57.85 64.3349 58.91C64.3349 60.03 64.0449 61.07 63.4649 62.03C62.8849 62.99 62.0349 63.77 60.9149 64.37C59.7949 64.95 58.4149 65.24 56.7749 65.24C55.9349 65.24 55.0749 65.16 54.1949 65C53.3349 64.82 52.4849 64.56 51.6449 64.22C50.8049 63.86 49.9949 63.41 49.2149 62.87L51.1349 59.48C51.6549 59.86 52.2149 60.2 52.8149 60.5C53.4349 60.78 54.0549 61 54.6749 61.16C55.2949 61.32 55.8649 61.4 56.3849 61.4C56.9049 61.4 57.4249 61.33 57.9449 61.19C58.4849 61.03 58.9249 60.77 59.2649 60.41C59.6249 60.05 59.8049 59.55 59.8049 58.91C59.8049 58.47 59.6549 58.07 59.3549 57.71C59.0749 57.35 58.6849 57.02 58.1849 56.72C57.7049 56.42 57.1749 56.16 56.5949 55.94C55.9149 55.68 55.2149 55.38 54.4949 55.04C53.7749 54.7 53.0949 54.29 52.4549 53.81C51.8349 53.31 51.3249 52.7 50.9249 51.98C50.5449 51.24 50.3549 50.34 50.3549 49.28C50.3549 48 50.6349 46.89 51.1949 45.95C51.7749 45.01 52.5849 44.27 53.6249 43.73C54.6649 43.17 55.8649 42.86 57.2249 42.8C59.0049 42.8 60.4449 43.01 61.5449 43.43C62.6649 43.85 63.6649 44.35 64.5449 44.93L62.8949 48.26Z" fill="white"/>
</svg>
