<svg width="117" height="18" viewBox="0 0 117 18" fill="none" xmlns="http://www.w3.org/2000/svg">
<path d="M13.125 4.875H13.1325M5.25 1.5H12.75C14.8211 1.5 16.5 3.17893 16.5 5.25V12.75C16.5 14.8211 14.8211 16.5 12.75 16.5H5.25C3.17893 16.5 1.5 14.8211 1.5 12.75V5.25C1.5 3.17893 3.17893 1.5 5.25 1.5ZM12 8.5275C12.0926 9.15168 11.9859 9.78916 11.6953 10.3493C11.4047 10.9094 10.9449 11.3636 10.3812 11.6473C9.81758 11.931 9.17884 12.0297 8.55584 11.9294C7.93284 11.8292 7.35732 11.5351 6.91113 11.0889C6.46494 10.6427 6.1708 10.0672 6.07055 9.44416C5.9703 8.82116 6.06905 8.18242 6.35274 7.61878C6.63644 7.05514 7.09064 6.59531 7.65074 6.30468C8.21084 6.01406 8.84832 5.90744 9.4725 6C10.1092 6.09441 10.6986 6.3911 11.1538 6.84623C11.6089 7.30136 11.9056 7.89081 12 8.5275Z" stroke="white" stroke-linecap="round" stroke-linejoin="round"/>
<path d="M46.5 1.5H44.25C43.2554 1.5 42.3016 1.89509 41.5983 2.59835C40.8951 3.30161 40.5 4.25544 40.5 5.25V7.5H38.25V10.5H40.5V16.5H43.5V10.5H45.75L46.5 7.5H43.5V5.25C43.5 5.05109 43.579 4.86032 43.7197 4.71967C43.8603 4.57902 44.0511 4.5 44.25 4.5H46.5V1.5Z" stroke="white" stroke-linecap="round" stroke-linejoin="round"/>
<path d="M67.8749 12.75C67.351 10.2774 67.351 7.72255 67.8749 5.25C67.9437 4.99891 68.0767 4.77006 68.2608 4.58595C68.4449 4.40185 68.6738 4.26884 68.9249 4.2C72.9475 3.53359 77.0523 3.53359 81.0749 4.2C81.326 4.26884 81.5548 4.40185 81.7389 4.58595C81.923 4.77006 82.056 4.99891 82.1249 5.25C82.6488 7.72255 82.6488 10.2774 82.1249 12.75C82.056 13.0011 81.923 13.2299 81.7389 13.414C81.5548 13.5981 81.326 13.7312 81.0749 13.8C77.0523 14.4665 72.9475 14.4665 68.9249 13.8C68.6738 13.7312 68.4449 13.5981 68.2608 13.414C68.0767 13.2299 67.9437 13.0011 67.8749 12.75Z" stroke="white" stroke-linecap="round" stroke-linejoin="round"/>
<path d="M73.4999 11.25L77.2499 9L73.4999 6.75V11.25Z" stroke="white" stroke-linecap="round" stroke-linejoin="round"/>
<path d="M115.5 3C115.5 3 114.975 4.575 114 5.55C115.2 13.05 106.95 18.525 100.5 14.25C102.15 14.325 103.8 13.8 105 12.75C101.25 11.625 99.375 7.2 101.25 3.75C102.9 5.7 105.45 6.825 108 6.75C107.325 3.6 111 1.8 113.25 3.9C114.075 3.9 115.5 3 115.5 3Z" stroke="white" stroke-linecap="round" stroke-linejoin="round"/>
</svg>
