<svg xmlns="http://www.w3.org/2000/svg" width="123" height="102" viewBox="0 0 123 102">
  <defs>
    <style>
      .cls-1 {
        fill-rule: evenodd;
      }
    </style>
  </defs>
  <path id="S" className="cls-1" d="M97.7-.008H7.9c-4.369,0-7.91,6.305-7.91,14.073V87.942c0,7.767,3.542,14.073,7.91,14.073H115.076c4.369,0,7.911-6.306,7.911-14.073L105.609,14.065C103.872,6.3,102.067-.008,97.7-0.008ZM63.5,71.175a13.522,13.522,0,0,0,5.871-4.74,11.534,11.534,0,0,0,1.937-6.48,9.786,9.786,0,0,0-4.828-8.91,23.078,23.078,0,0,0-4.709-2.13,52.634,52.634,0,0,0-5.185-1.41q-2.623-.57-4.768-1.14a9.576,9.576,0,0,1-3.457-1.59,3.251,3.251,0,0,1-1.311-2.7,3.923,3.923,0,0,1,.8-2.4,5.321,5.321,0,0,1,2.533-1.71,13.715,13.715,0,0,1,4.589-.63,21.808,21.808,0,0,1,5.722.81,24.213,24.213,0,0,1,5.781,2.43l3.04-7.32a22.953,22.953,0,0,0-6.705-2.76,32.021,32.021,0,0,0-7.778-.96,23.785,23.785,0,0,0-9.8,1.77,13.067,13.067,0,0,0-5.811,4.74,11.9,11.9,0,0,0-1.907,6.57,10.722,10.722,0,0,0,1.281,5.49,10.119,10.119,0,0,0,3.457,3.54,20.7,20.7,0,0,0,4.768,2.16q2.593,0.81,5.156,1.38t4.738,1.2A10.723,10.723,0,0,1,60.4,58a3.175,3.175,0,0,1,1.311,2.67,3.476,3.476,0,0,1-.834,2.31,5.724,5.724,0,0,1-2.593,1.59,14.631,14.631,0,0,1-4.619.6,23.447,23.447,0,0,1-7.45-1.23,22.769,22.769,0,0,1-6.318-3.15l-3.278,7.32a22.365,22.365,0,0,0,7.42,3.51,34.134,34.134,0,0,0,9.626,1.35A23.638,23.638,0,0,0,63.5,71.175Z"/>
</svg>
