<svg width="20" height="20" viewBox="0 0 20 20" fill="none" xmlns="http://www.w3.org/2000/svg">
<g clip-path="url(#clip0_2_65)">
<path d="M13.5327 19.4444C14.2871 19.4453 15.0343 19.2977 15.7317 19.0098C16.4288 18.722 17.0624 18.2997 17.5964 17.767C18.1309 17.236 18.555 16.6044 18.8443 15.9088C19.1338 15.213 19.2826 14.4661 19.2822 13.7126C19.281 12.7924 19.0582 11.887 18.6341 11.0725C18.6751 10.7301 18.6956 10.3851 18.6956 10.0385C18.6948 8.88878 18.4673 7.75046 18.0261 6.68872C17.585 5.62698 16.9383 4.66229 16.124 3.8506C15.1958 2.92712 14.0732 2.22242 12.8381 1.78787C11.6621 1.37411 10.4122 1.21519 9.17146 1.32077C8.30597 0.823916 7.31798 0.555555 6.30093 0.555555C4.77939 0.556045 3.31868 1.15902 2.24037 2.23284C1.35088 3.11791 0.777354 4.27109 0.608309 5.51446C0.447939 6.69402 0.660052 7.89254 1.21239 8.94347M13.5327 19.4444L13.5333 18.8889M13.5327 19.4444C12.5637 19.4443 11.6187 19.1997 10.7824 18.745M10.7824 18.745C10.8436 18.7389 10.9048 18.7322 10.966 18.725M10.7824 18.745C9.52327 18.8688 8.25143 18.7198 7.05387 18.307C5.79808 17.8742 4.65656 17.1629 3.71487 16.2261C2.9007 15.4146 2.25414 14.45 1.81297 13.3884C1.37178 12.327 1.14423 11.1889 1.14333 10.0393C1.14333 9.6718 1.16634 9.30617 1.21239 8.94347M10.7824 18.745C10.7274 18.715 10.6728 18.6842 10.6187 18.6524M1.21239 8.94347C1.24227 9.00031 1.27314 9.05672 1.30501 9.11269M1.21239 8.94347C1.22034 8.88082 1.22899 8.81826 1.23831 8.75577M9.21867 9.96741L9.20936 9.96361C8.7556 9.78356 8.32128 9.55796 7.91303 9.29027C7.6548 9.12003 7.43917 8.89399 7.28326 8.62962C7.13841 8.35357 7.06693 8.04546 7.07536 7.7339L7.07579 7.71789L7.0753 7.70189C7.06356 7.31846 7.19391 6.94426 7.44124 6.65113C7.72593 6.32598 8.09177 6.0821 8.50147 5.94438L8.5099 5.94147C8.99692 5.769 9.51029 5.68277 10.0269 5.68666L10.0363 5.68664C10.3849 5.68339 10.7332 5.70997 11.0772 5.76609L11.0815 5.76677C11.3136 5.80277 11.5414 5.86168 11.7619 5.94262L11.7737 5.94681C11.9176 5.996 12.0483 6.07732 12.1559 6.18451C12.1882 6.2277 12.2053 6.28048 12.2046 6.33466L12.2043 6.34964L12.2049 6.36461C12.207 6.42072 12.1879 6.47549 12.1513 6.51797C12.1412 6.52802 12.1292 6.53603 12.116 6.54156C12.1016 6.54762 12.086 6.55056 12.0703 6.55017L12.0614 6.55002C12.012 6.54959 11.9627 6.53841 11.9182 6.51768L11.9097 6.51376C11.5973 6.37438 11.2761 6.25706 10.9464 6.16182L10.933 6.15812C10.6108 6.07373 10.277 6.03059 9.94149 6.03324C9.46152 6.01771 8.98706 6.14013 8.5744 6.38614L8.57134 6.38799C8.34859 6.52273 8.16639 6.71519 8.04402 6.94498C7.92409 7.1702 7.866 7.42309 7.87553 7.6779C7.8767 8.02577 8.01051 8.36033 8.25 8.61317L8.25193 8.6152C8.47051 8.84362 8.72958 9.0295 9.01595 9.16341C9.39545 9.34495 9.78043 9.51479 10.1703 9.67271L10.1916 9.68131L10.2135 9.68813C10.2411 9.69676 10.2681 9.70753 10.294 9.72036L10.3152 9.7308L10.3371 9.73942C10.7901 9.91707 11.2239 10.14 11.632 10.4049C11.9083 10.584 12.1416 10.8224 12.3144 11.1025C12.4748 11.384 12.5551 11.704 12.5469 12.028L12.5464 12.0446L12.547 12.061C12.5607 12.464 12.4464 12.8609 12.2204 13.1947C11.9843 13.5112 11.6596 13.7509 11.2872 13.8832C10.7713 14.0667 10.2264 14.1556 9.67893 14.1457L9.66409 14.1453L9.64926 14.1459C8.88902 14.1728 8.13238 14.0297 7.43452 13.7269C7.32413 13.6777 7.22681 13.6033 7.1502 13.51C7.11304 13.4536 7.09388 13.387 7.09541 13.3192L7.0959 13.2978L7.09473 13.2763C7.09359 13.2554 7.09699 13.2346 7.10471 13.2151C7.11106 13.1992 7.12018 13.1844 7.13163 13.1718C7.17702 13.1366 7.23351 13.1183 7.2912 13.1207L7.305 13.121C7.445 13.1231 7.58253 13.1583 7.70637 13.2237L7.71361 13.2273C7.91694 13.3308 8.12301 13.4288 8.33159 13.5212L8.33983 13.5248C8.77176 13.7079 9.23646 13.8009 9.70542 13.798C10.21 13.8287 10.7117 13.6924 11.1314 13.4097L11.1472 13.399L11.1622 13.3873C11.3537 13.2384 11.5067 13.046 11.6087 12.8259C11.709 12.6094 11.757 12.3724 11.7489 12.1341C11.746 11.7782 11.6091 11.4353 11.3627 11.1761L11.3593 11.1727C11.1196 10.9248 10.8388 10.7187 10.5285 10.5659C10.2056 10.3961 9.7665 10.1964 9.21867 9.96741Z" stroke="black" stroke-width="1.11111"/>
</g>
<defs>
<clipPath id="clip0_2_65">
<rect width="20" height="20" fill="white"/>
</clipPath>
</defs>
</svg>
