<svg width="24" height="24" viewBox="0 0 24 24" fill="none" xmlns="http://www.w3.org/2000/svg">
<g clip-path="url(#clip0_47_129)">
<path d="M19.1187 19.071H9.26172C9.12911 19.071 9.00193 19.0183 8.90816 18.9245C8.8144 18.8308 8.76172 18.7036 8.76172 18.571C8.76172 18.4384 8.8144 18.3112 8.90816 18.2174C9.00193 18.1236 9.12911 18.071 9.26172 18.071H19.1187C19.6336 18.0792 20.1449 17.985 20.6229 17.7937C21.101 17.6024 21.5362 17.3178 21.9032 16.9567C22.2702 16.5955 22.5616 16.165 22.7606 15.69C22.9596 15.2151 23.062 14.7054 23.062 14.1905C23.062 13.6756 22.9596 13.1658 22.7606 12.6909C22.5616 12.216 22.2702 11.7854 21.9032 11.4242C21.5362 11.0631 21.101 10.7786 20.6229 10.5873C20.1449 10.396 19.6336 10.3017 19.1187 10.31C19.0647 10.3113 19.0109 10.3166 18.9577 10.326L18.7927 10.345C18.6814 10.3578 18.5692 10.3315 18.4752 10.2705C18.3812 10.2096 18.3114 10.1178 18.2777 10.011C17.9863 9.16559 17.5113 8.39525 16.8868 7.75529C16.2623 7.11533 15.5038 6.62163 14.6658 6.30966C13.8278 5.99769 12.9311 5.8752 12.0401 5.95098C11.1491 6.02677 10.286 6.29895 9.51272 6.74797C9.39794 6.81322 9.26201 6.83043 9.13459 6.79584C9.00717 6.76125 8.8986 6.67766 8.83258 6.56331C8.76656 6.44897 8.74845 6.31315 8.7822 6.18551C8.81595 6.05786 8.89881 5.94874 9.01272 5.88197C9.8845 5.37635 10.8545 5.06336 11.8574 4.96404C12.8602 4.86472 13.8728 4.98138 14.8268 5.30618C15.7808 5.63097 16.6542 6.15636 17.3881 6.84699C18.1221 7.53761 18.6996 8.37745 19.0817 9.30997H19.1187C19.7655 9.30071 20.4077 9.4201 21.0079 9.66122C21.6082 9.90233 22.1545 10.2604 22.6152 10.7145C23.0758 11.1686 23.4416 11.7097 23.6913 12.3065C23.941 12.9032 24.0696 13.5436 24.0696 14.1905C24.0696 14.8373 23.941 15.4777 23.6913 16.0745C23.4416 16.6712 23.0758 17.2124 22.6152 17.6665C22.1545 18.1206 21.6082 18.4786 21.0079 18.7197C20.4077 18.9608 19.7655 19.0802 19.1187 19.071Z" fill="black"/>
<path d="M0.5 17.4289C0.367392 17.4289 0.240215 17.3763 0.146447 17.2825C0.0526784 17.1887 0 17.0615 0 16.9289V10.3569C0 10.2243 0.0526784 10.0971 0.146447 10.0034C0.240215 9.90961 0.367392 9.85693 0.5 9.85693C0.632608 9.85693 0.759785 9.90961 0.853553 10.0034C0.947322 10.0971 1 10.2243 1 10.3569V16.9289C1 17.0615 0.947322 17.1887 0.853553 17.2825C0.759785 17.3763 0.632608 17.4289 0.5 17.4289Z" fill="black"/>
<path d="M3.23828 19.0709C3.10567 19.0709 2.9785 19.0182 2.88473 18.9244C2.79096 18.8307 2.73828 18.7035 2.73828 18.5709V7.6189C2.73828 7.48629 2.79096 7.35911 2.88473 7.26534C2.9785 7.17158 3.10567 7.1189 3.23828 7.1189C3.37089 7.1189 3.49807 7.17158 3.59183 7.26534C3.6856 7.35911 3.73828 7.48629 3.73828 7.6189V18.5709C3.73828 18.7035 3.6856 18.8307 3.59183 18.9244C3.49807 19.0182 3.37089 19.0709 3.23828 19.0709Z" fill="black"/>
<path d="M5.97656 19.0711C5.84395 19.0711 5.71678 19.0184 5.62301 18.9247C5.52924 18.8309 5.47656 18.7037 5.47656 18.5711V8.71411C5.47656 8.5815 5.52924 8.45433 5.62301 8.36056C5.71678 8.26679 5.84395 8.21411 5.97656 8.21411C6.10917 8.21411 6.23635 8.26679 6.33012 8.36056C6.42388 8.45433 6.47656 8.5815 6.47656 8.71411V18.5711C6.47656 18.7037 6.42388 18.8309 6.33012 18.9247C6.23635 19.0184 6.10917 19.0711 5.97656 19.0711Z" fill="black"/>
</g>
<defs>
<clipPath id="clip0_47_129">
<rect width="24" height="24" fill="white"/>
</clipPath>
</defs>
</svg>
