<svg width="20" height="20" viewBox="0 0 24 24" fill="none" xmlns="http://www.w3.org/2000/svg">
<path d="M18 10.561C17.9141 10.561 17.8296 10.5386 17.755 10.496C14.4291 8.62273 10.5201 8.06941 6.805 8.946C6.67597 8.97677 6.54001 8.95501 6.42702 8.88553C6.31403 8.81605 6.23326 8.70453 6.2025 8.5755C6.17173 8.44647 6.19349 8.31051 6.26297 8.19752C6.33245 8.08453 6.44397 8.00377 6.573 7.973C10.5348 7.03732 14.7036 7.62746 18.25 9.626C18.3461 9.68046 18.4214 9.7652 18.4643 9.867C18.5072 9.9688 18.5151 10.0819 18.4869 10.1887C18.4587 10.2955 18.3959 10.3899 18.3084 10.4573C18.2208 10.5246 18.1135 10.5611 18.003 10.561H18Z" fill="black"/>
<path d="M16.646 13.632C16.5587 13.6321 16.4728 13.6094 16.397 13.566C13.6334 11.9859 10.3697 11.5236 7.276 12.274C7.21146 12.2919 7.14397 12.2967 7.07755 12.288C7.01113 12.2794 6.94712 12.2574 6.88934 12.2236C6.83155 12.1897 6.78116 12.1445 6.74116 12.0908C6.70116 12.0371 6.67236 11.9759 6.65648 11.9108C6.64059 11.8457 6.63795 11.7781 6.6487 11.712C6.65945 11.6459 6.68337 11.5826 6.71905 11.5259C6.75473 11.4692 6.80144 11.4203 6.8564 11.382C6.91136 11.3437 6.97346 11.3168 7.039 11.303C10.3837 10.4905 13.9126 10.9905 16.9 12.7C16.9953 12.755 17.0698 12.84 17.1119 12.9417C17.154 13.0434 17.1614 13.1561 17.1329 13.2624C17.1045 13.3687 17.0417 13.4627 16.9544 13.5297C16.867 13.5967 16.7601 13.633 16.65 13.633L16.646 13.632Z" fill="black"/>
<path d="M15.312 16.583C15.2238 16.5829 15.1372 16.5594 15.061 16.515C12.8571 15.2326 10.2393 14.8619 7.766 15.482C7.63737 15.5145 7.5011 15.4946 7.38717 15.4266C7.27325 15.3586 7.19099 15.2481 7.1585 15.1195C7.12601 14.9909 7.14595 14.8546 7.21393 14.7407C7.28191 14.6267 7.39237 14.5445 7.521 14.512C10.2479 13.8271 13.1345 14.2359 15.564 15.651C15.659 15.7063 15.7331 15.7914 15.7748 15.8931C15.8165 15.9948 15.8236 16.1074 15.7949 16.2135C15.7662 16.3196 15.7034 16.4133 15.6161 16.4801C15.5288 16.5469 15.4219 16.5831 15.312 16.583Z" fill="black"/>
<path d="M12 23C9.82441 23 7.69767 22.3549 5.88873 21.1462C4.07979 19.9375 2.66989 18.2195 1.83733 16.2095C1.00476 14.1995 0.786925 11.9878 1.21136 9.85401C1.6358 7.72021 2.68345 5.7602 4.22183 4.22182C5.7602 2.68345 7.72022 1.6358 9.85401 1.21136C11.9878 0.786924 14.1995 1.00476 16.2095 1.83732C18.2195 2.66989 19.9375 4.07979 21.1462 5.88873C22.3549 7.69767 23 9.8244 23 12C22.9966 14.9163 21.8365 17.7122 19.7744 19.7744C17.7122 21.8365 14.9163 22.9966 12 23ZM12 2C10.0222 2 8.08879 2.58649 6.4443 3.6853C4.79981 4.78412 3.51808 6.3459 2.7612 8.17316C2.00433 10.0004 1.8063 12.0111 2.19215 13.9509C2.578 15.8907 3.53041 17.6725 4.92893 19.0711C6.32746 20.4696 8.10929 21.422 10.0491 21.8079C11.9889 22.1937 13.9996 21.9957 15.8268 21.2388C17.6541 20.4819 19.2159 19.2002 20.3147 17.5557C21.4135 15.9112 22 13.9778 22 12C21.9971 9.34873 20.9426 6.80688 19.0679 4.93215C17.1931 3.05741 14.6513 2.00291 12 2Z" fill="black"/>
</svg>
