<svg width="20" height="20" viewBox="0 0 24 24" fill="none" xmlns="http://www.w3.org/2000/svg">
<path d="M7.4 3.7C5.5 5 3.9 7.4 3.9 11.7C3.9 16 5.2 18.5 6.9 20C8.5 21.5 10.6 22 12.5 22C13.3 22 15.2 21.9 16.9 21C18.6 20.3 20 18.9 20 16.4C20 15.4 19.8 14.6 19.4 14C19 13.4 18.4 13 17.8 12.6C17.6383 12.492 17.4714 12.3918 17.3 12.3C17 15 16 16.3 15 17C14 17.6 13 17.6 12.7 17.6C11.6 17.6 10.6 17.4 9.8 16.8C9.41358 16.5106 9.10272 16.1322 8.8938 15.697C8.68489 15.2617 8.5841 14.7825 8.6 14.3C8.6 13.4 8.8 12.8 9.2 12.3C9.6 11.8 10.1 11.5 10.6 11.3C11.6 10.8 12.8 10.8 13.4 10.8C14.2 10.8 15.2 10.8 16.2 11.1C16.2 9.5 15.6 8.6 15 8.1C14.3 7.5 13.3 7.4 12.7 7.4C12 7.4 11.5 7.5 11.1 7.7C10.6 7.9 10.2 8.2 9.7 8.7L9.4 9L8.7 8.4L9 8C9.6 7.5 10 7 10.7 6.8C11.3 6.5 11.9 6.4 12.7 6.4C13.4 6.4 14.7 6.5 15.7 7.4C16.6 8.1 17.2 9.4 17.2 11.4L18.2 11.8C18.9 12.2 19.6 12.8 20.2 13.6C20.6 14.4 20.9 15.3 20.9 16.6C20.9 19.5 19.2 21.1 17.3 22C15.3 23 13.3 23.1 12.4 23.1C10.4 23.1 8 22.6 6.1 20.9C4.1 19.1 2.8 16.3 2.8 11.8C3 7 4.7 4.4 6.8 2.9C8.9 1.3 11.4 1 12.8 1C14.1 1 15.8 1.1 17.5 2C19.2 2.9 20.8 4.6 21.9 7.6L22.1 8L21.1 8.4L21 7.9C20 5.1 18.5 3.6 17 2.9C15.4586 2.15671 13.7466 1.83894 12.0411 1.9796C10.3356 2.12025 8.69879 2.71422 7.3 3.7H7.4ZM16.4 12L13.4 11.7C13 11.7 12 11.7 11.1 12.1C10.7 12.2 10.3 12.5 10.1 12.8C9.8 13.1 9.6 13.5 9.6 14.2C9.6 15 10 15.6 10.5 15.9C11.1882 16.3284 11.9902 16.5377 12.8 16.5C13.1 16.5 13.8 16.5 14.6 16.1C15.3 15.6 16.1 14.6 16.3 12.1L16.4 12Z" fill="black"/>
</svg>
