<svg width="20" height="20" viewBox="0 0 24 24" fill="none" xmlns="http://www.w3.org/2000/svg">
<path d="M9.37 23.5C7.38936 23.5 5.48985 22.7132 4.08933 21.3127C2.68881 19.9122 1.902 18.0126 1.902 16.032C1.902 14.0514 2.68881 12.1518 4.08933 10.7513C5.48985 9.3508 7.38936 8.564 9.37 8.564C9.50641 8.56342 9.63793 8.61478 9.73785 8.70764C9.83777 8.8005 9.8986 8.92791 9.908 9.064V12.864C9.89831 12.9934 9.84252 13.115 9.75077 13.2068C9.65902 13.2985 9.53739 13.3543 9.408 13.364C8.87856 13.3588 8.35954 13.5112 7.91685 13.8016C7.47415 14.092 7.12776 14.5075 6.92166 14.9952C6.71557 15.4829 6.65907 16.0208 6.75934 16.5407C6.8596 17.0606 7.11212 17.5389 7.48481 17.915C7.8575 18.2911 8.33355 18.5479 8.8525 18.6529C9.37146 18.7578 9.9099 18.7062 10.3994 18.5045C10.889 18.3028 11.3075 17.9602 11.602 17.5201C11.8964 17.0801 12.0534 16.5625 12.053 16.033C12.052 16.0163 12.052 15.9997 12.053 15.983V1C12.053 0.867392 12.1057 0.740215 12.1994 0.646447C12.2932 0.552678 12.4204 0.5 12.553 0.5H16.34C16.4726 0.5 16.5998 0.552678 16.6936 0.646447C16.7873 0.740215 16.84 0.867392 16.84 1C16.8397 2.26078 17.3398 3.47015 18.2303 4.36259C19.1209 5.25503 20.3292 5.75762 21.59 5.76C21.7226 5.76 21.8498 5.81268 21.9436 5.90645C22.0373 6.00021 22.09 6.12739 22.09 6.26L22.1 10C22.0955 10.1358 22.0392 10.2648 21.9427 10.3605C21.8463 10.4562 21.7169 10.5115 21.581 10.515C19.9164 10.5183 18.2807 10.0808 16.84 9.247V16.036C16.8368 18.0156 16.0486 19.9132 14.6482 21.3125C13.2478 22.7117 11.3496 23.4984 9.37 23.5ZM8.908 9.585C7.65206 9.67536 6.44984 10.1305 5.4489 10.8944C4.44796 11.6584 3.69187 12.698 3.27344 13.8857C2.85501 15.0733 2.79246 16.3573 3.09345 17.5799C3.39444 18.8026 4.04588 19.9108 4.9678 20.7685C5.88973 21.6262 7.04202 22.196 8.28322 22.408C9.52443 22.62 10.8005 22.465 11.9549 21.962C13.1093 21.4591 14.0916 20.63 14.7814 19.5765C15.4712 18.5231 15.8385 17.2912 15.838 16.032V8.326C15.8379 8.23406 15.8632 8.14387 15.9111 8.06537C15.9589 7.98686 16.0275 7.92306 16.1092 7.881C16.191 7.83893 16.2828 7.82022 16.3745 7.82693C16.4662 7.83363 16.5542 7.86549 16.629 7.919C17.9376 8.86242 19.4892 9.41108 21.1 9.5L21.094 6.74C19.7446 6.62141 18.4802 6.03112 17.5228 5.07282C16.5654 4.11452 15.9763 2.84951 15.859 1.5H13.051V16.032C13.052 16.0497 13.052 16.0673 13.051 16.085C13.0408 16.7889 12.8285 17.4751 12.4394 18.0618C12.0502 18.6485 11.5006 19.1109 10.856 19.394C10.2115 19.6771 9.49908 19.769 8.80377 19.6586C8.10846 19.5483 7.45954 19.2403 6.9343 18.7716C6.40906 18.3028 6.02965 17.6929 5.84128 17.0145C5.6529 16.3362 5.66349 15.618 5.8718 14.9455C6.0801 14.273 6.47734 13.6746 7.01618 13.2215C7.55501 12.7684 8.21274 12.4798 8.911 12.39L8.908 9.585Z" fill="black"/>
</svg>
