<svg width="188" height="44" viewBox="0 0 188 44" fill="none" xmlns="http://www.w3.org/2000/svg">
<g clip-path="url(#clip0_133_633)">
<path d="M18.15 43.45C14.6833 43.45 11.9833 42.6 10.05 40.9C8.11667 39.1667 7.15 36.5667 7.15 33.1V9.85H16.65V33C16.65 33.9667 16.9167 34.7333 17.45 35.3C17.9833 35.8333 18.6667 36.1 19.5 36.1C20.6333 36.1 21.6 35.8167 22.4 35.25L24.75 41.9C23.95 42.4333 22.9667 42.8167 21.8 43.05C20.6333 43.3167 19.4167 43.45 18.15 43.45ZM3.2 24V16.9H22.85V24H3.2ZM25.9133 43V15.9H34.9633V23.8L33.6133 21.55C34.4133 19.5167 35.7133 18 37.5133 17C39.3133 15.9667 41.4966 15.45 44.0633 15.45V24C43.6299 23.9333 43.2466 23.9 42.9133 23.9C42.6133 23.8667 42.2799 23.85 41.9133 23.85C39.9799 23.85 38.4133 24.3833 37.2133 25.45C36.0133 26.4833 35.4133 28.1833 35.4133 30.55V43H25.9133ZM45.4836 43V15.9H54.9836V43H45.4836ZM50.2336 12.9C48.5003 12.9 47.1003 12.4167 46.0336 11.45C44.9669 10.4833 44.4336 9.28333 44.4336 7.85C44.4336 6.41666 44.9669 5.21666 46.0336 4.25C47.1003 3.28333 48.5003 2.8 50.2336 2.8C51.9669 2.8 53.3669 3.26667 54.4336 4.2C55.5003 5.1 56.0336 6.26667 56.0336 7.7C56.0336 9.2 55.5003 10.45 54.4336 11.45C53.4003 12.4167 52.0003 12.9 50.2336 12.9ZM93.9574 15.45C96.0574 15.45 97.9241 15.8833 99.5574 16.75C101.224 17.5833 102.524 18.8833 103.457 20.65C104.424 22.4167 104.907 24.7 104.907 27.5V43H95.4074V29.05C95.4074 27.1167 95.0408 25.7167 94.3074 24.85C93.5741 23.95 92.5741 23.5 91.3074 23.5C90.4074 23.5 89.5908 23.7167 88.8574 24.15C88.1241 24.5833 87.5574 25.25 87.1574 26.15C86.7574 27.0167 86.5574 28.15 86.5574 29.55V43H77.0574V29.05C77.0574 27.1167 76.6908 25.7167 75.9574 24.85C75.2574 23.95 74.2574 23.5 72.9574 23.5C72.0241 23.5 71.1908 23.7167 70.4574 24.15C69.7574 24.5833 69.1908 25.25 68.7574 26.15C68.3574 27.0167 68.1574 28.15 68.1574 29.55V43H58.6574V15.9H67.7074V23.45L65.9074 21.3C66.9074 19.3667 68.2741 17.9167 70.0074 16.95C71.7408 15.95 73.6741 15.45 75.8074 15.45C78.2408 15.45 80.3741 16.0833 82.2074 17.35C84.0741 18.5833 85.3241 20.5167 85.9574 23.15L82.8574 22.5C83.8241 20.3 85.2741 18.5833 87.2074 17.35C89.1741 16.0833 91.4241 15.45 93.9574 15.45ZM143.704 15.45C145.804 15.45 147.67 15.8833 149.304 16.75C150.97 17.5833 152.27 18.8833 153.204 20.65C154.17 22.4167 154.654 24.7 154.654 27.5V43H145.154V29.05C145.154 27.1167 144.787 25.7167 144.054 24.85C143.32 23.95 142.32 23.5 141.054 23.5C140.154 23.5 139.337 23.7167 138.604 24.15C137.87 24.5833 137.304 25.25 136.904 26.15C136.504 27.0167 136.304 28.15 136.304 29.55V43H126.804V29.05C126.804 27.1167 126.437 25.7167 125.704 24.85C125.004 23.95 124.004 23.5 122.704 23.5C121.77 23.5 120.937 23.7167 120.204 24.15C119.504 24.5833 118.937 25.25 118.504 26.15C118.104 27.0167 117.904 28.15 117.904 29.55V43H108.404V15.9H117.454V23.45L115.654 21.3C116.654 19.3667 118.02 17.9167 119.754 16.95C121.487 15.95 123.42 15.45 125.554 15.45C127.987 15.45 130.12 16.0833 131.954 17.35C133.82 18.5833 135.07 20.5167 135.704 23.15L132.604 22.5C133.57 20.3 135.02 18.5833 136.954 17.35C138.92 16.0833 141.17 15.45 143.704 15.45ZM172.091 43.45C169.125 43.45 166.491 42.85 164.191 41.65C161.891 40.45 160.075 38.8 158.741 36.7C157.441 34.5667 156.791 32.1333 156.791 29.4C156.791 26.6667 157.441 24.25 158.741 22.15C160.075 20.05 161.891 18.4167 164.191 17.25C166.491 16.05 169.125 15.45 172.091 15.45C175.058 15.45 177.691 16.05 179.991 17.25C182.325 18.4167 184.141 20.05 185.441 22.15C186.741 24.25 187.391 26.6667 187.391 29.4C187.391 32.1333 186.741 34.5667 185.441 36.7C184.141 38.8 182.325 40.45 179.991 41.65C177.691 42.85 175.058 43.45 172.091 43.45ZM172.091 35.9C173.191 35.9 174.158 35.65 174.991 35.15C175.858 34.65 176.541 33.9167 177.041 32.95C177.541 31.95 177.791 30.7667 177.791 29.4C177.791 28.0333 177.541 26.8833 177.041 25.95C176.541 24.9833 175.858 24.25 174.991 23.75C174.158 23.25 173.191 23 172.091 23C171.025 23 170.058 23.25 169.191 23.75C168.358 24.25 167.675 24.9833 167.141 25.95C166.641 26.8833 166.391 28.0333 166.391 29.4C166.391 30.7667 166.641 31.95 167.141 32.95C167.675 33.9167 168.358 34.65 169.191 35.15C170.058 35.65 171.025 35.9 172.091 35.9Z" fill="#29292B"/>
<path fill-rule="evenodd" clip-rule="evenodd" d="M111.983 9L109.138 26.333L114 23.418L106.862 50.7007L108.155 31.6444L102 33.9044L104.845 15.2091" fill="#F1F0E6"/>
<path fill-rule="evenodd" clip-rule="evenodd" d="M56.9088 5.04914C56.793 4.67217 56.5776 4.33339 56.2855 4.06848C55.9934 3.80356 55.6352 3.62231 55.2487 3.54379C55.3144 3.15853 55.2725 2.76261 55.1276 2.39964C54.9827 2.03668 54.7404 1.72076 54.4274 1.4867C54.0852 1.22905 53.6772 1.0733 53.2503 1.03738C52.8235 1.00146 52.3951 1.08683 52.0147 1.28366C51.8385 0.912862 51.5641 0.597374 51.2214 0.37139C50.8786 0.145407 50.4806 0.0175507 50.0704 0.00168125C49.6601 -0.0141882 49.2534 0.0825346 48.8942 0.281365C48.5351 0.480195 48.2372 0.773547 48.0328 1.12962C47.6717 0.960217 47.2724 0.888767 46.875 0.92244C46.4775 0.956113 46.096 1.09372 45.7685 1.32147C45.4463 1.54316 45.1915 1.84938 45.032 2.20649C44.8725 2.56359 44.8146 2.95775 44.8646 3.34564C44.4748 3.40929 44.1094 3.57666 43.8066 3.83019C43.5038 4.08372 43.2748 4.41407 43.1436 4.78658C43.0172 5.15569 42.9956 5.55264 43.0814 5.93325C43.1672 6.31386 43.357 6.6632 43.6295 6.94238C43.3515 7.21618 43.1548 7.5617 43.0614 7.94054C42.968 8.31938 42.9814 8.71671 43.1002 9.08839C43.2243 9.46281 43.4469 9.79692 43.7447 10.0556C44.0425 10.3144 44.4044 10.4881 44.7925 10.5587C44.7341 10.946 44.7839 11.3419 44.9363 11.7027C45.0888 12.0635 45.338 12.3752 45.6565 12.6032C45.9794 12.837 46.3582 12.9817 46.7548 13.0229C47.1514 13.0641 47.5518 13.0002 47.9159 12.8378C48.1067 13.1849 48.3856 13.4755 48.7245 13.6804C49.0635 13.8853 49.4505 13.9971 49.8465 14.0046C50.2425 14.0122 50.6334 13.9151 50.9799 13.7233C51.3264 13.5314 51.6162 13.2516 51.82 12.912C52.1778 13.0881 52.5755 13.1671 52.9734 13.1411C53.3713 13.115 53.7554 12.9848 54.0872 12.7635C54.4138 12.548 54.6748 12.2467 54.8414 11.8925C55.008 11.5384 55.0739 11.1453 55.0317 10.7562C55.4229 10.7 55.7918 10.5396 56.0997 10.2919C56.4077 10.0442 56.6434 9.71822 56.7821 9.34815C56.9159 8.98185 56.9454 8.58561 56.8674 8.20353C56.7894 7.82144 56.6069 7.46848 56.3403 7.18394C56.6236 6.9156 56.8271 6.57399 56.9281 6.19703C57.0291 5.82006 57.0236 5.42249 56.9123 5.04844" fill="#29292B"/>
</g>
<defs>
<clipPath id="clip0_133_633">
<rect width="188" height="44" fill="white"/>
</clipPath>
</defs>
</svg>
