<svg width="20" height="20" viewBox="0 0 24 24" fill="none" xmlns="http://www.w3.org/2000/svg">
<path d="M18.8 14.634C18.6378 14.4138 18.413 14.2476 18.155 14.157L17.99 14.076C17.972 14.067 16.145 13.159 15.782 13.027C15.5616 12.9089 15.3044 12.8793 15.0629 12.9441C14.8214 13.0089 14.6136 13.1634 14.482 13.376C14.305 13.642 13.761 14.29 13.564 14.576C13.5199 14.5667 13.4777 14.5501 13.439 14.527C13.381 14.499 13.302 14.464 13.206 14.422C12.3988 14.0889 11.6546 13.6197 11.006 13.035C10.3775 12.4253 9.81348 11.7524 9.323 11.027C9.34905 10.9937 9.37782 10.9626 9.409 10.934C9.509 10.834 9.632 10.686 9.751 10.542L9.91 10.351C10.0476 10.1886 10.1614 10.0074 10.248 9.813L10.292 9.723C10.37 9.56696 10.4084 9.39414 10.4038 9.21976C10.3993 9.04537 10.352 8.87478 10.266 8.723C10.209 8.607 9.916 7.888 9.65 7.242L9.31 6.408C9.24687 6.15566 9.09809 5.93306 8.88908 5.77822C8.68007 5.62338 8.42379 5.5459 8.164 5.559C7.972 5.549 7.752 5.547 7.534 5.547C7.2907 5.55489 7.05182 5.61422 6.8331 5.72109C6.61437 5.82795 6.42076 5.97992 6.265 6.167C5.8824 6.5468 5.58075 7.00022 5.37829 7.49986C5.17582 7.9995 5.07673 8.53499 5.087 9.074C5.19144 10.4006 5.6913 11.6654 6.522 12.705C7.91005 14.7847 9.8234 16.4604 12.068 17.562C12.6709 17.8216 13.2871 18.0493 13.914 18.244C14.3581 18.3843 14.8213 18.4545 15.287 18.452C15.5682 18.4509 15.849 18.4292 16.127 18.387C16.6548 18.2829 17.1539 18.0658 17.5899 17.7506C18.026 17.4354 18.3886 17.0296 18.653 16.561C18.9233 15.9548 18.9735 15.2733 18.795 14.634H18.8ZM17.716 16.224C17.3072 16.8226 16.6857 17.2431 15.978 17.4C15.3903 17.5018 14.787 17.4651 14.216 17.293C13.6212 17.1078 13.0364 16.8919 12.464 16.646C10.3898 15.6184 8.62306 14.0621 7.342 12.134L7.271 12.034C6.59525 11.1844 6.18358 10.1553 6.087 9.074C6.07918 8.64453 6.16186 8.21822 6.32967 7.82281C6.49749 7.4274 6.74666 7.07175 7.061 6.779C7.11945 6.70965 7.19168 6.65321 7.27311 6.61327C7.35454 6.57333 7.44338 6.55076 7.534 6.547C7.734 6.547 7.934 6.547 8.113 6.558L8.246 6.548C8.30869 6.61886 8.35601 6.70194 8.385 6.792L8.726 7.619C9.005 8.299 9.318 9.057 9.373 9.167C9.413 9.246 9.406 9.258 9.399 9.267L9.351 9.367C9.30056 9.48513 9.23319 9.59529 9.151 9.694L8.98 9.9C8.88 10.017 8.79 10.134 8.705 10.218C8.52269 10.3639 8.4 10.5714 8.36003 10.8014C8.32007 11.0315 8.36558 11.2682 8.488 11.467C8.98739 12.3242 9.61231 13.1019 10.342 13.774C11.0692 14.4291 11.9024 14.9559 12.806 15.332C12.882 15.366 12.944 15.392 12.99 15.415C13.1906 15.5461 13.4327 15.5982 13.6694 15.5612C13.9062 15.5243 14.1209 15.401 14.272 15.215C14.6387 14.808 14.9709 14.3712 15.265 13.909C15.3231 13.9209 15.38 13.938 15.435 13.96C15.664 14.044 17.035 14.71 17.535 14.96L17.712 15.047C17.779 15.079 17.856 15.116 17.912 15.147C17.9089 15.515 17.8409 15.8796 17.711 16.224H17.716Z" fill="black"/>
<path d="M12 1C10.0181 1.00044 8.07318 1.5363 6.37075 2.55096C4.66831 3.56562 3.27163 5.02138 2.32832 6.76437C1.38502 8.50735 0.930132 10.4728 1.01175 12.453C1.09337 14.4332 1.70846 16.3546 2.792 18.014L1.818 21.725C1.79599 21.8094 1.79644 21.898 1.81929 21.9822C1.84214 22.0664 1.8866 22.1431 1.94826 22.2047C2.00992 22.2664 2.08664 22.3109 2.1708 22.3337C2.25495 22.3566 2.34362 22.357 2.428 22.335L6.207 21.344C7.65338 22.2425 9.28859 22.7929 10.9839 22.9519C12.6791 23.1109 14.3882 22.8743 15.9764 22.2605C17.5647 21.6467 18.9888 20.6726 20.1365 19.4149C21.2843 18.1571 22.1244 16.6501 22.5907 15.0125C23.057 13.3749 23.1368 11.6514 22.8238 9.97769C22.5107 8.30399 21.8134 6.72582 20.7868 5.36744C19.7601 4.00906 18.4321 2.90757 16.9073 2.14969C15.3826 1.39182 13.7027 0.998255 12 1ZM12 22C10.0696 22.0002 8.18065 21.4395 6.563 20.386C6.50466 20.3476 6.43884 20.3221 6.36988 20.311C6.30092 20.3 6.2304 20.3037 6.163 20.322L3 21.151L3.814 18.051C3.8323 17.9816 3.83543 17.909 3.82318 17.8383C3.81093 17.7675 3.78358 17.7002 3.743 17.641C2.48293 15.7966 1.87668 13.5833 2.02094 11.3542C2.1652 9.12509 3.05164 7.00845 4.53894 5.3418C6.02623 3.67515 8.02872 2.55446 10.2271 2.15842C12.4255 1.76238 14.6932 2.11381 16.6686 3.15666C18.644 4.1995 20.2134 5.87373 21.1265 7.91236C22.0396 9.951 22.2438 12.2367 21.7066 14.4049C21.1694 16.5731 19.9217 18.499 18.1625 19.8756C16.4032 21.2521 14.2338 22 12 22Z" fill="black"/>
</svg>
