<svg width="29" height="29" viewBox="0 0 29 29" fill="none" xmlns="http://www.w3.org/2000/svg">
<path d="M2.50049 22C1.80192 18.7033 1.80192 15.2967 2.50049 12C2.59228 11.6652 2.76963 11.3601 3.0151 11.1146C3.26057 10.8691 3.5657 10.6918 3.90049 10.6C9.26394 9.71146 14.737 9.71146 20.1005 10.6C20.4353 10.6918 20.7404 10.8691 20.9859 11.1146C21.2314 11.3601 21.4087 11.6652 21.5005 12C22.1991 15.2967 22.1991 18.7033 21.5005 22C21.4087 22.3348 21.2314 22.6399 20.9859 22.8854C20.7404 23.1309 20.4353 23.3082 20.1005 23.4C14.7371 24.2887 9.26393 24.2887 3.90049 23.4C3.5657 23.3082 3.26057 23.1309 3.0151 22.8854C2.76963 22.6399 2.59228 22.3348 2.50049 22Z" stroke="#333333" stroke-linecap="round" stroke-linejoin="round"/>
<path d="M10.0005 20L15.0005 17L10.0005 14V20Z" stroke="#333333" stroke-linecap="round" stroke-linejoin="round"/>
<circle cx="21.5" cy="7.5" r="7.5" fill="white"/>
<path d="M18.5 7H25.5M22 3.5V10.5" stroke="black" stroke-width="0.7" stroke-linecap="round" stroke-linejoin="round"/>
</svg>
